<?xml version="1.0" encoding="utf-8" standalone="no"?>
<!DOCTYPE svg PUBLIC "-//W3C//DTD SVG 1.1//EN"
  "http://www.w3.org/Graphics/SVG/1.1/DTD/svg11.dtd">
<svg xmlns:xlink="http://www.w3.org/1999/xlink" width="590.833357pt" height="521.001797pt" viewBox="0 0 590.833357 521.001797" xmlns="http://www.w3.org/2000/svg" version="1.1">
 <metadata>
  <rdf:RDF xmlns:dc="http://purl.org/dc/elements/1.1/" xmlns:cc="http://creativecommons.org/ns#" xmlns:rdf="http://www.w3.org/1999/02/22-rdf-syntax-ns#">
   <cc:Work>
    <dc:type rdf:resource="http://purl.org/dc/dcmitype/StillImage"/>
    <dc:date>2026-07-08T15:06:47.055463</dc:date>
    <dc:format>image/svg+xml</dc:format>
    <dc:creator>
     <cc:Agent>
      <dc:title>Matplotlib v3.11.0, https://matplotlib.org/</dc:title>
     </cc:Agent>
    </dc:creator>
   </cc:Work>
  </rdf:RDF>
 </metadata>
 <defs>
  <style type="text/css">*{stroke-linejoin: round; stroke-linecap: butt}</style>
 </defs>
 <g id="figure_1">
  <g id="patch_1">
   <path d="M 0 521.001797 
L 590.833357 521.001797 
L 590.833357 0 
L 0 0 
L 0 521.001797 
z
" style="fill: none"/>
  </g>
  <g id="axes_1">
   <g id="patch_2">
    <path d="M 78.367344 297.084358 
L 580.351344 297.084358 
L 580.351344 7.2 
L 78.367344 7.2 
L 78.367344 297.084358 
z
" style="fill: none"/>
   </g>
   <g id="patch_3">
    <path d="M 78.367344 297.084358 
L 270.647765 297.084358 
L 270.647765 7.2 
L 78.367344 7.2 
z
" clip-path="url(#p6762ff6acf)" style="fill: #f6e3dd; opacity: 0.75"/>
   </g>
   <g id="patch_4">
    <path d="M 270.647765 297.084358 
L 580.351344 297.084358 
L 580.351344 7.2 
L 270.647765 7.2 
z
" clip-path="url(#p6762ff6acf)" style="fill: #e2efe6; opacity: 0.75"/>
   </g>
   <g id="matplotlib.axis_1">
    <g id="xtick_1">
     <g id="line2d_1">
      <defs>
       <path id="m418045b9de" d="M 0 0 
L 0 3.5 
" style="stroke: #1e252b; stroke-width: 0.8"/>
      </defs>
      <g>
       <use xlink:href="#m418045b9de" x="87.174081" y="297.084358" style="fill: #1e252b; stroke: #1e252b; stroke-width: 0.8"/>
      </g>
     </g>
    </g>
    <g id="xtick_2">
     <g id="line2d_2">
      <g>
       <use xlink:href="#m418045b9de" x="145.88566" y="297.084358" style="fill: #1e252b; stroke: #1e252b; stroke-width: 0.8"/>
      </g>
     </g>
    </g>
    <g id="xtick_3">
     <g id="line2d_3">
      <g>
       <use xlink:href="#m418045b9de" x="219.275133" y="297.084358" style="fill: #1e252b; stroke: #1e252b; stroke-width: 0.8"/>
      </g>
     </g>
    </g>
    <g id="xtick_4">
     <g id="line2d_4">
      <g>
       <use xlink:href="#m418045b9de" x="277.986712" y="297.084358" style="fill: #1e252b; stroke: #1e252b; stroke-width: 0.8"/>
      </g>
     </g>
    </g>
    <g id="xtick_5">
     <g id="line2d_5">
      <g>
       <use xlink:href="#m418045b9de" x="366.054081" y="297.084358" style="fill: #1e252b; stroke: #1e252b; stroke-width: 0.8"/>
      </g>
     </g>
    </g>
    <g id="xtick_6">
     <g id="line2d_6">
      <g>
       <use xlink:href="#m418045b9de" x="439.443554" y="297.084358" style="fill: #1e252b; stroke: #1e252b; stroke-width: 0.8"/>
      </g>
     </g>
    </g>
    <g id="xtick_7">
     <g id="line2d_7">
      <g>
       <use xlink:href="#m418045b9de" x="512.833028" y="297.084358" style="fill: #1e252b; stroke: #1e252b; stroke-width: 0.8"/>
      </g>
     </g>
    </g>
    <g id="xtick_8">
     <g id="line2d_8">
      <g>
       <use xlink:href="#m418045b9de" x="571.544607" y="297.084358" style="fill: #1e252b; stroke: #1e252b; stroke-width: 0.8"/>
      </g>
     </g>
    </g>
   </g>
   <g id="matplotlib.axis_2">
    <g id="ytick_1">
     <g id="line2d_9">
      <defs>
       <path id="med2777cf27" d="M 0 0 
L -3.5 0 
" style="stroke: #1e252b; stroke-width: 0.8"/>
      </defs>
      <g>
       <use xlink:href="#med2777cf27" x="78.367344" y="297.084358" style="fill: #1e252b; stroke: #1e252b; stroke-width: 0.8"/>
      </g>
     </g>
     <g id="text_1">
      <!-- 0.0 -->
      <g style="fill: #1e252b" transform="translate(41.151406 304.302131) scale(0.19 -0.19)">
       <defs>
        <path id="DejaVuSans-13" d="M 2034 4250 
Q 1547 4250 1301 3770 
Q 1056 3291 1056 2328 
Q 1056 1369 1301 889 
Q 1547 409 2034 409 
Q 2525 409 2770 889 
Q 3016 1369 3016 2328 
Q 3016 3291 2770 3770 
Q 2525 4250 2034 4250 
z
M 2034 4750 
Q 2819 4750 3233 4129 
Q 3647 3509 3647 2328 
Q 3647 1150 3233 529 
Q 2819 -91 2034 -91 
Q 1250 -91 836 529 
Q 422 1150 422 2328 
Q 422 3509 836 4129 
Q 1250 4750 2034 4750 
z
" transform="scale(0.015625)"/>
        <path id="DejaVuSans-11" d="M 684 794 
L 1344 794 
L 1344 0 
L 684 0 
L 684 794 
z
" transform="scale(0.015625)"/>
       </defs>
       <use xlink:href="#DejaVuSans-13"/>
       <use xlink:href="#DejaVuSans-11" transform="translate(63.625 0)"/>
       <use xlink:href="#DejaVuSans-13" transform="translate(95.40625 0)"/>
      </g>
     </g>
    </g>
    <g id="ytick_2">
     <g id="line2d_10">
      <g>
       <use xlink:href="#med2777cf27" x="78.367344" y="246.227453" style="fill: #1e252b; stroke: #1e252b; stroke-width: 0.8"/>
      </g>
     </g>
     <g id="text_2">
      <!-- 0.5 -->
      <g style="fill: #1e252b" transform="translate(41.151406 253.445226) scale(0.19 -0.19)">
       <defs>
        <path id="DejaVuSans-18" d="M 691 4666 
L 3169 4666 
L 3169 4134 
L 1269 4134 
L 1269 2991 
Q 1406 3038 1543 3061 
Q 1681 3084 1819 3084 
Q 2600 3084 3056 2656 
Q 3513 2228 3513 1497 
Q 3513 744 3044 326 
Q 2575 -91 1722 -91 
Q 1428 -91 1123 -41 
Q 819 9 494 109 
L 494 744 
Q 775 591 1075 516 
Q 1375 441 1709 441 
Q 2250 441 2565 725 
Q 2881 1009 2881 1497 
Q 2881 1984 2565 2268 
Q 2250 2553 1709 2553 
Q 1456 2553 1204 2497 
Q 953 2441 691 2322 
L 691 4666 
z
" transform="scale(0.015625)"/>
       </defs>
       <use xlink:href="#DejaVuSans-13"/>
       <use xlink:href="#DejaVuSans-11" transform="translate(63.625 0)"/>
       <use xlink:href="#DejaVuSans-18" transform="translate(95.40625 0)"/>
      </g>
     </g>
    </g>
    <g id="ytick_3">
     <g id="line2d_11">
      <g>
       <use xlink:href="#med2777cf27" x="78.367344" y="195.370548" style="fill: #1e252b; stroke: #1e252b; stroke-width: 0.8"/>
      </g>
     </g>
     <g id="text_3">
      <!-- 1.0 -->
      <g style="fill: #1e252b" transform="translate(41.151406 202.588322) scale(0.19 -0.19)">
       <defs>
        <path id="DejaVuSans-14" d="M 794 531 
L 1825 531 
L 1825 4091 
L 703 3866 
L 703 4441 
L 1819 4666 
L 2450 4666 
L 2450 531 
L 3481 531 
L 3481 0 
L 794 0 
L 794 531 
z
" transform="scale(0.015625)"/>
       </defs>
       <use xlink:href="#DejaVuSans-14"/>
       <use xlink:href="#DejaVuSans-11" transform="translate(63.625 0)"/>
       <use xlink:href="#DejaVuSans-13" transform="translate(95.40625 0)"/>
      </g>
     </g>
    </g>
    <g id="ytick_4">
     <g id="line2d_12">
      <g>
       <use xlink:href="#med2777cf27" x="78.367344" y="144.513643" style="fill: #1e252b; stroke: #1e252b; stroke-width: 0.8"/>
      </g>
     </g>
     <g id="text_4">
      <!-- 1.5 -->
      <g style="fill: #1e252b" transform="translate(41.151406 151.731417) scale(0.19 -0.19)">
       <use xlink:href="#DejaVuSans-14"/>
       <use xlink:href="#DejaVuSans-11" transform="translate(63.625 0)"/>
       <use xlink:href="#DejaVuSans-18" transform="translate(95.40625 0)"/>
      </g>
     </g>
    </g>
    <g id="ytick_5">
     <g id="line2d_13">
      <g>
       <use xlink:href="#med2777cf27" x="78.367344" y="93.656738" style="fill: #1e252b; stroke: #1e252b; stroke-width: 0.8"/>
      </g>
     </g>
     <g id="text_5">
      <!-- 2.0 -->
      <g style="fill: #1e252b" transform="translate(41.151406 100.874512) scale(0.19 -0.19)">
       <defs>
        <path id="DejaVuSans-15" d="M 1228 531 
L 3431 531 
L 3431 0 
L 469 0 
L 469 531 
Q 828 903 1448 1529 
Q 2069 2156 2228 2338 
Q 2531 2678 2651 2914 
Q 2772 3150 2772 3378 
Q 2772 3750 2511 3984 
Q 2250 4219 1831 4219 
Q 1534 4219 1204 4116 
Q 875 4013 500 3803 
L 500 4441 
Q 881 4594 1212 4672 
Q 1544 4750 1819 4750 
Q 2544 4750 2975 4387 
Q 3406 4025 3406 3419 
Q 3406 3131 3298 2873 
Q 3191 2616 2906 2266 
Q 2828 2175 2409 1742 
Q 1991 1309 1228 531 
z
" transform="scale(0.015625)"/>
       </defs>
       <use xlink:href="#DejaVuSans-15"/>
       <use xlink:href="#DejaVuSans-11" transform="translate(63.625 0)"/>
       <use xlink:href="#DejaVuSans-13" transform="translate(95.40625 0)"/>
      </g>
     </g>
    </g>
    <g id="ytick_6">
     <g id="line2d_14">
      <g>
       <use xlink:href="#med2777cf27" x="78.367344" y="42.799833" style="fill: #1e252b; stroke: #1e252b; stroke-width: 0.8"/>
      </g>
     </g>
     <g id="text_6">
      <!-- 2.5 -->
      <g style="fill: #1e252b" transform="translate(41.151406 50.017607) scale(0.19 -0.19)">
       <use xlink:href="#DejaVuSans-15"/>
       <use xlink:href="#DejaVuSans-11" transform="translate(63.625 0)"/>
       <use xlink:href="#DejaVuSans-18" transform="translate(95.40625 0)"/>
      </g>
     </g>
    </g>
    <g id="text_7">
     <!-- AlN 0002 ω-FWHM (°) -->
     <g style="fill: #1e252b" transform="translate(31.626016 277.096866) rotate(-90) scale(0.23 -0.23)">
      <defs>
       <path id="DejaVuSans-24" d="M 2188 4044 
L 1331 1722 
L 3047 1722 
L 2188 4044 
z
M 1831 4666 
L 2547 4666 
L 4325 0 
L 3669 0 
L 3244 1197 
L 1141 1197 
L 716 0 
L 50 0 
L 1831 4666 
z
" transform="scale(0.015625)"/>
       <path id="DejaVuSans-4f" d="M 603 4863 
L 1178 4863 
L 1178 0 
L 603 0 
L 603 4863 
z
" transform="scale(0.015625)"/>
       <path id="DejaVuSans-31" d="M 628 4666 
L 1478 4666 
L 3547 763 
L 3547 4666 
L 4159 4666 
L 4159 0 
L 3309 0 
L 1241 3903 
L 1241 0 
L 628 0 
L 628 4666 
z
" transform="scale(0.015625)"/>
       <path id="DejaVuSans-3" transform="scale(0.015625)"/>
       <path id="DejaVuSans-35d" d="M 1719 -91 
Q 422 -91 422 1766 
Q 422 2500 906 3500 
L 1525 3500 
Q 1078 2500 1078 1750 
Q 1078 397 1772 397 
Q 2406 397 2406 2078 
L 2938 2078 
Q 2938 397 3572 397 
Q 4266 397 4266 1750 
Q 4266 2500 3819 3500 
L 4438 3500 
Q 4922 2500 4922 1766 
Q 4922 -91 3625 -91 
Q 2775 -91 2672 844 
Q 2544 -91 1719 -91 
z
" transform="scale(0.015625)"/>
       <path id="DejaVuSans-10" d="M 313 2009 
L 1997 2009 
L 1997 1497 
L 313 1497 
L 313 2009 
z
" transform="scale(0.015625)"/>
       <path id="DejaVuSans-29" d="M 628 4666 
L 3309 4666 
L 3309 4134 
L 1259 4134 
L 1259 2759 
L 3109 2759 
L 3109 2228 
L 1259 2228 
L 1259 0 
L 628 0 
L 628 4666 
z
" transform="scale(0.015625)"/>
       <path id="DejaVuSans-3a" d="M 213 4666 
L 850 4666 
L 1831 722 
L 2809 4666 
L 3519 4666 
L 4500 722 
L 5478 4666 
L 6119 4666 
L 4947 0 
L 4153 0 
L 3169 4050 
L 2175 0 
L 1381 0 
L 213 4666 
z
" transform="scale(0.015625)"/>
       <path id="DejaVuSans-2b" d="M 628 4666 
L 1259 4666 
L 1259 2753 
L 3553 2753 
L 3553 4666 
L 4184 4666 
L 4184 0 
L 3553 0 
L 3553 2222 
L 1259 2222 
L 1259 0 
L 628 0 
L 628 4666 
z
" transform="scale(0.015625)"/>
       <path id="DejaVuSans-30" d="M 628 4666 
L 1569 4666 
L 2759 1491 
L 3956 4666 
L 4897 4666 
L 4897 0 
L 4281 0 
L 4281 4097 
L 3078 897 
L 2444 897 
L 1241 4097 
L 1241 0 
L 628 0 
L 628 4666 
z
" transform="scale(0.015625)"/>
       <path id="DejaVuSans-b" d="M 1984 4856 
Q 1566 4138 1362 3434 
Q 1159 2731 1159 2009 
Q 1159 1288 1364 580 
Q 1569 -128 1984 -844 
L 1484 -844 
Q 1016 -109 783 600 
Q 550 1309 550 2009 
Q 550 2706 781 3412 
Q 1013 4119 1484 4856 
L 1984 4856 
z
" transform="scale(0.015625)"/>
       <path id="DejaVuSans-72" d="M 1600 4347 
Q 1350 4347 1178 4173 
Q 1006 4000 1006 3750 
Q 1006 3503 1178 3333 
Q 1350 3163 1600 3163 
Q 1850 3163 2022 3333 
Q 2194 3503 2194 3750 
Q 2194 3997 2020 4172 
Q 1847 4347 1600 4347 
z
M 1600 4750 
Q 1800 4750 1984 4673 
Q 2169 4597 2303 4453 
Q 2447 4313 2519 4134 
Q 2591 3956 2591 3750 
Q 2591 3338 2302 3052 
Q 2013 2766 1594 2766 
Q 1172 2766 890 3047 
Q 609 3328 609 3750 
Q 609 4169 896 4459 
Q 1184 4750 1600 4750 
z
" transform="scale(0.015625)"/>
       <path id="DejaVuSans-c" d="M 513 4856 
L 1013 4856 
Q 1481 4119 1714 3412 
Q 1947 2706 1947 2009 
Q 1947 1309 1714 600 
Q 1481 -109 1013 -844 
L 513 -844 
Q 928 -128 1133 580 
Q 1338 1288 1338 2009 
Q 1338 2731 1133 3434 
Q 928 4138 513 4856 
z
" transform="scale(0.015625)"/>
      </defs>
      <use xlink:href="#DejaVuSans-24"/>
      <use xlink:href="#DejaVuSans-4f" transform="translate(68.40625 0)"/>
      <use xlink:href="#DejaVuSans-31" transform="translate(96.1875 0)"/>
      <use xlink:href="#DejaVuSans-3" transform="translate(171 0)"/>
      <use xlink:href="#DejaVuSans-13" transform="translate(202.78125 0)"/>
      <use xlink:href="#DejaVuSans-13" transform="translate(266.40625 0)"/>
      <use xlink:href="#DejaVuSans-13" transform="translate(330.03125 0)"/>
      <use xlink:href="#DejaVuSans-15" transform="translate(393.65625 0)"/>
      <use xlink:href="#DejaVuSans-3" transform="translate(457.28125 0)"/>
      <use xlink:href="#DejaVuSans-35d" transform="translate(489.0625 0)"/>
      <use xlink:href="#DejaVuSans-10" transform="translate(572.796875 0)"/>
      <use xlink:href="#DejaVuSans-29" transform="translate(608.875 0)"/>
      <use xlink:href="#DejaVuSans-3a" transform="translate(666.390625 0)"/>
      <use xlink:href="#DejaVuSans-2b" transform="translate(765.265625 0)"/>
      <use xlink:href="#DejaVuSans-30" transform="translate(840.46875 0)"/>
      <use xlink:href="#DejaVuSans-3" transform="translate(926.75 0)"/>
      <use xlink:href="#DejaVuSans-b" transform="translate(958.53125 0)"/>
      <use xlink:href="#DejaVuSans-72" transform="translate(997.546875 0)"/>
      <use xlink:href="#DejaVuSans-c" transform="translate(1047.546875 0)"/>
     </g>
    </g>
   </g>
   <g id="line2d_15">
    <path d="M 270.647765 297.084358 
L 270.647765 7.2 
" clip-path="url(#p6762ff6acf)" style="fill: none; stroke-dasharray: 9,5.4; stroke-dashoffset: 0; stroke: #1e252b; stroke-width: 1.8"/>
   </g>
   <g id="patch_5">
    <path d="M 78.367344 297.084358 
L 78.367344 7.2 
" style="fill: none; stroke: #5b6770; stroke-width: 1.6; stroke-linejoin: miter; stroke-linecap: square"/>
   </g>
   <g id="patch_6">
    <path d="M 78.367344 297.084358 
L 580.351344 297.084358 
" style="fill: none; stroke: #5b6770; stroke-width: 1.6; stroke-linejoin: miter; stroke-linecap: square"/>
   </g>
   <g id="text_8">
    <!-- (a) -->
    <g transform="translate(88.407024 26.813687) scale(0.22 -0.22)">
     <defs>
      <path id="DejaVuSans-Bold-b" d="M 2413 -844 
L 1484 -844 
Q 1006 -72 778 623 
Q 550 1319 550 2003 
Q 550 2688 779 3389 
Q 1009 4091 1484 4856 
L 2413 4856 
Q 2013 4116 1813 3408 
Q 1613 2700 1613 2009 
Q 1613 1319 1811 609 
Q 2009 -100 2413 -844 
z
" transform="scale(0.015625)"/>
      <path id="DejaVuSans-Bold-44" d="M 2106 1575 
Q 1756 1575 1579 1456 
Q 1403 1338 1403 1106 
Q 1403 894 1545 773 
Q 1688 653 1941 653 
Q 2256 653 2472 879 
Q 2688 1106 2688 1447 
L 2688 1575 
L 2106 1575 
z
M 3816 1997 
L 3816 0 
L 2688 0 
L 2688 519 
Q 2463 200 2181 54 
Q 1900 -91 1497 -91 
Q 953 -91 614 226 
Q 275 544 275 1050 
Q 275 1666 698 1953 
Q 1122 2241 2028 2241 
L 2688 2241 
L 2688 2328 
Q 2688 2594 2478 2717 
Q 2269 2841 1825 2841 
Q 1466 2841 1156 2769 
Q 847 2697 581 2553 
L 581 3406 
Q 941 3494 1303 3539 
Q 1666 3584 2028 3584 
Q 2975 3584 3395 3211 
Q 3816 2838 3816 1997 
z
" transform="scale(0.015625)"/>
      <path id="DejaVuSans-Bold-c" d="M 513 -844 
Q 913 -100 1113 609 
Q 1313 1319 1313 2009 
Q 1313 2700 1113 3408 
Q 913 4116 513 4856 
L 1441 4856 
Q 1916 4091 2145 3389 
Q 2375 2688 2375 2003 
Q 2375 1319 2147 623 
Q 1919 -72 1441 -844 
L 513 -844 
z
" transform="scale(0.015625)"/>
     </defs>
     <use xlink:href="#DejaVuSans-Bold-b"/>
     <use xlink:href="#DejaVuSans-Bold-44" transform="translate(45.703125 0)"/>
     <use xlink:href="#DejaVuSans-Bold-c" transform="translate(113.1875 0)"/>
    </g>
   </g>
   <g id="patch_7">
    <path d="M 519.230935 202.534545 
Q 509.486721 195.095691 501.075518 188.674474 
" style="fill: none; stroke: #9c6716; stroke-width: 1.5; stroke-linecap: round"/>
    <path d="M 504.61398 195.904915 
L 501.075518 188.674474 
L 508.982948 190.181969 
" style="fill: none; stroke: #9c6716; stroke-width: 1.5; stroke-linecap: round"/>
   </g>
   <g id="text_9">
    <!-- best: -->
    <g style="fill: #9c6716" transform="translate(523.724484 219.538247) scale(0.18 -0.18)">
     <defs>
      <path id="DejaVuSans-Bold-45" d="M 2400 722 
Q 2759 722 2948 984 
Q 3138 1247 3138 1747 
Q 3138 2247 2948 2509 
Q 2759 2772 2400 2772 
Q 2041 2772 1848 2508 
Q 1656 2244 1656 1747 
Q 1656 1250 1848 986 
Q 2041 722 2400 722 
z
M 1656 2988 
Q 1888 3294 2169 3439 
Q 2450 3584 2816 3584 
Q 3463 3584 3878 3070 
Q 4294 2556 4294 1747 
Q 4294 938 3878 423 
Q 3463 -91 2816 -91 
Q 2450 -91 2169 54 
Q 1888 200 1656 506 
L 1656 0 
L 538 0 
L 538 4863 
L 1656 4863 
L 1656 2988 
z
" transform="scale(0.015625)"/>
      <path id="DejaVuSans-Bold-48" d="M 4031 1759 
L 4031 1441 
L 1416 1441 
Q 1456 1047 1700 850 
Q 1944 653 2381 653 
Q 2734 653 3104 758 
Q 3475 863 3866 1075 
L 3866 213 
Q 3469 63 3072 -14 
Q 2675 -91 2278 -91 
Q 1328 -91 801 392 
Q 275 875 275 1747 
Q 275 2603 792 3093 
Q 1309 3584 2216 3584 
Q 3041 3584 3536 3087 
Q 4031 2591 4031 1759 
z
M 2881 2131 
Q 2881 2450 2695 2645 
Q 2509 2841 2209 2841 
Q 1884 2841 1681 2658 
Q 1478 2475 1428 2131 
L 2881 2131 
z
" transform="scale(0.015625)"/>
      <path id="DejaVuSans-Bold-56" d="M 3272 3391 
L 3272 2541 
Q 2913 2691 2578 2766 
Q 2244 2841 1947 2841 
Q 1628 2841 1473 2761 
Q 1319 2681 1319 2516 
Q 1319 2381 1436 2309 
Q 1553 2238 1856 2203 
L 2053 2175 
Q 2913 2066 3209 1816 
Q 3506 1566 3506 1031 
Q 3506 472 3093 190 
Q 2681 -91 1863 -91 
Q 1516 -91 1145 -36 
Q 775 19 384 128 
L 384 978 
Q 719 816 1070 734 
Q 1422 653 1784 653 
Q 2113 653 2278 743 
Q 2444 834 2444 1013 
Q 2444 1163 2330 1236 
Q 2216 1309 1875 1350 
L 1678 1375 
Q 931 1469 631 1722 
Q 331 1975 331 2491 
Q 331 3047 712 3315 
Q 1094 3584 1881 3584 
Q 2191 3584 2531 3537 
Q 2872 3491 3272 3391 
z
" transform="scale(0.015625)"/>
      <path id="DejaVuSans-Bold-57" d="M 1759 4494 
L 1759 3500 
L 2913 3500 
L 2913 2700 
L 1759 2700 
L 1759 1216 
Q 1759 972 1856 886 
Q 1953 800 2241 800 
L 2816 800 
L 2816 0 
L 1856 0 
Q 1194 0 917 276 
Q 641 553 641 1216 
L 641 2700 
L 84 2700 
L 84 3500 
L 641 3500 
L 641 4494 
L 1759 4494 
z
" transform="scale(0.015625)"/>
      <path id="DejaVuSans-Bold-1d" d="M 716 3500 
L 1844 3500 
L 1844 2291 
L 716 2291 
L 716 3500 
z
M 716 1209 
L 1844 1209 
L 1844 0 
L 716 0 
L 716 1209 
z
" transform="scale(0.015625)"/>
     </defs>
     <use xlink:href="#DejaVuSans-Bold-45"/>
     <use xlink:href="#DejaVuSans-Bold-48" transform="translate(71.578125 0)"/>
     <use xlink:href="#DejaVuSans-Bold-56" transform="translate(139.40625 0)"/>
     <use xlink:href="#DejaVuSans-Bold-57" transform="translate(198.921875 0)"/>
     <use xlink:href="#DejaVuSans-Bold-1d" transform="translate(246.71875 0)"/>
    </g>
    <!-- 1.09° -->
    <g style="fill: #9c6716" transform="translate(522.823077 241.141763) scale(0.18 -0.18)">
     <defs>
      <path id="DejaVuSans-Bold-14" d="M 750 831 
L 1813 831 
L 1813 3847 
L 722 3622 
L 722 4441 
L 1806 4666 
L 2950 4666 
L 2950 831 
L 4013 831 
L 4013 0 
L 750 0 
L 750 831 
z
" transform="scale(0.015625)"/>
      <path id="DejaVuSans-Bold-11" d="M 653 1209 
L 1778 1209 
L 1778 0 
L 653 0 
L 653 1209 
z
" transform="scale(0.015625)"/>
      <path id="DejaVuSans-Bold-13" d="M 2944 2338 
Q 2944 3213 2780 3570 
Q 2616 3928 2228 3928 
Q 1841 3928 1675 3570 
Q 1509 3213 1509 2338 
Q 1509 1453 1675 1090 
Q 1841 728 2228 728 
Q 2613 728 2778 1090 
Q 2944 1453 2944 2338 
z
M 4147 2328 
Q 4147 1169 3647 539 
Q 3147 -91 2228 -91 
Q 1306 -91 806 539 
Q 306 1169 306 2328 
Q 306 3491 806 4120 
Q 1306 4750 2228 4750 
Q 3147 4750 3647 4120 
Q 4147 3491 4147 2328 
z
" transform="scale(0.015625)"/>
      <path id="DejaVuSans-Bold-1c" d="M 641 103 
L 641 966 
Q 928 831 1190 764 
Q 1453 697 1709 697 
Q 2247 697 2547 995 
Q 2847 1294 2900 1881 
Q 2688 1725 2447 1647 
Q 2206 1569 1925 1569 
Q 1209 1569 770 1986 
Q 331 2403 331 3084 
Q 331 3838 820 4291 
Q 1309 4744 2131 4744 
Q 3044 4744 3544 4128 
Q 4044 3513 4044 2388 
Q 4044 1231 3459 570 
Q 2875 -91 1856 -91 
Q 1528 -91 1228 -42 
Q 928 6 641 103 
z
M 2125 2350 
Q 2441 2350 2600 2554 
Q 2759 2759 2759 3169 
Q 2759 3575 2600 3781 
Q 2441 3988 2125 3988 
Q 1809 3988 1650 3781 
Q 1491 3575 1491 3169 
Q 1491 2759 1650 2554 
Q 1809 2350 2125 2350 
z
" transform="scale(0.015625)"/>
      <path id="DejaVuSans-Bold-72" d="M 1600 4288 
Q 1375 4288 1219 4131 
Q 1063 3975 1063 3750 
Q 1063 3525 1217 3372 
Q 1372 3219 1600 3219 
Q 1825 3219 1981 3373 
Q 2138 3528 2138 3750 
Q 2138 3975 1980 4131 
Q 1822 4288 1600 4288 
z
M 1600 4794 
Q 1806 4794 1997 4714 
Q 2188 4634 2338 4488 
Q 2484 4338 2561 4150 
Q 2638 3963 2638 3750 
Q 2638 3541 2561 3352 
Q 2484 3163 2344 3022 
Q 2194 2872 2000 2792 
Q 1806 2713 1594 2713 
Q 1153 2713 854 3011 
Q 556 3309 556 3750 
Q 556 4191 857 4492 
Q 1159 4794 1600 4794 
z
" transform="scale(0.015625)"/>
     </defs>
     <use xlink:href="#DejaVuSans-Bold-14"/>
     <use xlink:href="#DejaVuSans-Bold-11" transform="translate(69.578125 0)"/>
     <use xlink:href="#DejaVuSans-Bold-13" transform="translate(107.5625 0)"/>
     <use xlink:href="#DejaVuSans-Bold-1c" transform="translate(177.140625 0)"/>
     <use xlink:href="#DejaVuSans-Bold-72" transform="translate(246.71875 0)"/>
    </g>
   </g>
   <g id="text_10">
    <!-- Ar-line air leak -->
    <g style="fill: #d55e00" transform="translate(108.635199 257.534721) scale(0.16 -0.16)">
     <defs>
      <path id="DejaVuSans-Bold-24" d="M 3419 850 
L 1538 850 
L 1241 0 
L 31 0 
L 1759 4666 
L 3194 4666 
L 4922 0 
L 3713 0 
L 3419 850 
z
M 1838 1716 
L 3116 1716 
L 2478 3572 
L 1838 1716 
z
" transform="scale(0.015625)"/>
      <path id="DejaVuSans-Bold-55" d="M 3138 2547 
Q 2991 2616 2845 2648 
Q 2700 2681 2553 2681 
Q 2122 2681 1889 2404 
Q 1656 2128 1656 1613 
L 1656 0 
L 538 0 
L 538 3500 
L 1656 3500 
L 1656 2925 
Q 1872 3269 2151 3426 
Q 2431 3584 2822 3584 
Q 2878 3584 2943 3579 
Q 3009 3575 3134 3559 
L 3138 2547 
z
" transform="scale(0.015625)"/>
      <path id="DejaVuSans-Bold-10" d="M 347 2297 
L 2309 2297 
L 2309 1388 
L 347 1388 
L 347 2297 
z
" transform="scale(0.015625)"/>
      <path id="DejaVuSans-Bold-4f" d="M 538 4863 
L 1656 4863 
L 1656 0 
L 538 0 
L 538 4863 
z
" transform="scale(0.015625)"/>
      <path id="DejaVuSans-Bold-4c" d="M 538 3500 
L 1656 3500 
L 1656 0 
L 538 0 
L 538 3500 
z
M 538 4863 
L 1656 4863 
L 1656 3950 
L 538 3950 
L 538 4863 
z
" transform="scale(0.015625)"/>
      <path id="DejaVuSans-Bold-51" d="M 4056 2131 
L 4056 0 
L 2931 0 
L 2931 347 
L 2931 1631 
Q 2931 2084 2911 2256 
Q 2891 2428 2841 2509 
Q 2775 2619 2662 2680 
Q 2550 2741 2406 2741 
Q 2056 2741 1856 2470 
Q 1656 2200 1656 1722 
L 1656 0 
L 538 0 
L 538 3500 
L 1656 3500 
L 1656 2988 
Q 1909 3294 2193 3439 
Q 2478 3584 2822 3584 
Q 3428 3584 3742 3212 
Q 4056 2841 4056 2131 
z
" transform="scale(0.015625)"/>
      <path id="DejaVuSans-Bold-3" transform="scale(0.015625)"/>
      <path id="DejaVuSans-Bold-4e" d="M 538 4863 
L 1656 4863 
L 1656 2216 
L 2944 3500 
L 4244 3500 
L 2534 1894 
L 4378 0 
L 3022 0 
L 1656 1459 
L 1656 0 
L 538 0 
L 538 4863 
z
" transform="scale(0.015625)"/>
     </defs>
     <use xlink:href="#DejaVuSans-Bold-24"/>
     <use xlink:href="#DejaVuSans-Bold-55" transform="translate(77.390625 0)"/>
     <use xlink:href="#DejaVuSans-Bold-10" transform="translate(126.703125 0)"/>
     <use xlink:href="#DejaVuSans-Bold-4f" transform="translate(168.203125 0)"/>
     <use xlink:href="#DejaVuSans-Bold-4c" transform="translate(202.484375 0)"/>
     <use xlink:href="#DejaVuSans-Bold-51" transform="translate(236.765625 0)"/>
     <use xlink:href="#DejaVuSans-Bold-48" transform="translate(307.953125 0)"/>
     <use xlink:href="#DejaVuSans-Bold-3" transform="translate(375.78125 0)"/>
     <use xlink:href="#DejaVuSans-Bold-44" transform="translate(410.59375 0)"/>
     <use xlink:href="#DejaVuSans-Bold-4c" transform="translate(478.078125 0)"/>
     <use xlink:href="#DejaVuSans-Bold-55" transform="translate(512.359375 0)"/>
     <use xlink:href="#DejaVuSans-Bold-3" transform="translate(561.671875 0)"/>
     <use xlink:href="#DejaVuSans-Bold-4f" transform="translate(596.484375 0)"/>
     <use xlink:href="#DejaVuSans-Bold-48" transform="translate(630.765625 0)"/>
     <use xlink:href="#DejaVuSans-Bold-44" transform="translate(698.59375 0)"/>
     <use xlink:href="#DejaVuSans-Bold-4e" transform="translate(766.078125 0)"/>
    </g>
    <!-- (trace O$_2$) -->
    <g style="fill: #d55e00" transform="translate(131.081449 276.741596) scale(0.16 -0.16)">
     <defs>
      <path id="DejaVuSans-Bold-46" d="M 3366 3391 
L 3366 2478 
Q 3138 2634 2908 2709 
Q 2678 2784 2431 2784 
Q 1963 2784 1702 2511 
Q 1441 2238 1441 1747 
Q 1441 1256 1702 982 
Q 1963 709 2431 709 
Q 2694 709 2930 787 
Q 3166 866 3366 1019 
L 3366 103 
Q 3103 6 2833 -42 
Q 2563 -91 2291 -91 
Q 1344 -91 809 395 
Q 275 881 275 1747 
Q 275 2613 809 3098 
Q 1344 3584 2291 3584 
Q 2566 3584 2833 3536 
Q 3100 3488 3366 3391 
z
" transform="scale(0.015625)"/>
      <path id="DejaVuSans-Bold-32" d="M 2719 3878 
Q 2169 3878 1866 3472 
Q 1563 3066 1563 2328 
Q 1563 1594 1866 1187 
Q 2169 781 2719 781 
Q 3272 781 3575 1187 
Q 3878 1594 3878 2328 
Q 3878 3066 3575 3472 
Q 3272 3878 2719 3878 
z
M 2719 4750 
Q 3844 4750 4481 4106 
Q 5119 3463 5119 2328 
Q 5119 1197 4481 553 
Q 3844 -91 2719 -91 
Q 1597 -91 958 553 
Q 319 1197 319 2328 
Q 319 3463 958 4106 
Q 1597 4750 2719 4750 
z
" transform="scale(0.015625)"/>
     </defs>
     <use xlink:href="#DejaVuSans-Bold-b" transform="translate(0 0.125)"/>
     <use xlink:href="#DejaVuSans-Bold-57" transform="translate(45.703125 0.125)"/>
     <use xlink:href="#DejaVuSans-Bold-55" transform="translate(93.505859 0.125)"/>
     <use xlink:href="#DejaVuSans-Bold-44" transform="translate(142.822266 0.125)"/>
     <use xlink:href="#DejaVuSans-Bold-46" transform="translate(210.302734 0.125)"/>
     <use xlink:href="#DejaVuSans-Bold-48" transform="translate(269.580078 0.125)"/>
     <use xlink:href="#DejaVuSans-Bold-3" transform="translate(337.402344 0.125)"/>
     <use xlink:href="#DejaVuSans-Bold-32" transform="translate(372.216797 0.125)"/>
     <use xlink:href="#DejaVuSans-15" transform="translate(458.183594 -14.874951) scale(0.7)"/>
     <use xlink:href="#DejaVuSans-Bold-c" transform="translate(505.454102 0.125)"/>
    </g>
   </g>
   <g id="text_11">
    <!-- leak repaired + -->
    <g style="fill: #00542b" transform="translate(359.611753 258.737494) scale(0.15 -0.15)">
     <defs>
      <path id="DejaVuSans-Bold-53" d="M 1656 506 
L 1656 -1331 
L 538 -1331 
L 538 3500 
L 1656 3500 
L 1656 2988 
Q 1888 3294 2169 3439 
Q 2450 3584 2816 3584 
Q 3463 3584 3878 3070 
Q 4294 2556 4294 1747 
Q 4294 938 3878 423 
Q 3463 -91 2816 -91 
Q 2450 -91 2169 54 
Q 1888 200 1656 506 
z
M 2400 2772 
Q 2041 2772 1848 2508 
Q 1656 2244 1656 1747 
Q 1656 1250 1848 986 
Q 2041 722 2400 722 
Q 2759 722 2948 984 
Q 3138 1247 3138 1747 
Q 3138 2247 2948 2509 
Q 2759 2772 2400 2772 
z
" transform="scale(0.015625)"/>
      <path id="DejaVuSans-Bold-47" d="M 2919 2988 
L 2919 4863 
L 4044 4863 
L 4044 0 
L 2919 0 
L 2919 506 
Q 2688 197 2409 53 
Q 2131 -91 1766 -91 
Q 1119 -91 703 423 
Q 288 938 288 1747 
Q 288 2556 703 3070 
Q 1119 3584 1766 3584 
Q 2128 3584 2408 3439 
Q 2688 3294 2919 2988 
z
M 2181 722 
Q 2541 722 2730 984 
Q 2919 1247 2919 1747 
Q 2919 2247 2730 2509 
Q 2541 2772 2181 2772 
Q 1825 2772 1636 2509 
Q 1447 2247 1447 1747 
Q 1447 1247 1636 984 
Q 1825 722 2181 722 
z
" transform="scale(0.015625)"/>
      <path id="DejaVuSans-Bold-e" d="M 3053 4013 
L 3053 2375 
L 4684 2375 
L 4684 1638 
L 3053 1638 
L 3053 0 
L 2309 0 
L 2309 1638 
L 678 1638 
L 678 2375 
L 2309 2375 
L 2309 4013 
L 3053 4013 
z
" transform="scale(0.015625)"/>
     </defs>
     <use xlink:href="#DejaVuSans-Bold-4f"/>
     <use xlink:href="#DejaVuSans-Bold-48" transform="translate(34.28125 0)"/>
     <use xlink:href="#DejaVuSans-Bold-44" transform="translate(102.109375 0)"/>
     <use xlink:href="#DejaVuSans-Bold-4e" transform="translate(169.59375 0)"/>
     <use xlink:href="#DejaVuSans-Bold-3" transform="translate(236.09375 0)"/>
     <use xlink:href="#DejaVuSans-Bold-55" transform="translate(270.90625 0)"/>
     <use xlink:href="#DejaVuSans-Bold-48" transform="translate(320.21875 0)"/>
     <use xlink:href="#DejaVuSans-Bold-53" transform="translate(388.046875 0)"/>
     <use xlink:href="#DejaVuSans-Bold-44" transform="translate(459.625 0)"/>
     <use xlink:href="#DejaVuSans-Bold-4c" transform="translate(527.109375 0)"/>
     <use xlink:href="#DejaVuSans-Bold-55" transform="translate(561.390625 0)"/>
     <use xlink:href="#DejaVuSans-Bold-48" transform="translate(610.703125 0)"/>
     <use xlink:href="#DejaVuSans-Bold-47" transform="translate(678.53125 0)"/>
     <use xlink:href="#DejaVuSans-Bold-3" transform="translate(750.109375 0)"/>
     <use xlink:href="#DejaVuSans-Bold-e" transform="translate(784.921875 0)"/>
    </g>
    <!-- oxynitride template -->
    <g style="fill: #00542b" transform="translate(340.895738 276.741596) scale(0.15 -0.15)">
     <defs>
      <path id="DejaVuSans-Bold-52" d="M 2203 2784 
Q 1831 2784 1636 2517 
Q 1441 2250 1441 1747 
Q 1441 1244 1636 976 
Q 1831 709 2203 709 
Q 2569 709 2762 976 
Q 2956 1244 2956 1747 
Q 2956 2250 2762 2517 
Q 2569 2784 2203 2784 
z
M 2203 3584 
Q 3106 3584 3614 3096 
Q 4122 2609 4122 1747 
Q 4122 884 3614 396 
Q 3106 -91 2203 -91 
Q 1297 -91 786 396 
Q 275 884 275 1747 
Q 275 2609 786 3096 
Q 1297 3584 2203 3584 
z
" transform="scale(0.015625)"/>
      <path id="DejaVuSans-Bold-5b" d="M 1422 1791 
L 159 3500 
L 1344 3500 
L 2059 2463 
L 2784 3500 
L 3969 3500 
L 2706 1797 
L 4031 0 
L 2847 0 
L 2059 1106 
L 1281 0 
L 97 0 
L 1422 1791 
z
" transform="scale(0.015625)"/>
      <path id="DejaVuSans-Bold-5c" d="M 78 3500 
L 1197 3500 
L 2138 1125 
L 2938 3500 
L 4056 3500 
L 2584 -331 
Q 2363 -916 2067 -1148 
Q 1772 -1381 1288 -1381 
L 641 -1381 
L 641 -647 
L 991 -647 
Q 1275 -647 1404 -556 
Q 1534 -466 1606 -231 
L 1638 -134 
L 78 3500 
z
" transform="scale(0.015625)"/>
      <path id="DejaVuSans-Bold-50" d="M 3781 2919 
Q 3994 3244 4286 3414 
Q 4578 3584 4928 3584 
Q 5531 3584 5847 3212 
Q 6163 2841 6163 2131 
L 6163 0 
L 5038 0 
L 5038 1825 
Q 5041 1866 5042 1909 
Q 5044 1953 5044 2034 
Q 5044 2406 4934 2573 
Q 4825 2741 4581 2741 
Q 4263 2741 4089 2478 
Q 3916 2216 3909 1719 
L 3909 0 
L 2784 0 
L 2784 1825 
Q 2784 2406 2684 2573 
Q 2584 2741 2328 2741 
Q 2006 2741 1831 2477 
Q 1656 2213 1656 1722 
L 1656 0 
L 531 0 
L 531 3500 
L 1656 3500 
L 1656 2988 
Q 1863 3284 2130 3434 
Q 2397 3584 2719 3584 
Q 3081 3584 3359 3409 
Q 3638 3234 3781 2919 
z
" transform="scale(0.015625)"/>
     </defs>
     <use xlink:href="#DejaVuSans-Bold-52"/>
     <use xlink:href="#DejaVuSans-Bold-5b" transform="translate(68.703125 0)"/>
     <use xlink:href="#DejaVuSans-Bold-5c" transform="translate(133.203125 0)"/>
     <use xlink:href="#DejaVuSans-Bold-51" transform="translate(198.390625 0)"/>
     <use xlink:href="#DejaVuSans-Bold-4c" transform="translate(269.578125 0)"/>
     <use xlink:href="#DejaVuSans-Bold-57" transform="translate(303.859375 0)"/>
     <use xlink:href="#DejaVuSans-Bold-55" transform="translate(351.65625 0)"/>
     <use xlink:href="#DejaVuSans-Bold-4c" transform="translate(400.96875 0)"/>
     <use xlink:href="#DejaVuSans-Bold-47" transform="translate(435.25 0)"/>
     <use xlink:href="#DejaVuSans-Bold-48" transform="translate(506.828125 0)"/>
     <use xlink:href="#DejaVuSans-Bold-3" transform="translate(574.65625 0)"/>
     <use xlink:href="#DejaVuSans-Bold-57" transform="translate(609.46875 0)"/>
     <use xlink:href="#DejaVuSans-Bold-48" transform="translate(657.265625 0)"/>
     <use xlink:href="#DejaVuSans-Bold-50" transform="translate(725.09375 0)"/>
     <use xlink:href="#DejaVuSans-Bold-53" transform="translate(829.296875 0)"/>
     <use xlink:href="#DejaVuSans-Bold-4f" transform="translate(900.875 0)"/>
     <use xlink:href="#DejaVuSans-Bold-44" transform="translate(935.15625 0)"/>
     <use xlink:href="#DejaVuSans-Bold-57" transform="translate(1002.640625 0)"/>
     <use xlink:href="#DejaVuSans-Bold-48" transform="translate(1050.4375 0)"/>
    </g>
   </g>
   <g id="PathCollection_1">
    <defs>
     <path id="m196dffcd2a" d="M -6.123724 6.123724 
L 6.123724 -6.123724 
M -6.123724 -6.123724 
L 6.123724 6.123724 
" style="stroke: #d89a8a; stroke-width: 3"/>
    </defs>
    <g clip-path="url(#p6762ff6acf)">
     <use xlink:href="#m196dffcd2a" x="145.88566" y="42.799833" style="fill: #d89a8a; stroke: #d89a8a; stroke-width: 3"/>
     <use xlink:href="#m196dffcd2a" x="189.919344" y="42.799833" style="fill: #d89a8a; stroke: #d89a8a; stroke-width: 3"/>
     <use xlink:href="#m196dffcd2a" x="204.597238" y="42.799833" style="fill: #d89a8a; stroke: #d89a8a; stroke-width: 3"/>
     <use xlink:href="#m196dffcd2a" x="219.275133" y="42.799833" style="fill: #d89a8a; stroke: #d89a8a; stroke-width: 3"/>
     <use xlink:href="#m196dffcd2a" x="233.953028" y="42.799833" style="fill: #d89a8a; stroke: #d89a8a; stroke-width: 3"/>
     <use xlink:href="#m196dffcd2a" x="248.630923" y="42.799833" style="fill: #d89a8a; stroke: #d89a8a; stroke-width: 3"/>
     <use xlink:href="#m196dffcd2a" x="263.308817" y="42.799833" style="fill: #d89a8a; stroke: #d89a8a; stroke-width: 3"/>
    </g>
   </g>
   <g id="PathCollection_2">
    <defs>
     <path id="C0_0_988b0475bb" d="M 0 4.873397 
C 1.29244 4.873397 2.532119 4.359905 3.446012 3.446012 
C 4.359905 2.532119 4.873397 1.29244 4.873397 -0 
C 4.873397 -1.29244 4.359905 -2.532119 3.446012 -3.446012 
C 2.532119 -4.359905 1.29244 -4.873397 0 -4.873397 
C -1.29244 -4.873397 -2.532119 -4.359905 -3.446012 -3.446012 
C -4.359905 -2.532119 -4.873397 -1.29244 -4.873397 0 
C -4.873397 1.29244 -4.359905 2.532119 -3.446012 3.446012 
C -2.532119 4.359905 -1.29244 4.873397 0 4.873397 
z
"/>
    </defs>
    <g clip-path="url(#p6762ff6acf)">
     <use xlink:href="#C0_0_988b0475bb" x="307.342502" y="42.799833" style="fill: none; stroke: #5b6770; stroke-width: 2.2"/>
    </g>
    <g clip-path="url(#p6762ff6acf)">
     <use xlink:href="#C0_0_988b0475bb" x="336.698291" y="42.799833" style="fill: none; stroke: #5b6770; stroke-width: 2.2"/>
    </g>
    <g clip-path="url(#p6762ff6acf)">
     <use xlink:href="#C0_0_988b0475bb" x="351.376186" y="42.799833" style="fill: none; stroke: #5b6770; stroke-width: 2.2"/>
    </g>
    <g clip-path="url(#p6762ff6acf)">
     <use xlink:href="#C0_0_988b0475bb" x="366.054081" y="42.799833" style="fill: none; stroke: #5b6770; stroke-width: 2.2"/>
    </g>
    <g clip-path="url(#p6762ff6acf)">
     <use xlink:href="#C0_0_988b0475bb" x="380.731975" y="42.799833" style="fill: none; stroke: #5b6770; stroke-width: 2.2"/>
    </g>
    <g clip-path="url(#p6762ff6acf)">
     <use xlink:href="#C0_0_988b0475bb" x="410.087765" y="42.799833" style="fill: none; stroke: #5b6770; stroke-width: 2.2"/>
    </g>
    <g clip-path="url(#p6762ff6acf)">
     <use xlink:href="#C0_0_988b0475bb" x="527.510923" y="42.799833" style="fill: none; stroke: #5b6770; stroke-width: 2.2"/>
    </g>
   </g>
   <g id="PathCollection_3">
    <defs>
     <path id="m95eb309454" d="M -6.123724 6.123724 
L 6.123724 -6.123724 
M -6.123724 -6.123724 
L 6.123724 6.123724 
" style="stroke: #d55e00; stroke-width: 3"/>
    </defs>
    <g clip-path="url(#p6762ff6acf)">
     <use xlink:href="#m95eb309454" x="87.174081" y="42.799833" style="fill: #d55e00; stroke: #d55e00; stroke-width: 3"/>
     <use xlink:href="#m95eb309454" x="101.851975" y="42.799833" style="fill: #d55e00; stroke: #d55e00; stroke-width: 3"/>
     <use xlink:href="#m95eb309454" x="116.52987" y="42.799833" style="fill: #d55e00; stroke: #d55e00; stroke-width: 3"/>
     <use xlink:href="#m95eb309454" x="131.207765" y="42.799833" style="fill: #d55e00; stroke: #d55e00; stroke-width: 3"/>
     <use xlink:href="#m95eb309454" x="160.563554" y="42.799833" style="fill: #d55e00; stroke: #d55e00; stroke-width: 3"/>
     <use xlink:href="#m95eb309454" x="175.241449" y="42.799833" style="fill: #d55e00; stroke: #d55e00; stroke-width: 3"/>
    </g>
   </g>
   <g id="legend_1">
    <g id="PathCollection_4">
     <g>
      <use xlink:href="#m95eb309454" x="106.607024" y="105.830776" style="fill: #d55e00; stroke: #d55e00; stroke-width: 3"/>
     </g>
    </g>
    <g id="text_12">
     <!-- no AlN signal -->
     <g transform="translate(122.857024 109.243276) scale(0.13 -0.13)">
      <defs>
       <path id="DejaVuSans-51" d="M 3513 2113 
L 3513 0 
L 2938 0 
L 2938 2094 
Q 2938 2591 2744 2837 
Q 2550 3084 2163 3084 
Q 1697 3084 1428 2787 
Q 1159 2491 1159 1978 
L 1159 0 
L 581 0 
L 581 3500 
L 1159 3500 
L 1159 2956 
Q 1366 3272 1645 3428 
Q 1925 3584 2291 3584 
Q 2894 3584 3203 3211 
Q 3513 2838 3513 2113 
z
" transform="scale(0.015625)"/>
       <path id="DejaVuSans-52" d="M 1959 3097 
Q 1497 3097 1228 2736 
Q 959 2375 959 1747 
Q 959 1119 1226 758 
Q 1494 397 1959 397 
Q 2419 397 2687 759 
Q 2956 1122 2956 1747 
Q 2956 2369 2687 2733 
Q 2419 3097 1959 3097 
z
M 1959 3584 
Q 2709 3584 3137 3096 
Q 3566 2609 3566 1747 
Q 3566 888 3137 398 
Q 2709 -91 1959 -91 
Q 1206 -91 779 398 
Q 353 888 353 1747 
Q 353 2609 779 3096 
Q 1206 3584 1959 3584 
z
" transform="scale(0.015625)"/>
       <path id="DejaVuSans-56" d="M 2834 3397 
L 2834 2853 
Q 2591 2978 2328 3040 
Q 2066 3103 1784 3103 
Q 1356 3103 1142 2972 
Q 928 2841 928 2578 
Q 928 2378 1081 2264 
Q 1234 2150 1697 2047 
L 1894 2003 
Q 2506 1872 2764 1633 
Q 3022 1394 3022 966 
Q 3022 478 2636 193 
Q 2250 -91 1575 -91 
Q 1294 -91 989 -36 
Q 684 19 347 128 
L 347 722 
Q 666 556 975 473 
Q 1284 391 1588 391 
Q 1994 391 2212 530 
Q 2431 669 2431 922 
Q 2431 1156 2273 1281 
Q 2116 1406 1581 1522 
L 1381 1569 
Q 847 1681 609 1914 
Q 372 2147 372 2553 
Q 372 3047 722 3315 
Q 1072 3584 1716 3584 
Q 2034 3584 2315 3537 
Q 2597 3491 2834 3397 
z
" transform="scale(0.015625)"/>
       <path id="DejaVuSans-4c" d="M 603 3500 
L 1178 3500 
L 1178 0 
L 603 0 
L 603 3500 
z
M 603 4863 
L 1178 4863 
L 1178 4134 
L 603 4134 
L 603 4863 
z
" transform="scale(0.015625)"/>
       <path id="DejaVuSans-4a" d="M 2906 1791 
Q 2906 2416 2648 2759 
Q 2391 3103 1925 3103 
Q 1463 3103 1205 2759 
Q 947 2416 947 1791 
Q 947 1169 1205 825 
Q 1463 481 1925 481 
Q 2391 481 2648 825 
Q 2906 1169 2906 1791 
z
M 3481 434 
Q 3481 -459 3084 -895 
Q 2688 -1331 1869 -1331 
Q 1566 -1331 1297 -1286 
Q 1028 -1241 775 -1147 
L 775 -588 
Q 1028 -725 1275 -790 
Q 1522 -856 1778 -856 
Q 2344 -856 2625 -561 
Q 2906 -266 2906 331 
L 2906 616 
Q 2728 306 2450 153 
Q 2172 0 1784 0 
Q 1141 0 747 490 
Q 353 981 353 1791 
Q 353 2603 747 3093 
Q 1141 3584 1784 3584 
Q 2172 3584 2450 3431 
Q 2728 3278 2906 2969 
L 2906 3500 
L 3481 3500 
L 3481 434 
z
" transform="scale(0.015625)"/>
       <path id="DejaVuSans-44" d="M 2194 1759 
Q 1497 1759 1228 1600 
Q 959 1441 959 1056 
Q 959 750 1161 570 
Q 1363 391 1709 391 
Q 2188 391 2477 730 
Q 2766 1069 2766 1631 
L 2766 1759 
L 2194 1759 
z
M 3341 1997 
L 3341 0 
L 2766 0 
L 2766 531 
Q 2569 213 2275 61 
Q 1981 -91 1556 -91 
Q 1019 -91 701 211 
Q 384 513 384 1019 
Q 384 1609 779 1909 
Q 1175 2209 1959 2209 
L 2766 2209 
L 2766 2266 
Q 2766 2663 2505 2880 
Q 2244 3097 1772 3097 
Q 1472 3097 1187 3025 
Q 903 2953 641 2809 
L 641 3341 
Q 956 3463 1253 3523 
Q 1550 3584 1831 3584 
Q 2591 3584 2966 3190 
Q 3341 2797 3341 1997 
z
" transform="scale(0.015625)"/>
      </defs>
      <use xlink:href="#DejaVuSans-51"/>
      <use xlink:href="#DejaVuSans-52" transform="translate(63.375 0)"/>
      <use xlink:href="#DejaVuSans-3" transform="translate(124.5625 0)"/>
      <use xlink:href="#DejaVuSans-24" transform="translate(156.34375 0)"/>
      <use xlink:href="#DejaVuSans-4f" transform="translate(224.75 0)"/>
      <use xlink:href="#DejaVuSans-31" transform="translate(252.53125 0)"/>
      <use xlink:href="#DejaVuSans-3" transform="translate(327.34375 0)"/>
      <use xlink:href="#DejaVuSans-56" transform="translate(359.125 0)"/>
      <use xlink:href="#DejaVuSans-4c" transform="translate(411.21875 0)"/>
      <use xlink:href="#DejaVuSans-4a" transform="translate(439 0)"/>
      <use xlink:href="#DejaVuSans-51" transform="translate(502.484375 0)"/>
      <use xlink:href="#DejaVuSans-44" transform="translate(565.859375 0)"/>
      <use xlink:href="#DejaVuSans-4f" transform="translate(627.140625 0)"/>
     </g>
    </g>
    <g id="PathCollection_5">
     <g>
      <use xlink:href="#m196dffcd2a" x="106.607024" y="122.081792" style="fill: #d89a8a; stroke: #d89a8a; stroke-width: 3"/>
     </g>
    </g>
    <g id="text_13">
     <!-- uncharacterized -->
     <g transform="translate(122.857024 125.494292) scale(0.13 -0.13)">
      <defs>
       <path id="DejaVuSans-58" d="M 544 1381 
L 544 3500 
L 1119 3500 
L 1119 1403 
Q 1119 906 1312 657 
Q 1506 409 1894 409 
Q 2359 409 2629 706 
Q 2900 1003 2900 1516 
L 2900 3500 
L 3475 3500 
L 3475 0 
L 2900 0 
L 2900 538 
Q 2691 219 2414 64 
Q 2138 -91 1772 -91 
Q 1169 -91 856 284 
Q 544 659 544 1381 
z
M 1991 3584 
L 1991 3584 
z
" transform="scale(0.015625)"/>
       <path id="DejaVuSans-46" d="M 3122 3366 
L 3122 2828 
Q 2878 2963 2633 3030 
Q 2388 3097 2138 3097 
Q 1578 3097 1268 2742 
Q 959 2388 959 1747 
Q 959 1106 1268 751 
Q 1578 397 2138 397 
Q 2388 397 2633 464 
Q 2878 531 3122 666 
L 3122 134 
Q 2881 22 2623 -34 
Q 2366 -91 2075 -91 
Q 1284 -91 818 406 
Q 353 903 353 1747 
Q 353 2603 823 3093 
Q 1294 3584 2113 3584 
Q 2378 3584 2631 3529 
Q 2884 3475 3122 3366 
z
" transform="scale(0.015625)"/>
       <path id="DejaVuSans-4b" d="M 3513 2113 
L 3513 0 
L 2938 0 
L 2938 2094 
Q 2938 2591 2744 2837 
Q 2550 3084 2163 3084 
Q 1697 3084 1428 2787 
Q 1159 2491 1159 1978 
L 1159 0 
L 581 0 
L 581 4863 
L 1159 4863 
L 1159 2956 
Q 1366 3272 1645 3428 
Q 1925 3584 2291 3584 
Q 2894 3584 3203 3211 
Q 3513 2838 3513 2113 
z
" transform="scale(0.015625)"/>
       <path id="DejaVuSans-55" d="M 2631 2963 
Q 2534 3019 2420 3045 
Q 2306 3072 2169 3072 
Q 1681 3072 1420 2755 
Q 1159 2438 1159 1844 
L 1159 0 
L 581 0 
L 581 3500 
L 1159 3500 
L 1159 2956 
Q 1341 3275 1631 3429 
Q 1922 3584 2338 3584 
Q 2397 3584 2469 3576 
Q 2541 3569 2628 3553 
L 2631 2963 
z
" transform="scale(0.015625)"/>
       <path id="DejaVuSans-57" d="M 1172 4494 
L 1172 3500 
L 2356 3500 
L 2356 3053 
L 1172 3053 
L 1172 1153 
Q 1172 725 1289 603 
Q 1406 481 1766 481 
L 2356 481 
L 2356 0 
L 1766 0 
Q 1100 0 847 248 
Q 594 497 594 1153 
L 594 3053 
L 172 3053 
L 172 3500 
L 594 3500 
L 594 4494 
L 1172 4494 
z
" transform="scale(0.015625)"/>
       <path id="DejaVuSans-48" d="M 3597 1894 
L 3597 1613 
L 953 1613 
Q 991 1019 1311 708 
Q 1631 397 2203 397 
Q 2534 397 2845 478 
Q 3156 559 3463 722 
L 3463 178 
Q 3153 47 2828 -22 
Q 2503 -91 2169 -91 
Q 1331 -91 842 396 
Q 353 884 353 1716 
Q 353 2575 817 3079 
Q 1281 3584 2069 3584 
Q 2775 3584 3186 3129 
Q 3597 2675 3597 1894 
z
M 3022 2063 
Q 3016 2534 2758 2815 
Q 2500 3097 2075 3097 
Q 1594 3097 1305 2825 
Q 1016 2553 972 2059 
L 3022 2063 
z
" transform="scale(0.015625)"/>
       <path id="DejaVuSans-5d" d="M 353 3500 
L 3084 3500 
L 3084 2975 
L 922 459 
L 3084 459 
L 3084 0 
L 275 0 
L 275 525 
L 2438 3041 
L 353 3041 
L 353 3500 
z
" transform="scale(0.015625)"/>
       <path id="DejaVuSans-47" d="M 2906 2969 
L 2906 4863 
L 3481 4863 
L 3481 0 
L 2906 0 
L 2906 525 
Q 2725 213 2448 61 
Q 2172 -91 1784 -91 
Q 1150 -91 751 415 
Q 353 922 353 1747 
Q 353 2572 751 3078 
Q 1150 3584 1784 3584 
Q 2172 3584 2448 3432 
Q 2725 3281 2906 2969 
z
M 947 1747 
Q 947 1113 1208 752 
Q 1469 391 1925 391 
Q 2381 391 2643 752 
Q 2906 1113 2906 1747 
Q 2906 2381 2643 2742 
Q 2381 3103 1925 3103 
Q 1469 3103 1208 2742 
Q 947 2381 947 1747 
z
" transform="scale(0.015625)"/>
      </defs>
      <use xlink:href="#DejaVuSans-58"/>
      <use xlink:href="#DejaVuSans-51" transform="translate(63.375 0)"/>
      <use xlink:href="#DejaVuSans-46" transform="translate(126.75 0)"/>
      <use xlink:href="#DejaVuSans-4b" transform="translate(181.734375 0)"/>
      <use xlink:href="#DejaVuSans-44" transform="translate(245.109375 0)"/>
      <use xlink:href="#DejaVuSans-55" transform="translate(306.390625 0)"/>
      <use xlink:href="#DejaVuSans-44" transform="translate(347.5 0)"/>
      <use xlink:href="#DejaVuSans-46" transform="translate(408.78125 0)"/>
      <use xlink:href="#DejaVuSans-57" transform="translate(463.765625 0)"/>
      <use xlink:href="#DejaVuSans-48" transform="translate(502.96875 0)"/>
      <use xlink:href="#DejaVuSans-55" transform="translate(564.5 0)"/>
      <use xlink:href="#DejaVuSans-4c" transform="translate(605.609375 0)"/>
      <use xlink:href="#DejaVuSans-5d" transform="translate(633.390625 0)"/>
      <use xlink:href="#DejaVuSans-48" transform="translate(685.875 0)"/>
      <use xlink:href="#DejaVuSans-47" transform="translate(747.40625 0)"/>
     </g>
    </g>
    <g id="PathCollection_6">
     <path d="M 106.607024 143.206205 
C 107.899464 143.206205 109.139143 142.692713 110.053036 141.77882 
C 110.966929 140.864926 111.480421 139.625247 111.480421 138.332807 
C 111.480421 137.040367 110.966929 135.800688 110.053036 134.886795 
C 109.139143 133.972902 107.899464 133.45941 106.607024 133.45941 
C 105.314584 133.45941 104.074905 133.972902 103.161012 134.886795 
C 102.247118 135.800688 101.733627 137.040367 101.733627 138.332807 
C 101.733627 139.625247 102.247118 140.864926 103.161012 141.77882 
C 104.074905 142.692713 105.314584 143.206205 106.607024 143.206205 
L 106.607024 143.206205 
z
" style="fill: none; stroke: #5b6770; stroke-width: 2.2"/>
    </g>
    <g id="text_14">
     <!-- scrapped run -->
     <g transform="translate(122.857024 141.745307) scale(0.13 -0.13)">
      <defs>
       <path id="DejaVuSans-53" d="M 1159 525 
L 1159 -1331 
L 581 -1331 
L 581 3500 
L 1159 3500 
L 1159 2969 
Q 1341 3281 1617 3432 
Q 1894 3584 2278 3584 
Q 2916 3584 3314 3078 
Q 3713 2572 3713 1747 
Q 3713 922 3314 415 
Q 2916 -91 2278 -91 
Q 1894 -91 1617 61 
Q 1341 213 1159 525 
z
M 3116 1747 
Q 3116 2381 2855 2742 
Q 2594 3103 2138 3103 
Q 1681 3103 1420 2742 
Q 1159 2381 1159 1747 
Q 1159 1113 1420 752 
Q 1681 391 2138 391 
Q 2594 391 2855 752 
Q 3116 1113 3116 1747 
z
" transform="scale(0.015625)"/>
      </defs>
      <use xlink:href="#DejaVuSans-56"/>
      <use xlink:href="#DejaVuSans-46" transform="translate(52.09375 0)"/>
      <use xlink:href="#DejaVuSans-55" transform="translate(107.078125 0)"/>
      <use xlink:href="#DejaVuSans-44" transform="translate(148.1875 0)"/>
      <use xlink:href="#DejaVuSans-53" transform="translate(209.46875 0)"/>
      <use xlink:href="#DejaVuSans-53" transform="translate(272.953125 0)"/>
      <use xlink:href="#DejaVuSans-48" transform="translate(336.4375 0)"/>
      <use xlink:href="#DejaVuSans-47" transform="translate(397.96875 0)"/>
      <use xlink:href="#DejaVuSans-3" transform="translate(461.453125 0)"/>
      <use xlink:href="#DejaVuSans-55" transform="translate(493.234375 0)"/>
      <use xlink:href="#DejaVuSans-58" transform="translate(534.34375 0)"/>
      <use xlink:href="#DejaVuSans-51" transform="translate(597.71875 0)"/>
     </g>
    </g>
    <g id="LineCollection_1">
     <path d="M 106.607024 159.946323 
L 106.607024 146.946323 
" style="fill: none; stroke: #007833; stroke-width: 2"/>
    </g>
    <g id="line2d_16">
     <defs>
      <path id="m7f47243611" d="M 4 0 
L -4 -0 
" style="stroke: #007833"/>
     </defs>
     <g>
      <use xlink:href="#m7f47243611" x="106.607024" y="159.946323" style="fill: #007833; stroke: #007833"/>
     </g>
    </g>
    <g id="line2d_17">
     <g>
      <use xlink:href="#m7f47243611" x="106.607024" y="146.946323" style="fill: #007833; stroke: #007833"/>
     </g>
    </g>
    <g id="line2d_18"/>
    <g id="line2d_19">
     <defs>
      <path id="mf19fba77d6" d="M 0 6.5 
C 1.72382 6.5 3.377269 5.815119 4.596194 4.596194 
C 5.815119 3.377269 6.5 1.72382 6.5 0 
C 6.5 -1.72382 5.815119 -3.377269 4.596194 -4.596194 
C 3.377269 -5.815119 1.72382 -6.5 0 -6.5 
C -1.72382 -6.5 -3.377269 -5.815119 -4.596194 -4.596194 
C -5.815119 -3.377269 -6.5 -1.72382 -6.5 0 
C -6.5 1.72382 -5.815119 3.377269 -4.596194 4.596194 
C -3.377269 5.815119 -1.72382 6.5 0 6.5 
z
" style="stroke: #007833"/>
     </defs>
     <g>
      <use xlink:href="#mf19fba77d6" x="106.607024" y="153.446323" style="fill: #007833; stroke: #007833"/>
     </g>
    </g>
    <g id="text_15">
     <!-- ~600 µm films -->
     <g transform="translate(122.857024 157.996323) scale(0.13 -0.13)">
      <defs>
       <path id="DejaVuSans-61" d="M 4684 2553 
L 4684 1997 
Q 4356 1750 4076 1644 
Q 3797 1538 3494 1538 
Q 3150 1538 2694 1722 
Q 2659 1734 2644 1741 
Q 2622 1750 2575 1766 
Q 2091 1959 1797 1959 
Q 1522 1959 1253 1839 
Q 984 1719 678 1459 
L 678 2016 
Q 1006 2263 1286 2370 
Q 1566 2478 1869 2478 
Q 2213 2478 2672 2291 
Q 2703 2278 2719 2272 
Q 2744 2263 2788 2247 
Q 3272 2053 3566 2053 
Q 3834 2053 4098 2172 
Q 4363 2291 4684 2553 
z
" transform="scale(0.015625)"/>
       <path id="DejaVuSans-19" d="M 2113 2584 
Q 1688 2584 1439 2293 
Q 1191 2003 1191 1497 
Q 1191 994 1439 701 
Q 1688 409 2113 409 
Q 2538 409 2786 701 
Q 3034 994 3034 1497 
Q 3034 2003 2786 2293 
Q 2538 2584 2113 2584 
z
M 3366 4563 
L 3366 3988 
Q 3128 4100 2886 4159 
Q 2644 4219 2406 4219 
Q 1781 4219 1451 3797 
Q 1122 3375 1075 2522 
Q 1259 2794 1537 2939 
Q 1816 3084 2150 3084 
Q 2853 3084 3261 2657 
Q 3669 2231 3669 1497 
Q 3669 778 3244 343 
Q 2819 -91 2113 -91 
Q 1303 -91 875 529 
Q 447 1150 447 2328 
Q 447 3434 972 4092 
Q 1497 4750 2381 4750 
Q 2619 4750 2861 4703 
Q 3103 4656 3366 4563 
z
" transform="scale(0.015625)"/>
       <path id="DejaVuSans-77" d="M 544 -1331 
L 544 3500 
L 1119 3500 
L 1119 1325 
Q 1119 872 1334 640 
Q 1550 409 1972 409 
Q 2434 409 2667 671 
Q 2900 934 2900 1459 
L 2900 3500 
L 3475 3500 
L 3475 806 
Q 3475 619 3529 530 
Q 3584 441 3700 441 
Q 3728 441 3778 458 
Q 3828 475 3916 513 
L 3916 50 
Q 3788 -22 3673 -56 
Q 3559 -91 3450 -91 
Q 3234 -91 3106 31 
Q 2978 153 2931 403 
Q 2775 156 2548 32 
Q 2322 -91 2016 -91 
Q 1697 -91 1473 31 
Q 1250 153 1119 397 
L 1119 -1331 
L 544 -1331 
z
" transform="scale(0.015625)"/>
       <path id="DejaVuSans-50" d="M 3328 2828 
Q 3544 3216 3844 3400 
Q 4144 3584 4550 3584 
Q 5097 3584 5394 3201 
Q 5691 2819 5691 2113 
L 5691 0 
L 5113 0 
L 5113 2094 
Q 5113 2597 4934 2840 
Q 4756 3084 4391 3084 
Q 3944 3084 3684 2787 
Q 3425 2491 3425 1978 
L 3425 0 
L 2847 0 
L 2847 2094 
Q 2847 2600 2669 2842 
Q 2491 3084 2119 3084 
Q 1678 3084 1418 2786 
Q 1159 2488 1159 1978 
L 1159 0 
L 581 0 
L 581 3500 
L 1159 3500 
L 1159 2956 
Q 1356 3278 1631 3431 
Q 1906 3584 2284 3584 
Q 2666 3584 2933 3390 
Q 3200 3197 3328 2828 
z
" transform="scale(0.015625)"/>
       <path id="DejaVuSans-13af" d="M 3431 3500 
L 3431 0 
L 2853 0 
L 2853 3053 
L 1275 3053 
L 1275 0 
L 697 0 
L 697 3053 
L 147 3053 
L 147 3500 
L 697 3500 
L 697 3744 
Q 697 4316 967 4589 
Q 1238 4863 1797 4863 
L 2375 4863 
L 2375 4384 
L 1825 4384 
Q 1516 4384 1395 4259 
Q 1275 4134 1275 3809 
L 1275 3500 
L 3431 3500 
z
M 2853 4856 
L 3431 4856 
L 3431 4128 
L 2853 4128 
L 2853 4856 
z
" transform="scale(0.015625)"/>
      </defs>
      <use xlink:href="#DejaVuSans-61"/>
      <use xlink:href="#DejaVuSans-19" transform="translate(83.796875 0)"/>
      <use xlink:href="#DejaVuSans-13" transform="translate(147.421875 0)"/>
      <use xlink:href="#DejaVuSans-13" transform="translate(211.046875 0)"/>
      <use xlink:href="#DejaVuSans-3" transform="translate(274.671875 0)"/>
      <use xlink:href="#DejaVuSans-77" transform="translate(306.453125 0)"/>
      <use xlink:href="#DejaVuSans-50" transform="translate(370.078125 0)"/>
      <use xlink:href="#DejaVuSans-3" transform="translate(467.484375 0)"/>
      <use xlink:href="#DejaVuSans-13af" transform="translate(499.265625 0)"/>
      <use xlink:href="#DejaVuSans-4f" transform="translate(562.25 0)"/>
      <use xlink:href="#DejaVuSans-50" transform="translate(590.03125 0)"/>
      <use xlink:href="#DejaVuSans-56" transform="translate(687.4375 0)"/>
     </g>
    </g>
    <g id="LineCollection_2">
     <path d="M 106.607024 176.197339 
L 106.607024 163.197339 
" style="fill: none; stroke: #0072b2; stroke-width: 2"/>
    </g>
    <g id="line2d_20">
     <defs>
      <path id="m9f9761d4d4" d="M 4 0 
L -4 -0 
" style="stroke: #0072b2"/>
     </defs>
     <g>
      <use xlink:href="#m9f9761d4d4" x="106.607024" y="176.197339" style="fill: #0072b2; stroke: #0072b2"/>
     </g>
    </g>
    <g id="line2d_21">
     <g>
      <use xlink:href="#m9f9761d4d4" x="106.607024" y="163.197339" style="fill: #0072b2; stroke: #0072b2"/>
     </g>
    </g>
    <g id="line2d_22"/>
    <g id="line2d_23">
     <defs>
      <path id="ma403618d02" d="M -6 6 
L 6 6 
L 6 -6 
L -6 -6 
z
" style="stroke: #0072b2; stroke-linejoin: miter"/>
     </defs>
     <g>
      <use xlink:href="#ma403618d02" x="106.607024" y="169.697339" style="fill: #0072b2; stroke: #0072b2; stroke-linejoin: miter"/>
     </g>
    </g>
    <g id="text_16">
     <!-- ~125 nm films -->
     <g transform="translate(122.857024 174.247339) scale(0.13 -0.13)">
      <use xlink:href="#DejaVuSans-61"/>
      <use xlink:href="#DejaVuSans-14" transform="translate(83.796875 0)"/>
      <use xlink:href="#DejaVuSans-15" transform="translate(147.421875 0)"/>
      <use xlink:href="#DejaVuSans-18" transform="translate(211.046875 0)"/>
      <use xlink:href="#DejaVuSans-3" transform="translate(274.671875 0)"/>
      <use xlink:href="#DejaVuSans-51" transform="translate(306.453125 0)"/>
      <use xlink:href="#DejaVuSans-50" transform="translate(369.828125 0)"/>
      <use xlink:href="#DejaVuSans-3" transform="translate(467.234375 0)"/>
      <use xlink:href="#DejaVuSans-13af" transform="translate(499.015625 0)"/>
      <use xlink:href="#DejaVuSans-4f" transform="translate(562 0)"/>
      <use xlink:href="#DejaVuSans-50" transform="translate(589.78125 0)"/>
      <use xlink:href="#DejaVuSans-56" transform="translate(687.1875 0)"/>
     </g>
    </g>
   </g>
   <g id="LineCollection_3">
    <path d="M 292.664607 120.950701 
L 292.664607 119.725128 
" clip-path="url(#p6762ff6acf)" style="fill: none; stroke: #007833; stroke-width: 2"/>
    <path d="M 322.020396 123.017793 
L 322.020396 121.868544 
" clip-path="url(#p6762ff6acf)" style="fill: none; stroke: #007833; stroke-width: 2"/>
    <path d="M 395.40987 149.609884 
L 395.40987 148.682721 
" clip-path="url(#p6762ff6acf)" style="fill: none; stroke: #007833; stroke-width: 2"/>
    <path d="M 424.76566 174.677778 
L 424.76566 172.375134 
" clip-path="url(#p6762ff6acf)" style="fill: none; stroke: #007833; stroke-width: 2"/>
    <path d="M 439.443554 162.346432 
L 439.443554 159.423663 
" clip-path="url(#p6762ff6acf)" style="fill: none; stroke: #007833; stroke-width: 2"/>
    <path d="M 454.121449 111.096642 
L 454.121449 109.031302 
" clip-path="url(#p6762ff6acf)" style="fill: none; stroke: #007833; stroke-width: 2"/>
    <path d="M 483.477238 183.192043 
L 483.477238 182.415426 
" clip-path="url(#p6762ff6acf)" style="fill: none; stroke: #007833; stroke-width: 2"/>
    <path d="M 498.155133 186.85256 
L 498.155133 186.037472 
" clip-path="url(#p6762ff6acf)" style="fill: none; stroke: #007833; stroke-width: 2"/>
   </g>
   <g id="line2d_24">
    <g clip-path="url(#p6762ff6acf)">
     <use xlink:href="#m7f47243611" x="292.664607" y="120.950701" style="fill: #007833; stroke: #007833"/>
     <use xlink:href="#m7f47243611" x="322.020396" y="123.017793" style="fill: #007833; stroke: #007833"/>
     <use xlink:href="#m7f47243611" x="395.40987" y="149.609884" style="fill: #007833; stroke: #007833"/>
     <use xlink:href="#m7f47243611" x="424.76566" y="174.677778" style="fill: #007833; stroke: #007833"/>
     <use xlink:href="#m7f47243611" x="439.443554" y="162.346432" style="fill: #007833; stroke: #007833"/>
     <use xlink:href="#m7f47243611" x="454.121449" y="111.096642" style="fill: #007833; stroke: #007833"/>
     <use xlink:href="#m7f47243611" x="483.477238" y="183.192043" style="fill: #007833; stroke: #007833"/>
     <use xlink:href="#m7f47243611" x="498.155133" y="186.85256" style="fill: #007833; stroke: #007833"/>
    </g>
   </g>
   <g id="line2d_25">
    <g clip-path="url(#p6762ff6acf)">
     <use xlink:href="#m7f47243611" x="292.664607" y="119.725128" style="fill: #007833; stroke: #007833"/>
     <use xlink:href="#m7f47243611" x="322.020396" y="121.868544" style="fill: #007833; stroke: #007833"/>
     <use xlink:href="#m7f47243611" x="395.40987" y="148.682721" style="fill: #007833; stroke: #007833"/>
     <use xlink:href="#m7f47243611" x="424.76566" y="172.375134" style="fill: #007833; stroke: #007833"/>
     <use xlink:href="#m7f47243611" x="439.443554" y="159.423663" style="fill: #007833; stroke: #007833"/>
     <use xlink:href="#m7f47243611" x="454.121449" y="109.031302" style="fill: #007833; stroke: #007833"/>
     <use xlink:href="#m7f47243611" x="483.477238" y="182.415426" style="fill: #007833; stroke: #007833"/>
     <use xlink:href="#m7f47243611" x="498.155133" y="186.037472" style="fill: #007833; stroke: #007833"/>
    </g>
   </g>
   <g id="LineCollection_4">
    <path d="M 512.833028 85.831451 
L 512.833028 81.496422 
" clip-path="url(#p6762ff6acf)" style="fill: none; stroke: #0072b2; stroke-width: 2"/>
    <path d="M 542.188817 99.513213 
L 542.188817 96.604538 
" clip-path="url(#p6762ff6acf)" style="fill: none; stroke: #0072b2; stroke-width: 2"/>
    <path d="M 556.866712 101.659736 
L 556.866712 99.11341 
" clip-path="url(#p6762ff6acf)" style="fill: none; stroke: #0072b2; stroke-width: 2"/>
   </g>
   <g id="line2d_26">
    <g clip-path="url(#p6762ff6acf)">
     <use xlink:href="#m9f9761d4d4" x="512.833028" y="85.831451" style="fill: #0072b2; stroke: #0072b2"/>
     <use xlink:href="#m9f9761d4d4" x="542.188817" y="99.513213" style="fill: #0072b2; stroke: #0072b2"/>
     <use xlink:href="#m9f9761d4d4" x="556.866712" y="101.659736" style="fill: #0072b2; stroke: #0072b2"/>
    </g>
   </g>
   <g id="line2d_27">
    <g clip-path="url(#p6762ff6acf)">
     <use xlink:href="#m9f9761d4d4" x="512.833028" y="81.496422" style="fill: #0072b2; stroke: #0072b2"/>
     <use xlink:href="#m9f9761d4d4" x="542.188817" y="96.604538" style="fill: #0072b2; stroke: #0072b2"/>
     <use xlink:href="#m9f9761d4d4" x="556.866712" y="99.11341" style="fill: #0072b2; stroke: #0072b2"/>
    </g>
   </g>
   <g id="line2d_28">
    <g clip-path="url(#p6762ff6acf)">
     <use xlink:href="#mf19fba77d6" x="292.664607" y="120.337914" style="fill: #007833; stroke: #007833"/>
     <use xlink:href="#mf19fba77d6" x="322.020396" y="122.443169" style="fill: #007833; stroke: #007833"/>
     <use xlink:href="#mf19fba77d6" x="395.40987" y="149.146302" style="fill: #007833; stroke: #007833"/>
     <use xlink:href="#mf19fba77d6" x="424.76566" y="173.526456" style="fill: #007833; stroke: #007833"/>
     <use xlink:href="#mf19fba77d6" x="439.443554" y="160.885047" style="fill: #007833; stroke: #007833"/>
     <use xlink:href="#mf19fba77d6" x="454.121449" y="110.063972" style="fill: #007833; stroke: #007833"/>
     <use xlink:href="#mf19fba77d6" x="483.477238" y="182.803735" style="fill: #007833; stroke: #007833"/>
     <use xlink:href="#mf19fba77d6" x="498.155133" y="186.445016" style="fill: #007833; stroke: #007833"/>
    </g>
   </g>
   <g id="line2d_29">
    <g clip-path="url(#p6762ff6acf)">
     <use xlink:href="#ma403618d02" x="512.833028" y="83.663936" style="fill: #0072b2; stroke: #0072b2; stroke-linejoin: miter"/>
     <use xlink:href="#ma403618d02" x="542.188817" y="98.058875" style="fill: #0072b2; stroke: #0072b2; stroke-linejoin: miter"/>
     <use xlink:href="#ma403618d02" x="556.866712" y="100.386573" style="fill: #0072b2; stroke: #0072b2; stroke-linejoin: miter"/>
    </g>
   </g>
   <g id="PathCollection_7">
    <defs>
     <path id="mff22a11d0c" d="M 0 -12.747549 
L -2.862003 -3.939209 
L -12.123639 -3.939209 
L -4.630818 1.504644 
L -7.492821 10.312984 
L -0 4.86913 
L 7.492821 10.312984 
L 4.630818 1.504644 
L 12.123639 -3.939209 
L 2.862003 -3.939209 
z
" style="stroke: #1e252b; stroke-width: 1.4"/>
    </defs>
    <g clip-path="url(#p6762ff6acf)">
     <use xlink:href="#mff22a11d0c" x="498.155133" y="186.445016" style="fill: #e69f00; stroke: #1e252b; stroke-width: 1.4"/>
    </g>
   </g>
  </g>
  <g id="axes_2">
   <g id="patch_8">
    <path d="M 78.367344 460.8 
L 580.351344 460.8 
L 580.351344 322.75983 
L 78.367344 322.75983 
L 78.367344 460.8 
z
" style="fill: none"/>
   </g>
   <g id="patch_9">
    <path d="M 78.367344 460.8 
L 270.647765 460.8 
L 270.647765 322.75983 
L 78.367344 322.75983 
z
" clip-path="url(#p45dec77708)" style="fill: #f6e3dd; opacity: 0.75"/>
   </g>
   <g id="patch_10">
    <path d="M 270.647765 460.8 
L 580.351344 460.8 
L 580.351344 322.75983 
L 270.647765 322.75983 
z
" clip-path="url(#p45dec77708)" style="fill: #e2efe6; opacity: 0.75"/>
   </g>
   <g id="patch_11">
    <path d="M 124.96966 460.8 
L 137.44587 460.8 
L 137.44587 446.995983 
L 124.96966 446.995983 
z
" clip-path="url(#p45dec77708)" style="fill: #d55e00"/>
   </g>
   <g id="patch_12">
    <path d="M 154.325449 460.8 
L 166.80166 460.8 
L 166.80166 443.621668 
L 154.325449 443.621668 
z
" clip-path="url(#p45dec77708)" style="fill: #d55e00"/>
   </g>
   <g id="patch_13">
    <path d="M 169.003344 460.8 
L 181.479554 460.8 
L 181.479554 449.204626 
L 169.003344 449.204626 
z
" clip-path="url(#p45dec77708)" style="fill: #d55e00"/>
   </g>
   <g id="patch_14">
    <path d="M 418.527554 460.8 
L 431.003765 460.8 
L 431.003765 384.111016 
L 418.527554 384.111016 
z
" clip-path="url(#p45dec77708)" style="fill: #007833"/>
   </g>
   <g id="patch_15">
    <path d="M 433.205449 460.8 
L 445.68166 460.8 
L 445.68166 356.502982 
L 433.205449 356.502982 
z
" clip-path="url(#p45dec77708)" style="fill: #007833"/>
   </g>
   <g id="patch_16">
    <path d="M 462.561238 460.8 
L 475.037449 460.8 
L 475.037449 338.097626 
L 462.561238 338.097626 
z
" clip-path="url(#p45dec77708)" style="fill: #007833"/>
   </g>
   <g id="patch_17">
    <path d="M 506.594923 460.8 
L 519.071133 460.8 
L 519.071133 346.57636 
L 506.594923 346.57636 
z
" clip-path="url(#p45dec77708)" style="fill: #007833"/>
   </g>
   <g id="patch_18">
    <path d="M 550.628607 460.8 
L 563.104817 460.8 
L 563.104817 344.947486 
L 550.628607 344.947486 
z
" clip-path="url(#p45dec77708)" style="fill: #007833"/>
   </g>
   <g id="matplotlib.axis_3">
    <g id="xtick_9">
     <g id="line2d_30">
      <g>
       <use xlink:href="#m418045b9de" x="87.174081" y="460.8" style="fill: #1e252b; stroke: #1e252b; stroke-width: 0.8"/>
      </g>
     </g>
     <g id="text_17">
      <!-- 1 -->
      <g style="fill: #1e252b" transform="translate(81.129706 482.235547) scale(0.19 -0.19)">
       <use xlink:href="#DejaVuSans-14"/>
      </g>
     </g>
    </g>
    <g id="xtick_10">
     <g id="line2d_31">
      <g>
       <use xlink:href="#m418045b9de" x="145.88566" y="460.8" style="fill: #1e252b; stroke: #1e252b; stroke-width: 0.8"/>
      </g>
     </g>
     <g id="text_18">
      <!-- 5 -->
      <g style="fill: #1e252b" transform="translate(139.841285 482.235547) scale(0.19 -0.19)">
       <use xlink:href="#DejaVuSans-18"/>
      </g>
     </g>
    </g>
    <g id="xtick_11">
     <g id="line2d_32">
      <g>
       <use xlink:href="#m418045b9de" x="219.275133" y="460.8" style="fill: #1e252b; stroke: #1e252b; stroke-width: 0.8"/>
      </g>
     </g>
     <g id="text_19">
      <!-- 10 -->
      <g style="fill: #1e252b" transform="translate(207.186383 482.235547) scale(0.19 -0.19)">
       <use xlink:href="#DejaVuSans-14"/>
       <use xlink:href="#DejaVuSans-13" transform="translate(63.625 0)"/>
      </g>
     </g>
    </g>
    <g id="xtick_12">
     <g id="line2d_33">
      <g>
       <use xlink:href="#m418045b9de" x="277.986712" y="460.8" style="fill: #1e252b; stroke: #1e252b; stroke-width: 0.8"/>
      </g>
     </g>
     <g id="text_20">
      <!-- 14 -->
      <g style="fill: #1e252b" transform="translate(265.897962 482.235547) scale(0.19 -0.19)">
       <defs>
        <path id="DejaVuSans-17" d="M 2419 4116 
L 825 1625 
L 2419 1625 
L 2419 4116 
z
M 2253 4666 
L 3047 4666 
L 3047 1625 
L 3713 1625 
L 3713 1100 
L 3047 1100 
L 3047 0 
L 2419 0 
L 2419 1100 
L 313 1100 
L 313 1709 
L 2253 4666 
z
" transform="scale(0.015625)"/>
       </defs>
       <use xlink:href="#DejaVuSans-14"/>
       <use xlink:href="#DejaVuSans-17" transform="translate(63.625 0)"/>
      </g>
     </g>
    </g>
    <g id="xtick_13">
     <g id="line2d_34">
      <g>
       <use xlink:href="#m418045b9de" x="366.054081" y="460.8" style="fill: #1e252b; stroke: #1e252b; stroke-width: 0.8"/>
      </g>
     </g>
     <g id="text_21">
      <!-- 20 -->
      <g style="fill: #1e252b" transform="translate(353.965331 482.235547) scale(0.19 -0.19)">
       <use xlink:href="#DejaVuSans-15"/>
       <use xlink:href="#DejaVuSans-13" transform="translate(63.625 0)"/>
      </g>
     </g>
    </g>
    <g id="xtick_14">
     <g id="line2d_35">
      <g>
       <use xlink:href="#m418045b9de" x="439.443554" y="460.8" style="fill: #1e252b; stroke: #1e252b; stroke-width: 0.8"/>
      </g>
     </g>
     <g id="text_22">
      <!-- 25 -->
      <g style="fill: #1e252b" transform="translate(427.354804 482.235547) scale(0.19 -0.19)">
       <use xlink:href="#DejaVuSans-15"/>
       <use xlink:href="#DejaVuSans-18" transform="translate(63.625 0)"/>
      </g>
     </g>
    </g>
    <g id="xtick_15">
     <g id="line2d_36">
      <g>
       <use xlink:href="#m418045b9de" x="512.833028" y="460.8" style="fill: #1e252b; stroke: #1e252b; stroke-width: 0.8"/>
      </g>
     </g>
     <g id="text_23">
      <!-- 30 -->
      <g style="fill: #1e252b" transform="translate(500.744278 482.235547) scale(0.19 -0.19)">
       <defs>
        <path id="DejaVuSans-16" d="M 2597 2516 
Q 3050 2419 3304 2112 
Q 3559 1806 3559 1356 
Q 3559 666 3084 287 
Q 2609 -91 1734 -91 
Q 1441 -91 1130 -33 
Q 819 25 488 141 
L 488 750 
Q 750 597 1062 519 
Q 1375 441 1716 441 
Q 2309 441 2620 675 
Q 2931 909 2931 1356 
Q 2931 1769 2642 2001 
Q 2353 2234 1838 2234 
L 1294 2234 
L 1294 2753 
L 1863 2753 
Q 2328 2753 2575 2939 
Q 2822 3125 2822 3475 
Q 2822 3834 2567 4026 
Q 2313 4219 1838 4219 
Q 1578 4219 1281 4162 
Q 984 4106 628 3988 
L 628 4550 
Q 988 4650 1302 4700 
Q 1616 4750 1894 4750 
Q 2613 4750 3031 4423 
Q 3450 4097 3450 3541 
Q 3450 3153 3228 2886 
Q 3006 2619 2597 2516 
z
" transform="scale(0.015625)"/>
       </defs>
       <use xlink:href="#DejaVuSans-16"/>
       <use xlink:href="#DejaVuSans-13" transform="translate(63.625 0)"/>
      </g>
     </g>
    </g>
    <g id="xtick_16">
     <g id="line2d_37">
      <g>
       <use xlink:href="#m418045b9de" x="571.544607" y="460.8" style="fill: #1e252b; stroke: #1e252b; stroke-width: 0.8"/>
      </g>
     </g>
     <g id="text_24">
      <!-- 34 -->
      <g style="fill: #1e252b" transform="translate(559.455857 482.235547) scale(0.19 -0.19)">
       <use xlink:href="#DejaVuSans-16"/>
       <use xlink:href="#DejaVuSans-17" transform="translate(63.625 0)"/>
      </g>
     </g>
    </g>
    <g id="text_25">
     <!-- growth run #  (chronological, May 21 → Jul 6) -->
     <g style="fill: #1e252b" transform="translate(68.905906 508.276406) scale(0.23 -0.23)">
      <defs>
       <path id="DejaVuSans-5a" d="M 269 3500 
L 844 3500 
L 1563 769 
L 2278 3500 
L 2956 3500 
L 3675 769 
L 4391 3500 
L 4966 3500 
L 4050 0 
L 3372 0 
L 2619 2869 
L 1863 0 
L 1184 0 
L 269 3500 
z
" transform="scale(0.015625)"/>
       <path id="DejaVuSans-6" d="M 3272 2816 
L 2363 2816 
L 2100 1772 
L 3016 1772 
L 3272 2816 
z
M 2803 4594 
L 2478 3297 
L 3391 3297 
L 3719 4594 
L 4219 4594 
L 3897 3297 
L 4872 3297 
L 4872 2816 
L 3775 2816 
L 3519 1772 
L 4513 1772 
L 4513 1294 
L 3397 1294 
L 3072 0 
L 2572 0 
L 2894 1294 
L 1978 1294 
L 1656 0 
L 1153 0 
L 1478 1294 
L 494 1294 
L 494 1772 
L 1594 1772 
L 1856 2816 
L 850 2816 
L 850 3297 
L 1978 3297 
L 2297 4594 
L 2803 4594 
z
" transform="scale(0.015625)"/>
       <path id="DejaVuSans-f" d="M 750 794 
L 1409 794 
L 1409 256 
L 897 -744 
L 494 -744 
L 750 256 
L 750 794 
z
" transform="scale(0.015625)"/>
       <path id="DejaVuSans-5c" d="M 2059 -325 
Q 1816 -950 1584 -1140 
Q 1353 -1331 966 -1331 
L 506 -1331 
L 506 -850 
L 844 -850 
Q 1081 -850 1212 -737 
Q 1344 -625 1503 -206 
L 1606 56 
L 191 3500 
L 800 3500 
L 1894 763 
L 2988 3500 
L 3597 3500 
L 2059 -325 
z
" transform="scale(0.015625)"/>
       <path id="DejaVuSans-c1c" d="M 5050 2147 
L 5050 1866 
L 3822 638 
L 3447 1013 
L 4175 1741 
L 366 1741 
L 366 2272 
L 4175 2272 
L 3447 3000 
L 3822 3375 
L 5050 2147 
z
" transform="scale(0.015625)"/>
       <path id="DejaVuSans-2d" d="M 628 4666 
L 1259 4666 
L 1259 325 
Q 1259 -519 939 -900 
Q 619 -1281 -91 -1281 
L -331 -1281 
L -331 -750 
L -134 -750 
Q 284 -750 456 -515 
Q 628 -281 628 325 
L 628 4666 
z
" transform="scale(0.015625)"/>
      </defs>
      <use xlink:href="#DejaVuSans-4a"/>
      <use xlink:href="#DejaVuSans-55" transform="translate(63.484375 0)"/>
      <use xlink:href="#DejaVuSans-52" transform="translate(102.390625 0)"/>
      <use xlink:href="#DejaVuSans-5a" transform="translate(163.578125 0)"/>
      <use xlink:href="#DejaVuSans-57" transform="translate(245.359375 0)"/>
      <use xlink:href="#DejaVuSans-4b" transform="translate(284.5625 0)"/>
      <use xlink:href="#DejaVuSans-3" transform="translate(347.9375 0)"/>
      <use xlink:href="#DejaVuSans-55" transform="translate(379.71875 0)"/>
      <use xlink:href="#DejaVuSans-58" transform="translate(420.828125 0)"/>
      <use xlink:href="#DejaVuSans-51" transform="translate(484.203125 0)"/>
      <use xlink:href="#DejaVuSans-3" transform="translate(547.578125 0)"/>
      <use xlink:href="#DejaVuSans-6" transform="translate(579.359375 0)"/>
      <use xlink:href="#DejaVuSans-3" transform="translate(663.15625 0)"/>
      <use xlink:href="#DejaVuSans-3" transform="translate(694.9375 0)"/>
      <use xlink:href="#DejaVuSans-b" transform="translate(726.71875 0)"/>
      <use xlink:href="#DejaVuSans-46" transform="translate(765.734375 0)"/>
      <use xlink:href="#DejaVuSans-4b" transform="translate(820.71875 0)"/>
      <use xlink:href="#DejaVuSans-55" transform="translate(884.09375 0)"/>
      <use xlink:href="#DejaVuSans-52" transform="translate(923 0)"/>
      <use xlink:href="#DejaVuSans-51" transform="translate(984.1875 0)"/>
      <use xlink:href="#DejaVuSans-52" transform="translate(1047.5625 0)"/>
      <use xlink:href="#DejaVuSans-4f" transform="translate(1108.75 0)"/>
      <use xlink:href="#DejaVuSans-52" transform="translate(1136.53125 0)"/>
      <use xlink:href="#DejaVuSans-4a" transform="translate(1197.71875 0)"/>
      <use xlink:href="#DejaVuSans-4c" transform="translate(1261.203125 0)"/>
      <use xlink:href="#DejaVuSans-46" transform="translate(1288.984375 0)"/>
      <use xlink:href="#DejaVuSans-44" transform="translate(1343.96875 0)"/>
      <use xlink:href="#DejaVuSans-4f" transform="translate(1405.25 0)"/>
      <use xlink:href="#DejaVuSans-f" transform="translate(1433.03125 0)"/>
      <use xlink:href="#DejaVuSans-3" transform="translate(1464.8125 0)"/>
      <use xlink:href="#DejaVuSans-30" transform="translate(1496.59375 0)"/>
      <use xlink:href="#DejaVuSans-44" transform="translate(1582.875 0)"/>
      <use xlink:href="#DejaVuSans-5c" transform="translate(1644.15625 0)"/>
      <use xlink:href="#DejaVuSans-3" transform="translate(1703.34375 0)"/>
      <use xlink:href="#DejaVuSans-15" transform="translate(1735.125 0)"/>
      <use xlink:href="#DejaVuSans-14" transform="translate(1798.75 0)"/>
      <use xlink:href="#DejaVuSans-3" transform="translate(1862.375 0)"/>
      <use xlink:href="#DejaVuSans-c1c" transform="translate(1894.15625 0)"/>
      <use xlink:href="#DejaVuSans-3" transform="translate(1977.953125 0)"/>
      <use xlink:href="#DejaVuSans-2d" transform="translate(2009.734375 0)"/>
      <use xlink:href="#DejaVuSans-58" transform="translate(2039.234375 0)"/>
      <use xlink:href="#DejaVuSans-4f" transform="translate(2102.609375 0)"/>
      <use xlink:href="#DejaVuSans-3" transform="translate(2130.390625 0)"/>
      <use xlink:href="#DejaVuSans-19" transform="translate(2162.171875 0)"/>
      <use xlink:href="#DejaVuSans-c" transform="translate(2225.796875 0)"/>
     </g>
    </g>
   </g>
   <g id="matplotlib.axis_4">
    <g id="ytick_7">
     <g id="line2d_38">
      <g>
       <use xlink:href="#med2777cf27" x="78.367344" y="460.8" style="fill: #1e252b; stroke: #1e252b; stroke-width: 0.8"/>
      </g>
     </g>
     <g id="text_26">
      <!-- 0 -->
      <g style="fill: #1e252b" transform="translate(59.278594 468.017773) scale(0.19 -0.19)">
       <use xlink:href="#DejaVuSans-13"/>
      </g>
     </g>
    </g>
    <g id="ytick_8">
     <g id="line2d_39">
      <g>
       <use xlink:href="#med2777cf27" x="78.367344" y="414.78661" style="fill: #1e252b; stroke: #1e252b; stroke-width: 0.8"/>
      </g>
     </g>
     <g id="text_27">
      <!-- 5 -->
      <g style="fill: #1e252b" transform="translate(59.278594 422.004383) scale(0.19 -0.19)">
       <use xlink:href="#DejaVuSans-18"/>
      </g>
     </g>
    </g>
    <g id="ytick_9">
     <g id="line2d_40">
      <g>
       <use xlink:href="#med2777cf27" x="78.367344" y="368.77322" style="fill: #1e252b; stroke: #1e252b; stroke-width: 0.8"/>
      </g>
     </g>
     <g id="text_28">
      <!-- 10 -->
      <g style="fill: #1e252b" transform="translate(47.189844 375.990993) scale(0.19 -0.19)">
       <use xlink:href="#DejaVuSans-14"/>
       <use xlink:href="#DejaVuSans-13" transform="translate(63.625 0)"/>
      </g>
     </g>
    </g>
    <g id="ytick_10">
     <g id="line2d_41">
      <g>
       <use xlink:href="#med2777cf27" x="78.367344" y="322.75983" style="fill: #1e252b; stroke: #1e252b; stroke-width: 0.8"/>
      </g>
     </g>
     <g id="text_29">
      <!-- 15 -->
      <g style="fill: #1e252b" transform="translate(47.189844 329.977603) scale(0.19 -0.19)">
       <use xlink:href="#DejaVuSans-14"/>
       <use xlink:href="#DejaVuSans-18" transform="translate(63.625 0)"/>
      </g>
     </g>
    </g>
    <g id="text_30">
     <!-- growth rate -->
     <g style="fill: #1e252b" transform="translate(19.23918 432.578977) rotate(-90) scale(0.14 -0.14)">
      <use xlink:href="#DejaVuSans-4a"/>
      <use xlink:href="#DejaVuSans-55" transform="translate(63.484375 0)"/>
      <use xlink:href="#DejaVuSans-52" transform="translate(102.390625 0)"/>
      <use xlink:href="#DejaVuSans-5a" transform="translate(163.578125 0)"/>
      <use xlink:href="#DejaVuSans-57" transform="translate(245.359375 0)"/>
      <use xlink:href="#DejaVuSans-4b" transform="translate(284.5625 0)"/>
      <use xlink:href="#DejaVuSans-3" transform="translate(347.9375 0)"/>
      <use xlink:href="#DejaVuSans-55" transform="translate(379.71875 0)"/>
      <use xlink:href="#DejaVuSans-44" transform="translate(420.828125 0)"/>
      <use xlink:href="#DejaVuSans-57" transform="translate(482.109375 0)"/>
      <use xlink:href="#DejaVuSans-48" transform="translate(521.3125 0)"/>
     </g>
     <!-- (nm min$^{-1}$) -->
     <g style="fill: #1e252b" transform="translate(38.425195 431.469915) rotate(-90) scale(0.14 -0.14)">
      <defs>
       <path id="DejaVuSans-c9c" d="M 678 2272 
L 4684 2272 
L 4684 1741 
L 678 1741 
L 678 2272 
z
" transform="scale(0.015625)"/>
      </defs>
      <use xlink:href="#DejaVuSans-b" transform="translate(0 0.665625)"/>
      <use xlink:href="#DejaVuSans-51" transform="translate(39.013672 0.665625)"/>
      <use xlink:href="#DejaVuSans-50" transform="translate(102.392578 0.665625)"/>
      <use xlink:href="#DejaVuSans-3" transform="translate(199.804688 0.665625)"/>
      <use xlink:href="#DejaVuSans-50" transform="translate(231.591797 0.665625)"/>
      <use xlink:href="#DejaVuSans-4c" transform="translate(329.003906 0.665625)"/>
      <use xlink:href="#DejaVuSans-51" transform="translate(356.787109 0.665625)"/>
      <use xlink:href="#DejaVuSans-c9c" transform="translate(421.123047 41.965625) scale(0.7)"/>
      <use xlink:href="#DejaVuSans-14" transform="translate(479.775391 41.965625) scale(0.7)"/>
      <use xlink:href="#DejaVuSans-c" transform="translate(527.045898 0.665625)"/>
     </g>
    </g>
   </g>
   <g id="line2d_42">
    <path d="M 270.647765 460.8 
L 270.647765 322.75983 
" clip-path="url(#p45dec77708)" style="fill: none; stroke-dasharray: 9,5.4; stroke-dashoffset: 0; stroke: #1e252b; stroke-width: 1.8"/>
   </g>
   <g id="patch_19">
    <path d="M 78.367344 460.8 
L 78.367344 322.75983 
" style="fill: none; stroke: #5b6770; stroke-width: 1.6; stroke-linejoin: miter; stroke-linecap: square"/>
   </g>
   <g id="patch_20">
    <path d="M 78.367344 460.8 
L 580.351344 460.8 
" style="fill: none; stroke: #5b6770; stroke-width: 1.6; stroke-linejoin: miter; stroke-linecap: square"/>
   </g>
   <g id="text_31">
    <!-- (b) -->
    <g transform="translate(88.407024 350.519606) scale(0.22 -0.22)">
     <use xlink:href="#DejaVuSans-Bold-b"/>
     <use xlink:href="#DejaVuSans-Bold-45" transform="translate(45.703125 0)"/>
     <use xlink:href="#DejaVuSans-Bold-c" transform="translate(117.28125 0)"/>
    </g>
   </g>
   <g id="text_32">
    <!-- ~6x growth rate -->
    <g style="fill: #00542b" transform="translate(277.986712 335.599773) scale(0.14 -0.14)">
     <defs>
      <path id="DejaVuSans-5b" d="M 3513 3500 
L 2247 1797 
L 3578 0 
L 2900 0 
L 1881 1375 
L 863 0 
L 184 0 
L 1544 1831 
L 300 3500 
L 978 3500 
L 1906 2253 
L 2834 3500 
L 3513 3500 
z
" transform="scale(0.015625)"/>
     </defs>
     <use xlink:href="#DejaVuSans-61"/>
     <use xlink:href="#DejaVuSans-19" transform="translate(83.796875 0)"/>
     <use xlink:href="#DejaVuSans-5b" transform="translate(147.421875 0)"/>
     <use xlink:href="#DejaVuSans-3" transform="translate(206.609375 0)"/>
     <use xlink:href="#DejaVuSans-4a" transform="translate(238.390625 0)"/>
     <use xlink:href="#DejaVuSans-55" transform="translate(301.875 0)"/>
     <use xlink:href="#DejaVuSans-52" transform="translate(340.78125 0)"/>
     <use xlink:href="#DejaVuSans-5a" transform="translate(401.96875 0)"/>
     <use xlink:href="#DejaVuSans-57" transform="translate(483.75 0)"/>
     <use xlink:href="#DejaVuSans-4b" transform="translate(522.953125 0)"/>
     <use xlink:href="#DejaVuSans-3" transform="translate(586.328125 0)"/>
     <use xlink:href="#DejaVuSans-55" transform="translate(618.109375 0)"/>
     <use xlink:href="#DejaVuSans-44" transform="translate(659.21875 0)"/>
     <use xlink:href="#DejaVuSans-57" transform="translate(720.5 0)"/>
     <use xlink:href="#DejaVuSans-48" transform="translate(759.703125 0)"/>
    </g>
   </g>
  </g>
 </g>
 <defs>
  <clipPath id="p6762ff6acf">
   <rect x="78.367344" y="7.2" width="501.984" height="289.884358"/>
  </clipPath>
  <clipPath id="p45dec77708">
   <rect x="78.367344" y="322.75983" width="501.984" height="138.04017"/>
  </clipPath>
 </defs>
</svg>
