<?xml version="1.0" encoding="utf-8" standalone="no"?>
<!DOCTYPE svg PUBLIC "-//W3C//DTD SVG 1.1//EN"
  "http://www.w3.org/Graphics/SVG/1.1/DTD/svg11.dtd">
<svg xmlns:xlink="http://www.w3.org/1999/xlink" width="599.802906pt" height="341.337406pt" viewBox="0 0 599.802906 341.337406" xmlns="http://www.w3.org/2000/svg" version="1.1">
 <metadata>
  <rdf:RDF xmlns:dc="http://purl.org/dc/elements/1.1/" xmlns:cc="http://creativecommons.org/ns#" xmlns:rdf="http://www.w3.org/1999/02/22-rdf-syntax-ns#">
   <cc:Work>
    <dc:type rdf:resource="http://purl.org/dc/dcmitype/StillImage"/>
    <dc:date>2026-07-08T11:03:51.091018</dc:date>
    <dc:format>image/svg+xml</dc:format>
    <dc:creator>
     <cc:Agent>
      <dc:title>Matplotlib v3.11.0, https://matplotlib.org/</dc:title>
     </cc:Agent>
    </dc:creator>
   </cc:Work>
  </rdf:RDF>
 </metadata>
 <defs>
  <style type="text/css">*{stroke-linejoin: round; stroke-linecap: butt}</style>
 </defs>
 <g id="figure_1">
  <g id="patch_1">
   <path d="M -0 341.337406 
L 599.802906 341.337406 
L 599.802906 0 
L -0 0 
L -0 341.337406 
z
" style="fill: none"/>
  </g>
  <g id="axes_1">
   <g id="patch_2">
    <path d="M 60.378906 287.136 
L 592.602906 287.136 
L 592.602906 7.2 
L 60.378906 7.2 
L 60.378906 287.136 
z
" style="fill: none"/>
   </g>
   <g id="patch_3">
    <path d="M 84.570906 287.136 
L 137.948273 287.136 
L 137.948273 192.371778 
L 84.570906 192.371778 
z
" clip-path="url(#p19aa6e8b06)" style="fill: #007833"/>
   </g>
   <g id="patch_4">
    <path d="M 170.663433 287.136 
L 224.040799 287.136 
L 224.040799 190.642731 
L 170.663433 190.642731 
z
" clip-path="url(#p19aa6e8b06)" style="fill: #007833"/>
   </g>
   <g id="patch_5">
    <path d="M 256.75596 287.136 
L 310.133326 287.136 
L 310.133326 200.988087 
L 256.75596 200.988087 
z
" clip-path="url(#p19aa6e8b06)" style="fill: #007833"/>
   </g>
   <g id="patch_6">
    <path d="M 342.848486 287.136 
L 396.225853 287.136 
L 396.225853 170.564324 
L 342.848486 170.564324 
z
" clip-path="url(#p19aa6e8b06)" style="fill: #007833"/>
   </g>
   <g id="patch_7">
    <path d="M 428.941013 287.136 
L 482.31838 287.136 
L 482.31838 156.323087 
L 428.941013 156.323087 
z
" clip-path="url(#p19aa6e8b06)" style="fill: #007833"/>
   </g>
   <g id="patch_8">
    <path d="M 515.03354 287.136 
L 568.410906 287.136 
L 568.410906 79.998681 
L 515.03354 79.998681 
z
" clip-path="url(#p19aa6e8b06)" style="fill: #007833"/>
   </g>
   <g id="matplotlib.axis_1">
    <g id="xtick_1">
     <g id="line2d_1">
      <defs>
       <path id="m64fc4bfe4f" d="M 0 0 
L 0 3.5 
" style="stroke: #1e252b; stroke-width: 0.8"/>
      </defs>
      <g>
       <use xlink:href="#m64fc4bfe4f" x="111.25959" y="287.136" style="fill: #1e252b; stroke: #1e252b; stroke-width: 0.8"/>
      </g>
     </g>
     <g id="text_1">
      <!-- #15 -->
      <g style="fill: #1e252b" transform="translate(92.265371 307.811781) scale(0.18 -0.18)">
       <defs>
        <path id="DejaVuSans-6" d="M 3272 2816 
L 2363 2816 
L 2100 1772 
L 3016 1772 
L 3272 2816 
z
M 2803 4594 
L 2478 3297 
L 3391 3297 
L 3719 4594 
L 4219 4594 
L 3897 3297 
L 4872 3297 
L 4872 2816 
L 3775 2816 
L 3519 1772 
L 4513 1772 
L 4513 1294 
L 3397 1294 
L 3072 0 
L 2572 0 
L 2894 1294 
L 1978 1294 
L 1656 0 
L 1153 0 
L 1478 1294 
L 494 1294 
L 494 1772 
L 1594 1772 
L 1856 2816 
L 850 2816 
L 850 3297 
L 1978 3297 
L 2297 4594 
L 2803 4594 
z
" transform="scale(0.015625)"/>
        <path id="DejaVuSans-14" d="M 794 531 
L 1825 531 
L 1825 4091 
L 703 3866 
L 703 4441 
L 1819 4666 
L 2450 4666 
L 2450 531 
L 3481 531 
L 3481 0 
L 794 0 
L 794 531 
z
" transform="scale(0.015625)"/>
        <path id="DejaVuSans-18" d="M 691 4666 
L 3169 4666 
L 3169 4134 
L 1269 4134 
L 1269 2991 
Q 1406 3038 1543 3061 
Q 1681 3084 1819 3084 
Q 2600 3084 3056 2656 
Q 3513 2228 3513 1497 
Q 3513 744 3044 326 
Q 2575 -91 1722 -91 
Q 1428 -91 1123 -41 
Q 819 9 494 109 
L 494 744 
Q 775 591 1075 516 
Q 1375 441 1709 441 
Q 2250 441 2565 725 
Q 2881 1009 2881 1497 
Q 2881 1984 2565 2268 
Q 2250 2553 1709 2553 
Q 1456 2553 1204 2497 
Q 953 2441 691 2322 
L 691 4666 
z
" transform="scale(0.015625)"/>
       </defs>
       <use xlink:href="#DejaVuSans-6"/>
       <use xlink:href="#DejaVuSans-14" transform="translate(83.796875 0)"/>
       <use xlink:href="#DejaVuSans-18" transform="translate(147.421875 0)"/>
      </g>
     </g>
    </g>
    <g id="xtick_2">
     <g id="line2d_2">
      <g>
       <use xlink:href="#m64fc4bfe4f" x="197.352116" y="287.136" style="fill: #1e252b; stroke: #1e252b; stroke-width: 0.8"/>
      </g>
     </g>
     <g id="text_2">
      <!-- #22 -->
      <g style="fill: #1e252b" transform="translate(178.357897 307.811781) scale(0.18 -0.18)">
       <defs>
        <path id="DejaVuSans-15" d="M 1228 531 
L 3431 531 
L 3431 0 
L 469 0 
L 469 531 
Q 828 903 1448 1529 
Q 2069 2156 2228 2338 
Q 2531 2678 2651 2914 
Q 2772 3150 2772 3378 
Q 2772 3750 2511 3984 
Q 2250 4219 1831 4219 
Q 1534 4219 1204 4116 
Q 875 4013 500 3803 
L 500 4441 
Q 881 4594 1212 4672 
Q 1544 4750 1819 4750 
Q 2544 4750 2975 4387 
Q 3406 4025 3406 3419 
Q 3406 3131 3298 2873 
Q 3191 2616 2906 2266 
Q 2828 2175 2409 1742 
Q 1991 1309 1228 531 
z
" transform="scale(0.015625)"/>
       </defs>
       <use xlink:href="#DejaVuSans-6"/>
       <use xlink:href="#DejaVuSans-15" transform="translate(83.796875 0)"/>
       <use xlink:href="#DejaVuSans-15" transform="translate(147.421875 0)"/>
      </g>
     </g>
    </g>
    <g id="xtick_3">
     <g id="line2d_3">
      <g>
       <use xlink:href="#m64fc4bfe4f" x="283.444643" y="287.136" style="fill: #1e252b; stroke: #1e252b; stroke-width: 0.8"/>
      </g>
     </g>
     <g id="text_3">
      <!-- #24 -->
      <g style="fill: #1e252b" transform="translate(264.450424 307.811781) scale(0.18 -0.18)">
       <defs>
        <path id="DejaVuSans-17" d="M 2419 4116 
L 825 1625 
L 2419 1625 
L 2419 4116 
z
M 2253 4666 
L 3047 4666 
L 3047 1625 
L 3713 1625 
L 3713 1100 
L 3047 1100 
L 3047 0 
L 2419 0 
L 2419 1100 
L 313 1100 
L 313 1709 
L 2253 4666 
z
" transform="scale(0.015625)"/>
       </defs>
       <use xlink:href="#DejaVuSans-6"/>
       <use xlink:href="#DejaVuSans-15" transform="translate(83.796875 0)"/>
       <use xlink:href="#DejaVuSans-17" transform="translate(147.421875 0)"/>
      </g>
     </g>
    </g>
    <g id="xtick_4">
     <g id="line2d_4">
      <g>
       <use xlink:href="#m64fc4bfe4f" x="369.53717" y="287.136" style="fill: #1e252b; stroke: #1e252b; stroke-width: 0.8"/>
      </g>
     </g>
     <g id="text_4">
      <!-- #25 -->
      <g style="fill: #1e252b" transform="translate(350.542951 307.811781) scale(0.18 -0.18)">
       <use xlink:href="#DejaVuSans-6"/>
       <use xlink:href="#DejaVuSans-15" transform="translate(83.796875 0)"/>
       <use xlink:href="#DejaVuSans-18" transform="translate(147.421875 0)"/>
      </g>
     </g>
    </g>
    <g id="xtick_5">
     <g id="line2d_5">
      <g>
       <use xlink:href="#m64fc4bfe4f" x="455.629696" y="287.136" style="fill: #1e252b; stroke: #1e252b; stroke-width: 0.8"/>
      </g>
     </g>
     <g id="text_5">
      <!-- #26 -->
      <g style="fill: #1e252b" transform="translate(436.635478 307.811781) scale(0.18 -0.18)">
       <defs>
        <path id="DejaVuSans-19" d="M 2113 2584 
Q 1688 2584 1439 2293 
Q 1191 2003 1191 1497 
Q 1191 994 1439 701 
Q 1688 409 2113 409 
Q 2538 409 2786 701 
Q 3034 994 3034 1497 
Q 3034 2003 2786 2293 
Q 2538 2584 2113 2584 
z
M 3366 4563 
L 3366 3988 
Q 3128 4100 2886 4159 
Q 2644 4219 2406 4219 
Q 1781 4219 1451 3797 
Q 1122 3375 1075 2522 
Q 1259 2794 1537 2939 
Q 1816 3084 2150 3084 
Q 2853 3084 3261 2657 
Q 3669 2231 3669 1497 
Q 3669 778 3244 343 
Q 2819 -91 2113 -91 
Q 1303 -91 875 529 
Q 447 1150 447 2328 
Q 447 3434 972 4092 
Q 1497 4750 2381 4750 
Q 2619 4750 2861 4703 
Q 3103 4656 3366 4563 
z
" transform="scale(0.015625)"/>
       </defs>
       <use xlink:href="#DejaVuSans-6"/>
       <use xlink:href="#DejaVuSans-15" transform="translate(83.796875 0)"/>
       <use xlink:href="#DejaVuSans-19" transform="translate(147.421875 0)"/>
      </g>
     </g>
    </g>
    <g id="xtick_6">
     <g id="line2d_6">
      <g>
       <use xlink:href="#m64fc4bfe4f" x="541.722223" y="287.136" style="fill: #1e252b; stroke: #1e252b; stroke-width: 0.8"/>
      </g>
     </g>
     <g id="text_6">
      <!-- #27 -->
      <g style="fill: #1e252b" transform="translate(522.728004 307.811781) scale(0.18 -0.18)">
       <defs>
        <path id="DejaVuSans-1a" d="M 525 4666 
L 3525 4666 
L 3525 4397 
L 1831 0 
L 1172 0 
L 2766 4134 
L 525 4134 
L 525 4666 
z
" transform="scale(0.015625)"/>
       </defs>
       <use xlink:href="#DejaVuSans-6"/>
       <use xlink:href="#DejaVuSans-15" transform="translate(83.796875 0)"/>
       <use xlink:href="#DejaVuSans-1a" transform="translate(147.421875 0)"/>
      </g>
     </g>
    </g>
    <g id="text_7">
     <!-- growth run -->
     <g style="fill: #1e252b" transform="translate(277.208875 329.813187) scale(0.18 -0.18)">
      <defs>
       <path id="DejaVuSans-4a" d="M 2906 1791 
Q 2906 2416 2648 2759 
Q 2391 3103 1925 3103 
Q 1463 3103 1205 2759 
Q 947 2416 947 1791 
Q 947 1169 1205 825 
Q 1463 481 1925 481 
Q 2391 481 2648 825 
Q 2906 1169 2906 1791 
z
M 3481 434 
Q 3481 -459 3084 -895 
Q 2688 -1331 1869 -1331 
Q 1566 -1331 1297 -1286 
Q 1028 -1241 775 -1147 
L 775 -588 
Q 1028 -725 1275 -790 
Q 1522 -856 1778 -856 
Q 2344 -856 2625 -561 
Q 2906 -266 2906 331 
L 2906 616 
Q 2728 306 2450 153 
Q 2172 0 1784 0 
Q 1141 0 747 490 
Q 353 981 353 1791 
Q 353 2603 747 3093 
Q 1141 3584 1784 3584 
Q 2172 3584 2450 3431 
Q 2728 3278 2906 2969 
L 2906 3500 
L 3481 3500 
L 3481 434 
z
" transform="scale(0.015625)"/>
       <path id="DejaVuSans-55" d="M 2631 2963 
Q 2534 3019 2420 3045 
Q 2306 3072 2169 3072 
Q 1681 3072 1420 2755 
Q 1159 2438 1159 1844 
L 1159 0 
L 581 0 
L 581 3500 
L 1159 3500 
L 1159 2956 
Q 1341 3275 1631 3429 
Q 1922 3584 2338 3584 
Q 2397 3584 2469 3576 
Q 2541 3569 2628 3553 
L 2631 2963 
z
" transform="scale(0.015625)"/>
       <path id="DejaVuSans-52" d="M 1959 3097 
Q 1497 3097 1228 2736 
Q 959 2375 959 1747 
Q 959 1119 1226 758 
Q 1494 397 1959 397 
Q 2419 397 2687 759 
Q 2956 1122 2956 1747 
Q 2956 2369 2687 2733 
Q 2419 3097 1959 3097 
z
M 1959 3584 
Q 2709 3584 3137 3096 
Q 3566 2609 3566 1747 
Q 3566 888 3137 398 
Q 2709 -91 1959 -91 
Q 1206 -91 779 398 
Q 353 888 353 1747 
Q 353 2609 779 3096 
Q 1206 3584 1959 3584 
z
" transform="scale(0.015625)"/>
       <path id="DejaVuSans-5a" d="M 269 3500 
L 844 3500 
L 1563 769 
L 2278 3500 
L 2956 3500 
L 3675 769 
L 4391 3500 
L 4966 3500 
L 4050 0 
L 3372 0 
L 2619 2869 
L 1863 0 
L 1184 0 
L 269 3500 
z
" transform="scale(0.015625)"/>
       <path id="DejaVuSans-57" d="M 1172 4494 
L 1172 3500 
L 2356 3500 
L 2356 3053 
L 1172 3053 
L 1172 1153 
Q 1172 725 1289 603 
Q 1406 481 1766 481 
L 2356 481 
L 2356 0 
L 1766 0 
Q 1100 0 847 248 
Q 594 497 594 1153 
L 594 3053 
L 172 3053 
L 172 3500 
L 594 3500 
L 594 4494 
L 1172 4494 
z
" transform="scale(0.015625)"/>
       <path id="DejaVuSans-4b" d="M 3513 2113 
L 3513 0 
L 2938 0 
L 2938 2094 
Q 2938 2591 2744 2837 
Q 2550 3084 2163 3084 
Q 1697 3084 1428 2787 
Q 1159 2491 1159 1978 
L 1159 0 
L 581 0 
L 581 4863 
L 1159 4863 
L 1159 2956 
Q 1366 3272 1645 3428 
Q 1925 3584 2291 3584 
Q 2894 3584 3203 3211 
Q 3513 2838 3513 2113 
z
" transform="scale(0.015625)"/>
       <path id="DejaVuSans-3" transform="scale(0.015625)"/>
       <path id="DejaVuSans-58" d="M 544 1381 
L 544 3500 
L 1119 3500 
L 1119 1403 
Q 1119 906 1312 657 
Q 1506 409 1894 409 
Q 2359 409 2629 706 
Q 2900 1003 2900 1516 
L 2900 3500 
L 3475 3500 
L 3475 0 
L 2900 0 
L 2900 538 
Q 2691 219 2414 64 
Q 2138 -91 1772 -91 
Q 1169 -91 856 284 
Q 544 659 544 1381 
z
M 1991 3584 
L 1991 3584 
z
" transform="scale(0.015625)"/>
       <path id="DejaVuSans-51" d="M 3513 2113 
L 3513 0 
L 2938 0 
L 2938 2094 
Q 2938 2591 2744 2837 
Q 2550 3084 2163 3084 
Q 1697 3084 1428 2787 
Q 1159 2491 1159 1978 
L 1159 0 
L 581 0 
L 581 3500 
L 1159 3500 
L 1159 2956 
Q 1366 3272 1645 3428 
Q 1925 3584 2291 3584 
Q 2894 3584 3203 3211 
Q 3513 2838 3513 2113 
z
" transform="scale(0.015625)"/>
      </defs>
      <use xlink:href="#DejaVuSans-4a"/>
      <use xlink:href="#DejaVuSans-55" transform="translate(63.484375 0)"/>
      <use xlink:href="#DejaVuSans-52" transform="translate(102.390625 0)"/>
      <use xlink:href="#DejaVuSans-5a" transform="translate(163.578125 0)"/>
      <use xlink:href="#DejaVuSans-57" transform="translate(245.359375 0)"/>
      <use xlink:href="#DejaVuSans-4b" transform="translate(284.5625 0)"/>
      <use xlink:href="#DejaVuSans-3" transform="translate(347.9375 0)"/>
      <use xlink:href="#DejaVuSans-55" transform="translate(379.71875 0)"/>
      <use xlink:href="#DejaVuSans-58" transform="translate(420.828125 0)"/>
      <use xlink:href="#DejaVuSans-51" transform="translate(484.203125 0)"/>
     </g>
    </g>
   </g>
   <g id="matplotlib.axis_2">
    <g id="ytick_1">
     <g id="line2d_7">
      <defs>
       <path id="mf8ffe508bf" d="M 0 0 
L -3.5 0 
" style="stroke: #1e252b; stroke-width: 0.8"/>
      </defs>
      <g>
       <use xlink:href="#mf8ffe508bf" x="60.378906" y="287.136" style="fill: #1e252b; stroke: #1e252b; stroke-width: 0.8"/>
      </g>
     </g>
     <g id="text_8">
      <!-- 0 -->
      <g style="fill: #1e252b" transform="translate(41.290156 294.353773) scale(0.19 -0.19)">
       <defs>
        <path id="DejaVuSans-13" d="M 2034 4250 
Q 1547 4250 1301 3770 
Q 1056 3291 1056 2328 
Q 1056 1369 1301 889 
Q 1547 409 2034 409 
Q 2525 409 2770 889 
Q 3016 1369 3016 2328 
Q 3016 3291 2770 3770 
Q 2525 4250 2034 4250 
z
M 2034 4750 
Q 2819 4750 3233 4129 
Q 3647 3509 3647 2328 
Q 3647 1150 3233 529 
Q 2819 -91 2034 -91 
Q 1250 -91 836 529 
Q 422 1150 422 2328 
Q 422 3509 836 4129 
Q 1250 4750 2034 4750 
z
" transform="scale(0.015625)"/>
       </defs>
       <use xlink:href="#DejaVuSans-13"/>
      </g>
     </g>
    </g>
    <g id="ytick_2">
     <g id="line2d_8">
      <g>
       <use xlink:href="#mf8ffe508bf" x="60.378906" y="236.238545" style="fill: #1e252b; stroke: #1e252b; stroke-width: 0.8"/>
      </g>
     </g>
     <g id="text_9">
      <!-- 10 -->
      <g style="fill: #1e252b" transform="translate(29.201406 243.456319) scale(0.19 -0.19)">
       <use xlink:href="#DejaVuSans-14"/>
       <use xlink:href="#DejaVuSans-13" transform="translate(63.625 0)"/>
      </g>
     </g>
    </g>
    <g id="ytick_3">
     <g id="line2d_9">
      <g>
       <use xlink:href="#mf8ffe508bf" x="60.378906" y="185.341091" style="fill: #1e252b; stroke: #1e252b; stroke-width: 0.8"/>
      </g>
     </g>
     <g id="text_10">
      <!-- 20 -->
      <g style="fill: #1e252b" transform="translate(29.201406 192.558864) scale(0.19 -0.19)">
       <use xlink:href="#DejaVuSans-15"/>
       <use xlink:href="#DejaVuSans-13" transform="translate(63.625 0)"/>
      </g>
     </g>
    </g>
    <g id="ytick_4">
     <g id="line2d_10">
      <g>
       <use xlink:href="#mf8ffe508bf" x="60.378906" y="134.443636" style="fill: #1e252b; stroke: #1e252b; stroke-width: 0.8"/>
      </g>
     </g>
     <g id="text_11">
      <!-- 30 -->
      <g style="fill: #1e252b" transform="translate(29.201406 141.66141) scale(0.19 -0.19)">
       <defs>
        <path id="DejaVuSans-16" d="M 2597 2516 
Q 3050 2419 3304 2112 
Q 3559 1806 3559 1356 
Q 3559 666 3084 287 
Q 2609 -91 1734 -91 
Q 1441 -91 1130 -33 
Q 819 25 488 141 
L 488 750 
Q 750 597 1062 519 
Q 1375 441 1716 441 
Q 2309 441 2620 675 
Q 2931 909 2931 1356 
Q 2931 1769 2642 2001 
Q 2353 2234 1838 2234 
L 1294 2234 
L 1294 2753 
L 1863 2753 
Q 2328 2753 2575 2939 
Q 2822 3125 2822 3475 
Q 2822 3834 2567 4026 
Q 2313 4219 1838 4219 
Q 1578 4219 1281 4162 
Q 984 4106 628 3988 
L 628 4550 
Q 988 4650 1302 4700 
Q 1616 4750 1894 4750 
Q 2613 4750 3031 4423 
Q 3450 4097 3450 3541 
Q 3450 3153 3228 2886 
Q 3006 2619 2597 2516 
z
" transform="scale(0.015625)"/>
       </defs>
       <use xlink:href="#DejaVuSans-16"/>
       <use xlink:href="#DejaVuSans-13" transform="translate(63.625 0)"/>
      </g>
     </g>
    </g>
    <g id="ytick_5">
     <g id="line2d_11">
      <g>
       <use xlink:href="#mf8ffe508bf" x="60.378906" y="83.546182" style="fill: #1e252b; stroke: #1e252b; stroke-width: 0.8"/>
      </g>
     </g>
     <g id="text_12">
      <!-- 40 -->
      <g style="fill: #1e252b" transform="translate(29.201406 90.763955) scale(0.19 -0.19)">
       <use xlink:href="#DejaVuSans-17"/>
       <use xlink:href="#DejaVuSans-13" transform="translate(63.625 0)"/>
      </g>
     </g>
    </g>
    <g id="ytick_6">
     <g id="line2d_12">
      <g>
       <use xlink:href="#mf8ffe508bf" x="60.378906" y="32.648727" style="fill: #1e252b; stroke: #1e252b; stroke-width: 0.8"/>
      </g>
     </g>
     <g id="text_13">
      <!-- 50 -->
      <g style="fill: #1e252b" transform="translate(29.201406 39.866501) scale(0.19 -0.19)">
       <use xlink:href="#DejaVuSans-18"/>
       <use xlink:href="#DejaVuSans-13" transform="translate(63.625 0)"/>
      </g>
     </g>
    </g>
    <g id="text_14">
     <!-- length scale (nm) -->
     <g style="fill: #1e252b" transform="translate(20.877188 226.259719) rotate(-90) scale(0.18 -0.18)">
      <defs>
       <path id="DejaVuSans-4f" d="M 603 4863 
L 1178 4863 
L 1178 0 
L 603 0 
L 603 4863 
z
" transform="scale(0.015625)"/>
       <path id="DejaVuSans-48" d="M 3597 1894 
L 3597 1613 
L 953 1613 
Q 991 1019 1311 708 
Q 1631 397 2203 397 
Q 2534 397 2845 478 
Q 3156 559 3463 722 
L 3463 178 
Q 3153 47 2828 -22 
Q 2503 -91 2169 -91 
Q 1331 -91 842 396 
Q 353 884 353 1716 
Q 353 2575 817 3079 
Q 1281 3584 2069 3584 
Q 2775 3584 3186 3129 
Q 3597 2675 3597 1894 
z
M 3022 2063 
Q 3016 2534 2758 2815 
Q 2500 3097 2075 3097 
Q 1594 3097 1305 2825 
Q 1016 2553 972 2059 
L 3022 2063 
z
" transform="scale(0.015625)"/>
       <path id="DejaVuSans-56" d="M 2834 3397 
L 2834 2853 
Q 2591 2978 2328 3040 
Q 2066 3103 1784 3103 
Q 1356 3103 1142 2972 
Q 928 2841 928 2578 
Q 928 2378 1081 2264 
Q 1234 2150 1697 2047 
L 1894 2003 
Q 2506 1872 2764 1633 
Q 3022 1394 3022 966 
Q 3022 478 2636 193 
Q 2250 -91 1575 -91 
Q 1294 -91 989 -36 
Q 684 19 347 128 
L 347 722 
Q 666 556 975 473 
Q 1284 391 1588 391 
Q 1994 391 2212 530 
Q 2431 669 2431 922 
Q 2431 1156 2273 1281 
Q 2116 1406 1581 1522 
L 1381 1569 
Q 847 1681 609 1914 
Q 372 2147 372 2553 
Q 372 3047 722 3315 
Q 1072 3584 1716 3584 
Q 2034 3584 2315 3537 
Q 2597 3491 2834 3397 
z
" transform="scale(0.015625)"/>
       <path id="DejaVuSans-46" d="M 3122 3366 
L 3122 2828 
Q 2878 2963 2633 3030 
Q 2388 3097 2138 3097 
Q 1578 3097 1268 2742 
Q 959 2388 959 1747 
Q 959 1106 1268 751 
Q 1578 397 2138 397 
Q 2388 397 2633 464 
Q 2878 531 3122 666 
L 3122 134 
Q 2881 22 2623 -34 
Q 2366 -91 2075 -91 
Q 1284 -91 818 406 
Q 353 903 353 1747 
Q 353 2603 823 3093 
Q 1294 3584 2113 3584 
Q 2378 3584 2631 3529 
Q 2884 3475 3122 3366 
z
" transform="scale(0.015625)"/>
       <path id="DejaVuSans-44" d="M 2194 1759 
Q 1497 1759 1228 1600 
Q 959 1441 959 1056 
Q 959 750 1161 570 
Q 1363 391 1709 391 
Q 2188 391 2477 730 
Q 2766 1069 2766 1631 
L 2766 1759 
L 2194 1759 
z
M 3341 1997 
L 3341 0 
L 2766 0 
L 2766 531 
Q 2569 213 2275 61 
Q 1981 -91 1556 -91 
Q 1019 -91 701 211 
Q 384 513 384 1019 
Q 384 1609 779 1909 
Q 1175 2209 1959 2209 
L 2766 2209 
L 2766 2266 
Q 2766 2663 2505 2880 
Q 2244 3097 1772 3097 
Q 1472 3097 1187 3025 
Q 903 2953 641 2809 
L 641 3341 
Q 956 3463 1253 3523 
Q 1550 3584 1831 3584 
Q 2591 3584 2966 3190 
Q 3341 2797 3341 1997 
z
" transform="scale(0.015625)"/>
       <path id="DejaVuSans-b" d="M 1984 4856 
Q 1566 4138 1362 3434 
Q 1159 2731 1159 2009 
Q 1159 1288 1364 580 
Q 1569 -128 1984 -844 
L 1484 -844 
Q 1016 -109 783 600 
Q 550 1309 550 2009 
Q 550 2706 781 3412 
Q 1013 4119 1484 4856 
L 1984 4856 
z
" transform="scale(0.015625)"/>
       <path id="DejaVuSans-50" d="M 3328 2828 
Q 3544 3216 3844 3400 
Q 4144 3584 4550 3584 
Q 5097 3584 5394 3201 
Q 5691 2819 5691 2113 
L 5691 0 
L 5113 0 
L 5113 2094 
Q 5113 2597 4934 2840 
Q 4756 3084 4391 3084 
Q 3944 3084 3684 2787 
Q 3425 2491 3425 1978 
L 3425 0 
L 2847 0 
L 2847 2094 
Q 2847 2600 2669 2842 
Q 2491 3084 2119 3084 
Q 1678 3084 1418 2786 
Q 1159 2488 1159 1978 
L 1159 0 
L 581 0 
L 581 3500 
L 1159 3500 
L 1159 2956 
Q 1356 3278 1631 3431 
Q 1906 3584 2284 3584 
Q 2666 3584 2933 3390 
Q 3200 3197 3328 2828 
z
" transform="scale(0.015625)"/>
       <path id="DejaVuSans-c" d="M 513 4856 
L 1013 4856 
Q 1481 4119 1714 3412 
Q 1947 2706 1947 2009 
Q 1947 1309 1714 600 
Q 1481 -109 1013 -844 
L 513 -844 
Q 928 -128 1133 580 
Q 1338 1288 1338 2009 
Q 1338 2731 1133 3434 
Q 928 4138 513 4856 
z
" transform="scale(0.015625)"/>
      </defs>
      <use xlink:href="#DejaVuSans-4f"/>
      <use xlink:href="#DejaVuSans-48" transform="translate(27.78125 0)"/>
      <use xlink:href="#DejaVuSans-51" transform="translate(89.3125 0)"/>
      <use xlink:href="#DejaVuSans-4a" transform="translate(152.6875 0)"/>
      <use xlink:href="#DejaVuSans-57" transform="translate(216.171875 0)"/>
      <use xlink:href="#DejaVuSans-4b" transform="translate(255.375 0)"/>
      <use xlink:href="#DejaVuSans-3" transform="translate(318.75 0)"/>
      <use xlink:href="#DejaVuSans-56" transform="translate(350.53125 0)"/>
      <use xlink:href="#DejaVuSans-46" transform="translate(402.625 0)"/>
      <use xlink:href="#DejaVuSans-44" transform="translate(457.609375 0)"/>
      <use xlink:href="#DejaVuSans-4f" transform="translate(518.890625 0)"/>
      <use xlink:href="#DejaVuSans-48" transform="translate(546.671875 0)"/>
      <use xlink:href="#DejaVuSans-3" transform="translate(608.203125 0)"/>
      <use xlink:href="#DejaVuSans-b" transform="translate(639.984375 0)"/>
      <use xlink:href="#DejaVuSans-51" transform="translate(679 0)"/>
      <use xlink:href="#DejaVuSans-50" transform="translate(742.375 0)"/>
      <use xlink:href="#DejaVuSans-c" transform="translate(839.78125 0)"/>
     </g>
    </g>
   </g>
   <g id="LineCollection_1">
    <path d="M 111.25959 196.161067 
L 111.25959 188.582488 
" clip-path="url(#p19aa6e8b06)" style="fill: none; stroke: #1e252b; stroke-width: 1.6"/>
    <path d="M 197.352116 196.850967 
L 197.352116 184.434494 
" clip-path="url(#p19aa6e8b06)" style="fill: none; stroke: #1e252b; stroke-width: 1.6"/>
    <path d="M 283.444643 205.83858 
L 283.444643 196.137594 
" clip-path="url(#p19aa6e8b06)" style="fill: none; stroke: #1e252b; stroke-width: 1.6"/>
    <path d="M 369.53717 176.968177 
L 369.53717 164.160471 
" clip-path="url(#p19aa6e8b06)" style="fill: none; stroke: #1e252b; stroke-width: 1.6"/>
    <path d="M 455.629696 164.564213 
L 455.629696 148.081961 
" clip-path="url(#p19aa6e8b06)" style="fill: none; stroke: #1e252b; stroke-width: 1.6"/>
    <path d="M 541.722223 93.053156 
L 541.722223 66.944206 
" clip-path="url(#p19aa6e8b06)" style="fill: none; stroke: #1e252b; stroke-width: 1.6"/>
   </g>
   <g id="line2d_13">
    <defs>
     <path id="me4137500af" d="M 4 0 
L -4 -0 
" style="stroke: #1e252b"/>
    </defs>
    <g clip-path="url(#p19aa6e8b06)">
     <use xlink:href="#me4137500af" x="111.25959" y="196.161067" style="fill: #1f77b4; stroke: #1e252b"/>
     <use xlink:href="#me4137500af" x="197.352116" y="196.850967" style="fill: #1f77b4; stroke: #1e252b"/>
     <use xlink:href="#me4137500af" x="283.444643" y="205.83858" style="fill: #1f77b4; stroke: #1e252b"/>
     <use xlink:href="#me4137500af" x="369.53717" y="176.968177" style="fill: #1f77b4; stroke: #1e252b"/>
     <use xlink:href="#me4137500af" x="455.629696" y="164.564213" style="fill: #1f77b4; stroke: #1e252b"/>
     <use xlink:href="#me4137500af" x="541.722223" y="93.053156" style="fill: #1f77b4; stroke: #1e252b"/>
    </g>
   </g>
   <g id="line2d_14">
    <g clip-path="url(#p19aa6e8b06)">
     <use xlink:href="#me4137500af" x="111.25959" y="188.582488" style="fill: #1f77b4; stroke: #1e252b"/>
     <use xlink:href="#me4137500af" x="197.352116" y="184.434494" style="fill: #1f77b4; stroke: #1e252b"/>
     <use xlink:href="#me4137500af" x="283.444643" y="196.137594" style="fill: #1f77b4; stroke: #1e252b"/>
     <use xlink:href="#me4137500af" x="369.53717" y="164.160471" style="fill: #1f77b4; stroke: #1e252b"/>
     <use xlink:href="#me4137500af" x="455.629696" y="148.081961" style="fill: #1f77b4; stroke: #1e252b"/>
     <use xlink:href="#me4137500af" x="541.722223" y="66.944206" style="fill: #1f77b4; stroke: #1e252b"/>
    </g>
   </g>
   <g id="patch_9">
    <path d="M 60.378906 287.136 
L 60.378906 7.2 
" style="fill: none; stroke: #5b6770; stroke-width: 1.6; stroke-linejoin: miter; stroke-linecap: square"/>
   </g>
   <g id="patch_10">
    <path d="M 60.378906 287.136 
L 592.602906 287.136 
" style="fill: none; stroke: #5b6770; stroke-width: 1.6; stroke-linejoin: miter; stroke-linecap: square"/>
   </g>
   <g id="legend_1">
    <g id="PathCollection_1">
     <defs>
      <path id="ma92bb915f1" d="M -0 9.219544 
L 9.219544 0 
L 0 -9.219544 
L -9.219544 -0 
z
" style="stroke: #1e252b; stroke-width: 1.3"/>
     </defs>
     <g>
      <use xlink:href="#ma92bb915f1" x="83.178906" y="23.97" style="fill: #e69f00; stroke: #1e252b; stroke-width: 1.3"/>
     </g>
    </g>
    <g id="text_15">
     <!-- XRD coherence length L$_{002}$ -->
     <g transform="translate(99.378906 27.12) scale(0.12 -0.12)">
      <defs>
       <path id="DejaVuSans-3b" d="M 403 4666 
L 1081 4666 
L 2241 2931 
L 3406 4666 
L 4084 4666 
L 2584 2425 
L 4184 0 
L 3506 0 
L 2194 1984 
L 872 0 
L 191 0 
L 1856 2491 
L 403 4666 
z
" transform="scale(0.015625)"/>
       <path id="DejaVuSans-35" d="M 2841 2188 
Q 3044 2119 3236 1894 
Q 3428 1669 3622 1275 
L 4263 0 
L 3584 0 
L 2988 1197 
Q 2756 1666 2539 1819 
Q 2322 1972 1947 1972 
L 1259 1972 
L 1259 0 
L 628 0 
L 628 4666 
L 2053 4666 
Q 2853 4666 3247 4331 
Q 3641 3997 3641 3322 
Q 3641 2881 3436 2590 
Q 3231 2300 2841 2188 
z
M 1259 4147 
L 1259 2491 
L 2053 2491 
Q 2509 2491 2742 2702 
Q 2975 2913 2975 3322 
Q 2975 3731 2742 3939 
Q 2509 4147 2053 4147 
L 1259 4147 
z
" transform="scale(0.015625)"/>
       <path id="DejaVuSans-27" d="M 1259 4147 
L 1259 519 
L 2022 519 
Q 2988 519 3436 956 
Q 3884 1394 3884 2338 
Q 3884 3275 3436 3711 
Q 2988 4147 2022 4147 
L 1259 4147 
z
M 628 4666 
L 1925 4666 
Q 3281 4666 3915 4102 
Q 4550 3538 4550 2338 
Q 4550 1131 3912 565 
Q 3275 0 1925 0 
L 628 0 
L 628 4666 
z
" transform="scale(0.015625)"/>
       <path id="DejaVuSans-2f" d="M 628 4666 
L 1259 4666 
L 1259 531 
L 3531 531 
L 3531 0 
L 628 0 
L 628 4666 
z
" transform="scale(0.015625)"/>
      </defs>
      <use xlink:href="#DejaVuSans-3b" transform="translate(0 0.015625)"/>
      <use xlink:href="#DejaVuSans-35" transform="translate(68.505859 0.015625)"/>
      <use xlink:href="#DejaVuSans-27" transform="translate(137.988281 0.015625)"/>
      <use xlink:href="#DejaVuSans-3" transform="translate(214.990234 0.015625)"/>
      <use xlink:href="#DejaVuSans-46" transform="translate(246.777344 0.015625)"/>
      <use xlink:href="#DejaVuSans-52" transform="translate(301.757812 0.015625)"/>
      <use xlink:href="#DejaVuSans-4b" transform="translate(362.939453 0.015625)"/>
      <use xlink:href="#DejaVuSans-48" transform="translate(426.318359 0.015625)"/>
      <use xlink:href="#DejaVuSans-55" transform="translate(487.841797 0.015625)"/>
      <use xlink:href="#DejaVuSans-48" transform="translate(526.955078 0.015625)"/>
      <use xlink:href="#DejaVuSans-51" transform="translate(588.478516 0.015625)"/>
      <use xlink:href="#DejaVuSans-46" transform="translate(651.857422 0.015625)"/>
      <use xlink:href="#DejaVuSans-48" transform="translate(706.837891 0.015625)"/>
      <use xlink:href="#DejaVuSans-3" transform="translate(768.361328 0.015625)"/>
      <use xlink:href="#DejaVuSans-4f" transform="translate(800.148438 0.015625)"/>
      <use xlink:href="#DejaVuSans-48" transform="translate(827.931641 0.015625)"/>
      <use xlink:href="#DejaVuSans-51" transform="translate(889.455078 0.015625)"/>
      <use xlink:href="#DejaVuSans-4a" transform="translate(952.833984 0.015625)"/>
      <use xlink:href="#DejaVuSans-57" transform="translate(1016.310547 0.015625)"/>
      <use xlink:href="#DejaVuSans-4b" transform="translate(1055.519531 0.015625)"/>
      <use xlink:href="#DejaVuSans-3" transform="translate(1118.898438 0.015625)"/>
      <use xlink:href="#DejaVuSans-2f" transform="translate(1150.685547 0.015625)"/>
      <use xlink:href="#DejaVuSans-13" transform="translate(1207.355469 -14.984326) scale(0.7)"/>
      <use xlink:href="#DejaVuSans-13" transform="translate(1251.891602 -14.984326) scale(0.7)"/>
      <use xlink:href="#DejaVuSans-15" transform="translate(1296.427734 -14.984326) scale(0.7)"/>
     </g>
    </g>
    <g id="patch_11">
     <path d="M 71.178906 45.137812 
L 95.178906 45.137812 
L 95.178906 36.737812 
L 71.178906 36.737812 
z
" style="fill: #007833"/>
    </g>
    <g id="text_16">
     <!-- AFM surface feature Ø (median, 1 µm scans) -->
     <g transform="translate(99.378906 45.137812) scale(0.12 -0.12)">
      <defs>
       <path id="DejaVuSans-24" d="M 2188 4044 
L 1331 1722 
L 3047 1722 
L 2188 4044 
z
M 1831 4666 
L 2547 4666 
L 4325 0 
L 3669 0 
L 3244 1197 
L 1141 1197 
L 716 0 
L 50 0 
L 1831 4666 
z
" transform="scale(0.015625)"/>
       <path id="DejaVuSans-29" d="M 628 4666 
L 3309 4666 
L 3309 4134 
L 1259 4134 
L 1259 2759 
L 3109 2759 
L 3109 2228 
L 1259 2228 
L 1259 0 
L 628 0 
L 628 4666 
z
" transform="scale(0.015625)"/>
       <path id="DejaVuSans-30" d="M 628 4666 
L 1569 4666 
L 2759 1491 
L 3956 4666 
L 4897 4666 
L 4897 0 
L 4281 0 
L 4281 4097 
L 3078 897 
L 2444 897 
L 1241 4097 
L 1241 0 
L 628 0 
L 628 4666 
z
" transform="scale(0.015625)"/>
       <path id="DejaVuSans-49" d="M 2375 4863 
L 2375 4384 
L 1825 4384 
Q 1516 4384 1395 4259 
Q 1275 4134 1275 3809 
L 1275 3500 
L 2222 3500 
L 2222 3053 
L 1275 3053 
L 1275 0 
L 697 0 
L 697 3053 
L 147 3053 
L 147 3500 
L 697 3500 
L 697 3744 
Q 697 4328 969 4595 
Q 1241 4863 1831 4863 
L 2375 4863 
z
" transform="scale(0.015625)"/>
       <path id="DejaVuSans-9a" d="M 3769 3475 
L 1528 831 
Q 1722 631 1973 526 
Q 2225 422 2522 422 
Q 3209 422 3611 934 
Q 4013 1447 4013 2328 
Q 4013 2678 3952 2965 
Q 3891 3253 3769 3475 
z
M 3513 3828 
Q 3322 4028 3070 4133 
Q 2819 4238 2522 4238 
Q 1834 4238 1429 3725 
Q 1025 3213 1025 2328 
Q 1025 1978 1086 1684 
Q 1147 1391 1269 1178 
L 3513 3828 
z
M 850 684 
Q 606 1003 482 1415 
Q 359 1828 359 2328 
Q 359 3434 948 4092 
Q 1538 4750 2522 4750 
Q 2928 4750 3273 4629 
Q 3619 4509 3891 4275 
L 4397 4872 
L 4716 4594 
L 4184 3975 
Q 4428 3653 4553 3237 
Q 4678 2822 4678 2328 
Q 4678 1225 4090 567 
Q 3503 -91 2522 -91 
Q 2122 -91 1776 26 
Q 1431 144 1147 378 
L 641 -219 
L 319 56 
L 850 684 
z
" transform="scale(0.015625)"/>
       <path id="DejaVuSans-47" d="M 2906 2969 
L 2906 4863 
L 3481 4863 
L 3481 0 
L 2906 0 
L 2906 525 
Q 2725 213 2448 61 
Q 2172 -91 1784 -91 
Q 1150 -91 751 415 
Q 353 922 353 1747 
Q 353 2572 751 3078 
Q 1150 3584 1784 3584 
Q 2172 3584 2448 3432 
Q 2725 3281 2906 2969 
z
M 947 1747 
Q 947 1113 1208 752 
Q 1469 391 1925 391 
Q 2381 391 2643 752 
Q 2906 1113 2906 1747 
Q 2906 2381 2643 2742 
Q 2381 3103 1925 3103 
Q 1469 3103 1208 2742 
Q 947 2381 947 1747 
z
" transform="scale(0.015625)"/>
       <path id="DejaVuSans-4c" d="M 603 3500 
L 1178 3500 
L 1178 0 
L 603 0 
L 603 3500 
z
M 603 4863 
L 1178 4863 
L 1178 4134 
L 603 4134 
L 603 4863 
z
" transform="scale(0.015625)"/>
       <path id="DejaVuSans-f" d="M 750 794 
L 1409 794 
L 1409 256 
L 897 -744 
L 494 -744 
L 750 256 
L 750 794 
z
" transform="scale(0.015625)"/>
       <path id="DejaVuSans-77" d="M 544 -1331 
L 544 3500 
L 1119 3500 
L 1119 1325 
Q 1119 872 1334 640 
Q 1550 409 1972 409 
Q 2434 409 2667 671 
Q 2900 934 2900 1459 
L 2900 3500 
L 3475 3500 
L 3475 806 
Q 3475 619 3529 530 
Q 3584 441 3700 441 
Q 3728 441 3778 458 
Q 3828 475 3916 513 
L 3916 50 
Q 3788 -22 3673 -56 
Q 3559 -91 3450 -91 
Q 3234 -91 3106 31 
Q 2978 153 2931 403 
Q 2775 156 2548 32 
Q 2322 -91 2016 -91 
Q 1697 -91 1473 31 
Q 1250 153 1119 397 
L 1119 -1331 
L 544 -1331 
z
" transform="scale(0.015625)"/>
      </defs>
      <use xlink:href="#DejaVuSans-24"/>
      <use xlink:href="#DejaVuSans-29" transform="translate(68.40625 0)"/>
      <use xlink:href="#DejaVuSans-30" transform="translate(125.921875 0)"/>
      <use xlink:href="#DejaVuSans-3" transform="translate(212.203125 0)"/>
      <use xlink:href="#DejaVuSans-56" transform="translate(243.984375 0)"/>
      <use xlink:href="#DejaVuSans-58" transform="translate(296.078125 0)"/>
      <use xlink:href="#DejaVuSans-55" transform="translate(359.453125 0)"/>
      <use xlink:href="#DejaVuSans-49" transform="translate(400.5625 0)"/>
      <use xlink:href="#DejaVuSans-44" transform="translate(435.765625 0)"/>
      <use xlink:href="#DejaVuSans-46" transform="translate(497.046875 0)"/>
      <use xlink:href="#DejaVuSans-48" transform="translate(552.03125 0)"/>
      <use xlink:href="#DejaVuSans-3" transform="translate(613.5625 0)"/>
      <use xlink:href="#DejaVuSans-49" transform="translate(645.34375 0)"/>
      <use xlink:href="#DejaVuSans-48" transform="translate(680.546875 0)"/>
      <use xlink:href="#DejaVuSans-44" transform="translate(742.078125 0)"/>
      <use xlink:href="#DejaVuSans-57" transform="translate(803.359375 0)"/>
      <use xlink:href="#DejaVuSans-58" transform="translate(842.5625 0)"/>
      <use xlink:href="#DejaVuSans-55" transform="translate(905.9375 0)"/>
      <use xlink:href="#DejaVuSans-48" transform="translate(944.84375 0)"/>
      <use xlink:href="#DejaVuSans-3" transform="translate(1006.375 0)"/>
      <use xlink:href="#DejaVuSans-9a" transform="translate(1038.15625 0)"/>
      <use xlink:href="#DejaVuSans-3" transform="translate(1116.875 0)"/>
      <use xlink:href="#DejaVuSans-b" transform="translate(1148.65625 0)"/>
      <use xlink:href="#DejaVuSans-50" transform="translate(1187.671875 0)"/>
      <use xlink:href="#DejaVuSans-48" transform="translate(1285.078125 0)"/>
      <use xlink:href="#DejaVuSans-47" transform="translate(1346.609375 0)"/>
      <use xlink:href="#DejaVuSans-4c" transform="translate(1410.09375 0)"/>
      <use xlink:href="#DejaVuSans-44" transform="translate(1437.875 0)"/>
      <use xlink:href="#DejaVuSans-51" transform="translate(1499.15625 0)"/>
      <use xlink:href="#DejaVuSans-f" transform="translate(1562.53125 0)"/>
      <use xlink:href="#DejaVuSans-3" transform="translate(1594.3125 0)"/>
      <use xlink:href="#DejaVuSans-14" transform="translate(1626.09375 0)"/>
      <use xlink:href="#DejaVuSans-3" transform="translate(1689.71875 0)"/>
      <use xlink:href="#DejaVuSans-77" transform="translate(1721.5 0)"/>
      <use xlink:href="#DejaVuSans-50" transform="translate(1785.125 0)"/>
      <use xlink:href="#DejaVuSans-3" transform="translate(1882.53125 0)"/>
      <use xlink:href="#DejaVuSans-56" transform="translate(1914.3125 0)"/>
      <use xlink:href="#DejaVuSans-46" transform="translate(1966.40625 0)"/>
      <use xlink:href="#DejaVuSans-44" transform="translate(2021.390625 0)"/>
      <use xlink:href="#DejaVuSans-51" transform="translate(2082.671875 0)"/>
      <use xlink:href="#DejaVuSans-56" transform="translate(2146.046875 0)"/>
      <use xlink:href="#DejaVuSans-c" transform="translate(2198.140625 0)"/>
     </g>
    </g>
   </g>
   <g id="PathCollection_2">
    <g clip-path="url(#p19aa6e8b06)">
     <use xlink:href="#ma92bb915f1" x="111.25959" y="139.186175" style="fill: #e69f00; stroke: #1e252b; stroke-width: 1.3"/>
     <use xlink:href="#ma92bb915f1" x="197.352116" y="138.311156" style="fill: #e69f00; stroke: #1e252b; stroke-width: 1.3"/>
     <use xlink:href="#ma92bb915f1" x="283.444643" y="140.451908" style="fill: #e69f00; stroke: #1e252b; stroke-width: 1.3"/>
     <use xlink:href="#ma92bb915f1" x="455.629696" y="142.144767" style="fill: #e69f00; stroke: #1e252b; stroke-width: 1.3"/>
    </g>
   </g>
  </g>
 </g>
 <defs>
  <clipPath id="p19aa6e8b06">
   <rect x="60.378906" y="7.2" width="532.224" height="279.936"/>
  </clipPath>
 </defs>
</svg>
