<?xml version="1.0" encoding="utf-8" standalone="no"?>
<!DOCTYPE svg PUBLIC "-//W3C//DTD SVG 1.1//EN"
  "http://www.w3.org/Graphics/SVG/1.1/DTD/svg11.dtd">
<svg xmlns:xlink="http://www.w3.org/1999/xlink" width="604.803297pt" height="353.55557pt" viewBox="0 0 604.803297 353.55557" xmlns="http://www.w3.org/2000/svg" version="1.1">
 <metadata>
  <rdf:RDF xmlns:dc="http://purl.org/dc/elements/1.1/" xmlns:cc="http://creativecommons.org/ns#" xmlns:rdf="http://www.w3.org/1999/02/22-rdf-syntax-ns#">
   <cc:Work>
    <dc:type rdf:resource="http://purl.org/dc/dcmitype/StillImage"/>
    <dc:date>2026-07-07T21:39:10.354075</dc:date>
    <dc:format>image/svg+xml</dc:format>
    <dc:creator>
     <cc:Agent>
      <dc:title>Matplotlib v3.11.0, https://matplotlib.org/</dc:title>
     </cc:Agent>
    </dc:creator>
   </cc:Work>
  </rdf:RDF>
 </metadata>
 <defs>
  <style type="text/css">*{stroke-linejoin: round; stroke-linecap: butt}</style>
 </defs>
 <g id="figure_1">
  <g id="patch_1">
   <path d="M 0 353.55557 
L 604.803297 353.55557 
L 604.803297 0 
L 0 0 
L 0 353.55557 
z
" style="fill: none"/>
  </g>
  <g id="axes_1">
   <g id="patch_2">
    <path d="M 65.379297 294.353773 
L 597.603297 294.353773 
L 597.603297 14.417773 
L 65.379297 14.417773 
L 65.379297 294.353773 
z
" style="fill: none"/>
   </g>
   <g id="patch_3">
    <path d="M 89.571297 294.353773 
L 142.948663 294.353773 
L 142.948663 190.113129 
L 89.571297 190.113129 
z
" clip-path="url(#p27dfab300d)" style="fill: #6fb98f; stroke: #00542b; stroke-width: 1.4; stroke-linejoin: miter"/>
   </g>
   <g id="patch_4">
    <path d="M 175.663824 294.353773 
L 229.04119 294.353773 
L 229.04119 188.211177 
L 175.663824 188.211177 
z
" clip-path="url(#p27dfab300d)" style="fill: #6fb98f; stroke: #00542b; stroke-width: 1.4; stroke-linejoin: miter"/>
   </g>
   <g id="patch_5">
    <path d="M 261.75635 294.353773 
L 315.133717 294.353773 
L 315.133717 199.591069 
L 261.75635 199.591069 
z
" clip-path="url(#p27dfab300d)" style="fill: #6fb98f; stroke: #00542b; stroke-width: 1.4; stroke-linejoin: miter"/>
   </g>
   <g id="patch_6">
    <path d="M 347.848877 294.353773 
L 401.226243 294.353773 
L 401.226243 166.12493 
L 347.848877 166.12493 
z
" clip-path="url(#p27dfab300d)" style="fill: #6fb98f; stroke: #00542b; stroke-width: 1.4; stroke-linejoin: miter"/>
   </g>
   <g id="patch_7">
    <path d="M 433.941404 294.353773 
L 487.31877 294.353773 
L 487.31877 150.45957 
L 433.941404 150.45957 
z
" clip-path="url(#p27dfab300d)" style="fill: #6fb98f; stroke: #00542b; stroke-width: 1.4; stroke-linejoin: miter"/>
   </g>
   <g id="patch_8">
    <path d="M 520.03393 294.353773 
L 573.411297 294.353773 
L 573.411297 66.502722 
L 520.03393 66.502722 
z
" clip-path="url(#p27dfab300d)" style="fill: #6fb98f; stroke: #00542b; stroke-width: 1.4; stroke-linejoin: miter"/>
   </g>
   <g id="matplotlib.axis_1">
    <g id="xtick_1">
     <g id="line2d_1">
      <defs>
       <path id="mda6d1b4b43" d="M 0 0 
L 0 3.5 
" style="stroke: #1e252b; stroke-width: 0.8"/>
      </defs>
      <g>
       <use xlink:href="#mda6d1b4b43" x="116.25998" y="294.353773" style="fill: #1e252b; stroke: #1e252b; stroke-width: 0.8"/>
      </g>
     </g>
     <g id="text_1">
      <!-- #15 -->
      <g style="fill: #1e252b" transform="translate(97.265761 315.029555) scale(0.18 -0.18)">
       <defs>
        <path id="DejaVuSans-6" d="M 3272 2816 
L 2363 2816 
L 2100 1772 
L 3016 1772 
L 3272 2816 
z
M 2803 4594 
L 2478 3297 
L 3391 3297 
L 3719 4594 
L 4219 4594 
L 3897 3297 
L 4872 3297 
L 4872 2816 
L 3775 2816 
L 3519 1772 
L 4513 1772 
L 4513 1294 
L 3397 1294 
L 3072 0 
L 2572 0 
L 2894 1294 
L 1978 1294 
L 1656 0 
L 1153 0 
L 1478 1294 
L 494 1294 
L 494 1772 
L 1594 1772 
L 1856 2816 
L 850 2816 
L 850 3297 
L 1978 3297 
L 2297 4594 
L 2803 4594 
z
" transform="scale(0.015625)"/>
        <path id="DejaVuSans-14" d="M 794 531 
L 1825 531 
L 1825 4091 
L 703 3866 
L 703 4441 
L 1819 4666 
L 2450 4666 
L 2450 531 
L 3481 531 
L 3481 0 
L 794 0 
L 794 531 
z
" transform="scale(0.015625)"/>
        <path id="DejaVuSans-18" d="M 691 4666 
L 3169 4666 
L 3169 4134 
L 1269 4134 
L 1269 2991 
Q 1406 3038 1543 3061 
Q 1681 3084 1819 3084 
Q 2600 3084 3056 2656 
Q 3513 2228 3513 1497 
Q 3513 744 3044 326 
Q 2575 -91 1722 -91 
Q 1428 -91 1123 -41 
Q 819 9 494 109 
L 494 744 
Q 775 591 1075 516 
Q 1375 441 1709 441 
Q 2250 441 2565 725 
Q 2881 1009 2881 1497 
Q 2881 1984 2565 2268 
Q 2250 2553 1709 2553 
Q 1456 2553 1204 2497 
Q 953 2441 691 2322 
L 691 4666 
z
" transform="scale(0.015625)"/>
       </defs>
       <use xlink:href="#DejaVuSans-6"/>
       <use xlink:href="#DejaVuSans-14" transform="translate(83.796875 0)"/>
       <use xlink:href="#DejaVuSans-18" transform="translate(147.421875 0)"/>
      </g>
     </g>
    </g>
    <g id="xtick_2">
     <g id="line2d_2">
      <g>
       <use xlink:href="#mda6d1b4b43" x="202.352507" y="294.353773" style="fill: #1e252b; stroke: #1e252b; stroke-width: 0.8"/>
      </g>
     </g>
     <g id="text_2">
      <!-- #22 -->
      <g style="fill: #1e252b" transform="translate(183.358288 315.029555) scale(0.18 -0.18)">
       <defs>
        <path id="DejaVuSans-15" d="M 1228 531 
L 3431 531 
L 3431 0 
L 469 0 
L 469 531 
Q 828 903 1448 1529 
Q 2069 2156 2228 2338 
Q 2531 2678 2651 2914 
Q 2772 3150 2772 3378 
Q 2772 3750 2511 3984 
Q 2250 4219 1831 4219 
Q 1534 4219 1204 4116 
Q 875 4013 500 3803 
L 500 4441 
Q 881 4594 1212 4672 
Q 1544 4750 1819 4750 
Q 2544 4750 2975 4387 
Q 3406 4025 3406 3419 
Q 3406 3131 3298 2873 
Q 3191 2616 2906 2266 
Q 2828 2175 2409 1742 
Q 1991 1309 1228 531 
z
" transform="scale(0.015625)"/>
       </defs>
       <use xlink:href="#DejaVuSans-6"/>
       <use xlink:href="#DejaVuSans-15" transform="translate(83.796875 0)"/>
       <use xlink:href="#DejaVuSans-15" transform="translate(147.421875 0)"/>
      </g>
     </g>
    </g>
    <g id="xtick_3">
     <g id="line2d_3">
      <g>
       <use xlink:href="#mda6d1b4b43" x="288.445034" y="294.353773" style="fill: #1e252b; stroke: #1e252b; stroke-width: 0.8"/>
      </g>
     </g>
     <g id="text_3">
      <!-- #24 -->
      <g style="fill: #1e252b" transform="translate(269.450815 315.029555) scale(0.18 -0.18)">
       <defs>
        <path id="DejaVuSans-17" d="M 2419 4116 
L 825 1625 
L 2419 1625 
L 2419 4116 
z
M 2253 4666 
L 3047 4666 
L 3047 1625 
L 3713 1625 
L 3713 1100 
L 3047 1100 
L 3047 0 
L 2419 0 
L 2419 1100 
L 313 1100 
L 313 1709 
L 2253 4666 
z
" transform="scale(0.015625)"/>
       </defs>
       <use xlink:href="#DejaVuSans-6"/>
       <use xlink:href="#DejaVuSans-15" transform="translate(83.796875 0)"/>
       <use xlink:href="#DejaVuSans-17" transform="translate(147.421875 0)"/>
      </g>
     </g>
    </g>
    <g id="xtick_4">
     <g id="line2d_4">
      <g>
       <use xlink:href="#mda6d1b4b43" x="374.53756" y="294.353773" style="fill: #1e252b; stroke: #1e252b; stroke-width: 0.8"/>
      </g>
     </g>
     <g id="text_4">
      <!-- #25 -->
      <g style="fill: #1e252b" transform="translate(355.543341 315.029555) scale(0.18 -0.18)">
       <use xlink:href="#DejaVuSans-6"/>
       <use xlink:href="#DejaVuSans-15" transform="translate(83.796875 0)"/>
       <use xlink:href="#DejaVuSans-18" transform="translate(147.421875 0)"/>
      </g>
     </g>
    </g>
    <g id="xtick_5">
     <g id="line2d_5">
      <g>
       <use xlink:href="#mda6d1b4b43" x="460.630087" y="294.353773" style="fill: #1e252b; stroke: #1e252b; stroke-width: 0.8"/>
      </g>
     </g>
     <g id="text_5">
      <!-- #26 -->
      <g style="fill: #1e252b" transform="translate(441.635868 315.029555) scale(0.18 -0.18)">
       <defs>
        <path id="DejaVuSans-19" d="M 2113 2584 
Q 1688 2584 1439 2293 
Q 1191 2003 1191 1497 
Q 1191 994 1439 701 
Q 1688 409 2113 409 
Q 2538 409 2786 701 
Q 3034 994 3034 1497 
Q 3034 2003 2786 2293 
Q 2538 2584 2113 2584 
z
M 3366 4563 
L 3366 3988 
Q 3128 4100 2886 4159 
Q 2644 4219 2406 4219 
Q 1781 4219 1451 3797 
Q 1122 3375 1075 2522 
Q 1259 2794 1537 2939 
Q 1816 3084 2150 3084 
Q 2853 3084 3261 2657 
Q 3669 2231 3669 1497 
Q 3669 778 3244 343 
Q 2819 -91 2113 -91 
Q 1303 -91 875 529 
Q 447 1150 447 2328 
Q 447 3434 972 4092 
Q 1497 4750 2381 4750 
Q 2619 4750 2861 4703 
Q 3103 4656 3366 4563 
z
" transform="scale(0.015625)"/>
       </defs>
       <use xlink:href="#DejaVuSans-6"/>
       <use xlink:href="#DejaVuSans-15" transform="translate(83.796875 0)"/>
       <use xlink:href="#DejaVuSans-19" transform="translate(147.421875 0)"/>
      </g>
     </g>
    </g>
    <g id="xtick_6">
     <g id="line2d_6">
      <g>
       <use xlink:href="#mda6d1b4b43" x="546.722614" y="294.353773" style="fill: #1e252b; stroke: #1e252b; stroke-width: 0.8"/>
      </g>
     </g>
     <g id="text_6">
      <!-- #27 -->
      <g style="fill: #1e252b" transform="translate(527.728395 315.029555) scale(0.18 -0.18)">
       <defs>
        <path id="DejaVuSans-1a" d="M 525 4666 
L 3525 4666 
L 3525 4397 
L 1831 0 
L 1172 0 
L 2766 4134 
L 525 4134 
L 525 4666 
z
" transform="scale(0.015625)"/>
       </defs>
       <use xlink:href="#DejaVuSans-6"/>
       <use xlink:href="#DejaVuSans-15" transform="translate(83.796875 0)"/>
       <use xlink:href="#DejaVuSans-1a" transform="translate(147.421875 0)"/>
      </g>
     </g>
    </g>
    <g id="text_7">
     <!-- growth run -->
     <g style="fill: #1e252b" transform="translate(268.519813 340.83018) scale(0.23 -0.23)">
      <defs>
       <path id="DejaVuSans-4a" d="M 2906 1791 
Q 2906 2416 2648 2759 
Q 2391 3103 1925 3103 
Q 1463 3103 1205 2759 
Q 947 2416 947 1791 
Q 947 1169 1205 825 
Q 1463 481 1925 481 
Q 2391 481 2648 825 
Q 2906 1169 2906 1791 
z
M 3481 434 
Q 3481 -459 3084 -895 
Q 2688 -1331 1869 -1331 
Q 1566 -1331 1297 -1286 
Q 1028 -1241 775 -1147 
L 775 -588 
Q 1028 -725 1275 -790 
Q 1522 -856 1778 -856 
Q 2344 -856 2625 -561 
Q 2906 -266 2906 331 
L 2906 616 
Q 2728 306 2450 153 
Q 2172 0 1784 0 
Q 1141 0 747 490 
Q 353 981 353 1791 
Q 353 2603 747 3093 
Q 1141 3584 1784 3584 
Q 2172 3584 2450 3431 
Q 2728 3278 2906 2969 
L 2906 3500 
L 3481 3500 
L 3481 434 
z
" transform="scale(0.015625)"/>
       <path id="DejaVuSans-55" d="M 2631 2963 
Q 2534 3019 2420 3045 
Q 2306 3072 2169 3072 
Q 1681 3072 1420 2755 
Q 1159 2438 1159 1844 
L 1159 0 
L 581 0 
L 581 3500 
L 1159 3500 
L 1159 2956 
Q 1341 3275 1631 3429 
Q 1922 3584 2338 3584 
Q 2397 3584 2469 3576 
Q 2541 3569 2628 3553 
L 2631 2963 
z
" transform="scale(0.015625)"/>
       <path id="DejaVuSans-52" d="M 1959 3097 
Q 1497 3097 1228 2736 
Q 959 2375 959 1747 
Q 959 1119 1226 758 
Q 1494 397 1959 397 
Q 2419 397 2687 759 
Q 2956 1122 2956 1747 
Q 2956 2369 2687 2733 
Q 2419 3097 1959 3097 
z
M 1959 3584 
Q 2709 3584 3137 3096 
Q 3566 2609 3566 1747 
Q 3566 888 3137 398 
Q 2709 -91 1959 -91 
Q 1206 -91 779 398 
Q 353 888 353 1747 
Q 353 2609 779 3096 
Q 1206 3584 1959 3584 
z
" transform="scale(0.015625)"/>
       <path id="DejaVuSans-5a" d="M 269 3500 
L 844 3500 
L 1563 769 
L 2278 3500 
L 2956 3500 
L 3675 769 
L 4391 3500 
L 4966 3500 
L 4050 0 
L 3372 0 
L 2619 2869 
L 1863 0 
L 1184 0 
L 269 3500 
z
" transform="scale(0.015625)"/>
       <path id="DejaVuSans-57" d="M 1172 4494 
L 1172 3500 
L 2356 3500 
L 2356 3053 
L 1172 3053 
L 1172 1153 
Q 1172 725 1289 603 
Q 1406 481 1766 481 
L 2356 481 
L 2356 0 
L 1766 0 
Q 1100 0 847 248 
Q 594 497 594 1153 
L 594 3053 
L 172 3053 
L 172 3500 
L 594 3500 
L 594 4494 
L 1172 4494 
z
" transform="scale(0.015625)"/>
       <path id="DejaVuSans-4b" d="M 3513 2113 
L 3513 0 
L 2938 0 
L 2938 2094 
Q 2938 2591 2744 2837 
Q 2550 3084 2163 3084 
Q 1697 3084 1428 2787 
Q 1159 2491 1159 1978 
L 1159 0 
L 581 0 
L 581 4863 
L 1159 4863 
L 1159 2956 
Q 1366 3272 1645 3428 
Q 1925 3584 2291 3584 
Q 2894 3584 3203 3211 
Q 3513 2838 3513 2113 
z
" transform="scale(0.015625)"/>
       <path id="DejaVuSans-3" transform="scale(0.015625)"/>
       <path id="DejaVuSans-58" d="M 544 1381 
L 544 3500 
L 1119 3500 
L 1119 1403 
Q 1119 906 1312 657 
Q 1506 409 1894 409 
Q 2359 409 2629 706 
Q 2900 1003 2900 1516 
L 2900 3500 
L 3475 3500 
L 3475 0 
L 2900 0 
L 2900 538 
Q 2691 219 2414 64 
Q 2138 -91 1772 -91 
Q 1169 -91 856 284 
Q 544 659 544 1381 
z
M 1991 3584 
L 1991 3584 
z
" transform="scale(0.015625)"/>
       <path id="DejaVuSans-51" d="M 3513 2113 
L 3513 0 
L 2938 0 
L 2938 2094 
Q 2938 2591 2744 2837 
Q 2550 3084 2163 3084 
Q 1697 3084 1428 2787 
Q 1159 2491 1159 1978 
L 1159 0 
L 581 0 
L 581 3500 
L 1159 3500 
L 1159 2956 
Q 1366 3272 1645 3428 
Q 1925 3584 2291 3584 
Q 2894 3584 3203 3211 
Q 3513 2838 3513 2113 
z
" transform="scale(0.015625)"/>
      </defs>
      <use xlink:href="#DejaVuSans-4a"/>
      <use xlink:href="#DejaVuSans-55" transform="translate(63.484375 0)"/>
      <use xlink:href="#DejaVuSans-52" transform="translate(102.390625 0)"/>
      <use xlink:href="#DejaVuSans-5a" transform="translate(163.578125 0)"/>
      <use xlink:href="#DejaVuSans-57" transform="translate(245.359375 0)"/>
      <use xlink:href="#DejaVuSans-4b" transform="translate(284.5625 0)"/>
      <use xlink:href="#DejaVuSans-3" transform="translate(347.9375 0)"/>
      <use xlink:href="#DejaVuSans-55" transform="translate(379.71875 0)"/>
      <use xlink:href="#DejaVuSans-58" transform="translate(420.828125 0)"/>
      <use xlink:href="#DejaVuSans-51" transform="translate(484.203125 0)"/>
     </g>
    </g>
   </g>
   <g id="matplotlib.axis_2">
    <g id="ytick_1">
     <g id="line2d_7">
      <defs>
       <path id="mb2f176f481" d="M 0 0 
L -3.5 0 
" style="stroke: #1e252b; stroke-width: 0.8"/>
      </defs>
      <g>
       <use xlink:href="#mb2f176f481" x="65.379297" y="294.353773" style="fill: #1e252b; stroke: #1e252b; stroke-width: 0.8"/>
      </g>
     </g>
     <g id="text_8">
      <!-- 0 -->
      <g style="fill: #1e252b" transform="translate(46.290547 301.571547) scale(0.19 -0.19)">
       <defs>
        <path id="DejaVuSans-13" d="M 2034 4250 
Q 1547 4250 1301 3770 
Q 1056 3291 1056 2328 
Q 1056 1369 1301 889 
Q 1547 409 2034 409 
Q 2525 409 2770 889 
Q 3016 1369 3016 2328 
Q 3016 3291 2770 3770 
Q 2525 4250 2034 4250 
z
M 2034 4750 
Q 2819 4750 3233 4129 
Q 3647 3509 3647 2328 
Q 3647 1150 3233 529 
Q 2819 -91 2034 -91 
Q 1250 -91 836 529 
Q 422 1150 422 2328 
Q 422 3509 836 4129 
Q 1250 4750 2034 4750 
z
" transform="scale(0.015625)"/>
       </defs>
       <use xlink:href="#DejaVuSans-13"/>
      </g>
     </g>
    </g>
    <g id="ytick_2">
     <g id="line2d_8">
      <g>
       <use xlink:href="#mb2f176f481" x="65.379297" y="238.366573" style="fill: #1e252b; stroke: #1e252b; stroke-width: 0.8"/>
      </g>
     </g>
     <g id="text_9">
      <!-- 10 -->
      <g style="fill: #1e252b" transform="translate(34.201797 245.584347) scale(0.19 -0.19)">
       <use xlink:href="#DejaVuSans-14"/>
       <use xlink:href="#DejaVuSans-13" transform="translate(63.625 0)"/>
      </g>
     </g>
    </g>
    <g id="ytick_3">
     <g id="line2d_9">
      <g>
       <use xlink:href="#mb2f176f481" x="65.379297" y="182.379373" style="fill: #1e252b; stroke: #1e252b; stroke-width: 0.8"/>
      </g>
     </g>
     <g id="text_10">
      <!-- 20 -->
      <g style="fill: #1e252b" transform="translate(34.201797 189.597147) scale(0.19 -0.19)">
       <use xlink:href="#DejaVuSans-15"/>
       <use xlink:href="#DejaVuSans-13" transform="translate(63.625 0)"/>
      </g>
     </g>
    </g>
    <g id="ytick_4">
     <g id="line2d_10">
      <g>
       <use xlink:href="#mb2f176f481" x="65.379297" y="126.392173" style="fill: #1e252b; stroke: #1e252b; stroke-width: 0.8"/>
      </g>
     </g>
     <g id="text_11">
      <!-- 30 -->
      <g style="fill: #1e252b" transform="translate(34.201797 133.609947) scale(0.19 -0.19)">
       <defs>
        <path id="DejaVuSans-16" d="M 2597 2516 
Q 3050 2419 3304 2112 
Q 3559 1806 3559 1356 
Q 3559 666 3084 287 
Q 2609 -91 1734 -91 
Q 1441 -91 1130 -33 
Q 819 25 488 141 
L 488 750 
Q 750 597 1062 519 
Q 1375 441 1716 441 
Q 2309 441 2620 675 
Q 2931 909 2931 1356 
Q 2931 1769 2642 2001 
Q 2353 2234 1838 2234 
L 1294 2234 
L 1294 2753 
L 1863 2753 
Q 2328 2753 2575 2939 
Q 2822 3125 2822 3475 
Q 2822 3834 2567 4026 
Q 2313 4219 1838 4219 
Q 1578 4219 1281 4162 
Q 984 4106 628 3988 
L 628 4550 
Q 988 4650 1302 4700 
Q 1616 4750 1894 4750 
Q 2613 4750 3031 4423 
Q 3450 4097 3450 3541 
Q 3450 3153 3228 2886 
Q 3006 2619 2597 2516 
z
" transform="scale(0.015625)"/>
       </defs>
       <use xlink:href="#DejaVuSans-16"/>
       <use xlink:href="#DejaVuSans-13" transform="translate(63.625 0)"/>
      </g>
     </g>
    </g>
    <g id="ytick_5">
     <g id="line2d_11">
      <g>
       <use xlink:href="#mb2f176f481" x="65.379297" y="70.404973" style="fill: #1e252b; stroke: #1e252b; stroke-width: 0.8"/>
      </g>
     </g>
     <g id="text_12">
      <!-- 40 -->
      <g style="fill: #1e252b" transform="translate(34.201797 77.622747) scale(0.19 -0.19)">
       <use xlink:href="#DejaVuSans-17"/>
       <use xlink:href="#DejaVuSans-13" transform="translate(63.625 0)"/>
      </g>
     </g>
    </g>
    <g id="ytick_6">
     <g id="line2d_12">
      <g>
       <use xlink:href="#mb2f176f481" x="65.379297" y="14.417773" style="fill: #1e252b; stroke: #1e252b; stroke-width: 0.8"/>
      </g>
     </g>
     <g id="text_13">
      <!-- 50 -->
      <g style="fill: #1e252b" transform="translate(34.201797 21.635547) scale(0.19 -0.19)">
       <use xlink:href="#DejaVuSans-18"/>
       <use xlink:href="#DejaVuSans-13" transform="translate(63.625 0)"/>
      </g>
     </g>
    </g>
    <g id="text_14">
     <!-- length scale (nm) -->
     <g style="fill: #1e252b" transform="translate(24.676406 255.447414) rotate(-90) scale(0.23 -0.23)">
      <defs>
       <path id="DejaVuSans-4f" d="M 603 4863 
L 1178 4863 
L 1178 0 
L 603 0 
L 603 4863 
z
" transform="scale(0.015625)"/>
       <path id="DejaVuSans-48" d="M 3597 1894 
L 3597 1613 
L 953 1613 
Q 991 1019 1311 708 
Q 1631 397 2203 397 
Q 2534 397 2845 478 
Q 3156 559 3463 722 
L 3463 178 
Q 3153 47 2828 -22 
Q 2503 -91 2169 -91 
Q 1331 -91 842 396 
Q 353 884 353 1716 
Q 353 2575 817 3079 
Q 1281 3584 2069 3584 
Q 2775 3584 3186 3129 
Q 3597 2675 3597 1894 
z
M 3022 2063 
Q 3016 2534 2758 2815 
Q 2500 3097 2075 3097 
Q 1594 3097 1305 2825 
Q 1016 2553 972 2059 
L 3022 2063 
z
" transform="scale(0.015625)"/>
       <path id="DejaVuSans-56" d="M 2834 3397 
L 2834 2853 
Q 2591 2978 2328 3040 
Q 2066 3103 1784 3103 
Q 1356 3103 1142 2972 
Q 928 2841 928 2578 
Q 928 2378 1081 2264 
Q 1234 2150 1697 2047 
L 1894 2003 
Q 2506 1872 2764 1633 
Q 3022 1394 3022 966 
Q 3022 478 2636 193 
Q 2250 -91 1575 -91 
Q 1294 -91 989 -36 
Q 684 19 347 128 
L 347 722 
Q 666 556 975 473 
Q 1284 391 1588 391 
Q 1994 391 2212 530 
Q 2431 669 2431 922 
Q 2431 1156 2273 1281 
Q 2116 1406 1581 1522 
L 1381 1569 
Q 847 1681 609 1914 
Q 372 2147 372 2553 
Q 372 3047 722 3315 
Q 1072 3584 1716 3584 
Q 2034 3584 2315 3537 
Q 2597 3491 2834 3397 
z
" transform="scale(0.015625)"/>
       <path id="DejaVuSans-46" d="M 3122 3366 
L 3122 2828 
Q 2878 2963 2633 3030 
Q 2388 3097 2138 3097 
Q 1578 3097 1268 2742 
Q 959 2388 959 1747 
Q 959 1106 1268 751 
Q 1578 397 2138 397 
Q 2388 397 2633 464 
Q 2878 531 3122 666 
L 3122 134 
Q 2881 22 2623 -34 
Q 2366 -91 2075 -91 
Q 1284 -91 818 406 
Q 353 903 353 1747 
Q 353 2603 823 3093 
Q 1294 3584 2113 3584 
Q 2378 3584 2631 3529 
Q 2884 3475 3122 3366 
z
" transform="scale(0.015625)"/>
       <path id="DejaVuSans-44" d="M 2194 1759 
Q 1497 1759 1228 1600 
Q 959 1441 959 1056 
Q 959 750 1161 570 
Q 1363 391 1709 391 
Q 2188 391 2477 730 
Q 2766 1069 2766 1631 
L 2766 1759 
L 2194 1759 
z
M 3341 1997 
L 3341 0 
L 2766 0 
L 2766 531 
Q 2569 213 2275 61 
Q 1981 -91 1556 -91 
Q 1019 -91 701 211 
Q 384 513 384 1019 
Q 384 1609 779 1909 
Q 1175 2209 1959 2209 
L 2766 2209 
L 2766 2266 
Q 2766 2663 2505 2880 
Q 2244 3097 1772 3097 
Q 1472 3097 1187 3025 
Q 903 2953 641 2809 
L 641 3341 
Q 956 3463 1253 3523 
Q 1550 3584 1831 3584 
Q 2591 3584 2966 3190 
Q 3341 2797 3341 1997 
z
" transform="scale(0.015625)"/>
       <path id="DejaVuSans-b" d="M 1984 4856 
Q 1566 4138 1362 3434 
Q 1159 2731 1159 2009 
Q 1159 1288 1364 580 
Q 1569 -128 1984 -844 
L 1484 -844 
Q 1016 -109 783 600 
Q 550 1309 550 2009 
Q 550 2706 781 3412 
Q 1013 4119 1484 4856 
L 1984 4856 
z
" transform="scale(0.015625)"/>
       <path id="DejaVuSans-50" d="M 3328 2828 
Q 3544 3216 3844 3400 
Q 4144 3584 4550 3584 
Q 5097 3584 5394 3201 
Q 5691 2819 5691 2113 
L 5691 0 
L 5113 0 
L 5113 2094 
Q 5113 2597 4934 2840 
Q 4756 3084 4391 3084 
Q 3944 3084 3684 2787 
Q 3425 2491 3425 1978 
L 3425 0 
L 2847 0 
L 2847 2094 
Q 2847 2600 2669 2842 
Q 2491 3084 2119 3084 
Q 1678 3084 1418 2786 
Q 1159 2488 1159 1978 
L 1159 0 
L 581 0 
L 581 3500 
L 1159 3500 
L 1159 2956 
Q 1356 3278 1631 3431 
Q 1906 3584 2284 3584 
Q 2666 3584 2933 3390 
Q 3200 3197 3328 2828 
z
" transform="scale(0.015625)"/>
       <path id="DejaVuSans-c" d="M 513 4856 
L 1013 4856 
Q 1481 4119 1714 3412 
Q 1947 2706 1947 2009 
Q 1947 1309 1714 600 
Q 1481 -109 1013 -844 
L 513 -844 
Q 928 -128 1133 580 
Q 1338 1288 1338 2009 
Q 1338 2731 1133 3434 
Q 928 4138 513 4856 
z
" transform="scale(0.015625)"/>
      </defs>
      <use xlink:href="#DejaVuSans-4f"/>
      <use xlink:href="#DejaVuSans-48" transform="translate(27.78125 0)"/>
      <use xlink:href="#DejaVuSans-51" transform="translate(89.3125 0)"/>
      <use xlink:href="#DejaVuSans-4a" transform="translate(152.6875 0)"/>
      <use xlink:href="#DejaVuSans-57" transform="translate(216.171875 0)"/>
      <use xlink:href="#DejaVuSans-4b" transform="translate(255.375 0)"/>
      <use xlink:href="#DejaVuSans-3" transform="translate(318.75 0)"/>
      <use xlink:href="#DejaVuSans-56" transform="translate(350.53125 0)"/>
      <use xlink:href="#DejaVuSans-46" transform="translate(402.625 0)"/>
      <use xlink:href="#DejaVuSans-44" transform="translate(457.609375 0)"/>
      <use xlink:href="#DejaVuSans-4f" transform="translate(518.890625 0)"/>
      <use xlink:href="#DejaVuSans-48" transform="translate(546.671875 0)"/>
      <use xlink:href="#DejaVuSans-3" transform="translate(608.203125 0)"/>
      <use xlink:href="#DejaVuSans-b" transform="translate(639.984375 0)"/>
      <use xlink:href="#DejaVuSans-51" transform="translate(679 0)"/>
      <use xlink:href="#DejaVuSans-50" transform="translate(742.375 0)"/>
      <use xlink:href="#DejaVuSans-c" transform="translate(839.78125 0)"/>
     </g>
    </g>
   </g>
   <g id="LineCollection_1">
    <path d="M 116.25998 194.281347 
L 116.25998 185.944911 
" clip-path="url(#p27dfab300d)" style="fill: none; stroke: #1e252b; stroke-width: 1.6"/>
    <path d="M 202.352507 195.040237 
L 202.352507 181.382117 
" clip-path="url(#p27dfab300d)" style="fill: none; stroke: #1e252b; stroke-width: 1.6"/>
    <path d="M 288.445034 204.926612 
L 288.445034 194.255527 
" clip-path="url(#p27dfab300d)" style="fill: none; stroke: #1e252b; stroke-width: 1.6"/>
    <path d="M 374.53756 173.169169 
L 374.53756 159.080692 
" clip-path="url(#p27dfab300d)" style="fill: none; stroke: #1e252b; stroke-width: 1.6"/>
    <path d="M 460.630087 159.524808 
L 460.630087 141.394331 
" clip-path="url(#p27dfab300d)" style="fill: none; stroke: #1e252b; stroke-width: 1.6"/>
    <path d="M 546.722614 80.862645 
L 546.722614 52.1428 
" clip-path="url(#p27dfab300d)" style="fill: none; stroke: #1e252b; stroke-width: 1.6"/>
   </g>
   <g id="line2d_13">
    <defs>
     <path id="m55b7d7665d" d="M 4 0 
L -4 -0 
" style="stroke: #1e252b"/>
    </defs>
    <g clip-path="url(#p27dfab300d)">
     <use xlink:href="#m55b7d7665d" x="116.25998" y="194.281347" style="fill: #1f77b4; stroke: #1e252b"/>
     <use xlink:href="#m55b7d7665d" x="202.352507" y="195.040237" style="fill: #1f77b4; stroke: #1e252b"/>
     <use xlink:href="#m55b7d7665d" x="288.445034" y="204.926612" style="fill: #1f77b4; stroke: #1e252b"/>
     <use xlink:href="#m55b7d7665d" x="374.53756" y="173.169169" style="fill: #1f77b4; stroke: #1e252b"/>
     <use xlink:href="#m55b7d7665d" x="460.630087" y="159.524808" style="fill: #1f77b4; stroke: #1e252b"/>
     <use xlink:href="#m55b7d7665d" x="546.722614" y="80.862645" style="fill: #1f77b4; stroke: #1e252b"/>
    </g>
   </g>
   <g id="line2d_14">
    <g clip-path="url(#p27dfab300d)">
     <use xlink:href="#m55b7d7665d" x="116.25998" y="185.944911" style="fill: #1f77b4; stroke: #1e252b"/>
     <use xlink:href="#m55b7d7665d" x="202.352507" y="181.382117" style="fill: #1f77b4; stroke: #1e252b"/>
     <use xlink:href="#m55b7d7665d" x="288.445034" y="194.255527" style="fill: #1f77b4; stroke: #1e252b"/>
     <use xlink:href="#m55b7d7665d" x="374.53756" y="159.080692" style="fill: #1f77b4; stroke: #1e252b"/>
     <use xlink:href="#m55b7d7665d" x="460.630087" y="141.394331" style="fill: #1f77b4; stroke: #1e252b"/>
     <use xlink:href="#m55b7d7665d" x="546.722614" y="52.1428" style="fill: #1f77b4; stroke: #1e252b"/>
    </g>
   </g>
   <g id="patch_9">
    <path d="M 65.379297 294.353773 
L 65.379297 14.417773 
" style="fill: none; stroke: #5b6770; stroke-width: 1.6; stroke-linejoin: miter; stroke-linecap: square"/>
   </g>
   <g id="patch_10">
    <path d="M 65.379297 294.353773 
L 597.603297 294.353773 
" style="fill: none; stroke: #5b6770; stroke-width: 1.6; stroke-linejoin: miter; stroke-linecap: square"/>
   </g>
   <g id="text_15">
    <!-- lateral ≈ vertical length scale -->
    <g style="fill: #00542b" transform="translate(288.445034 85.791868) scale(0.175 -0.175)">
     <defs>
      <path id="DejaVuSans-Bold-4f" d="M 538 4863 
L 1656 4863 
L 1656 0 
L 538 0 
L 538 4863 
z
" transform="scale(0.015625)"/>
      <path id="DejaVuSans-Bold-44" d="M 2106 1575 
Q 1756 1575 1579 1456 
Q 1403 1338 1403 1106 
Q 1403 894 1545 773 
Q 1688 653 1941 653 
Q 2256 653 2472 879 
Q 2688 1106 2688 1447 
L 2688 1575 
L 2106 1575 
z
M 3816 1997 
L 3816 0 
L 2688 0 
L 2688 519 
Q 2463 200 2181 54 
Q 1900 -91 1497 -91 
Q 953 -91 614 226 
Q 275 544 275 1050 
Q 275 1666 698 1953 
Q 1122 2241 2028 2241 
L 2688 2241 
L 2688 2328 
Q 2688 2594 2478 2717 
Q 2269 2841 1825 2841 
Q 1466 2841 1156 2769 
Q 847 2697 581 2553 
L 581 3406 
Q 941 3494 1303 3539 
Q 1666 3584 2028 3584 
Q 2975 3584 3395 3211 
Q 3816 2838 3816 1997 
z
" transform="scale(0.015625)"/>
      <path id="DejaVuSans-Bold-57" d="M 1759 4494 
L 1759 3500 
L 2913 3500 
L 2913 2700 
L 1759 2700 
L 1759 1216 
Q 1759 972 1856 886 
Q 1953 800 2241 800 
L 2816 800 
L 2816 0 
L 1856 0 
Q 1194 0 917 276 
Q 641 553 641 1216 
L 641 2700 
L 84 2700 
L 84 3500 
L 641 3500 
L 641 4494 
L 1759 4494 
z
" transform="scale(0.015625)"/>
      <path id="DejaVuSans-Bold-48" d="M 4031 1759 
L 4031 1441 
L 1416 1441 
Q 1456 1047 1700 850 
Q 1944 653 2381 653 
Q 2734 653 3104 758 
Q 3475 863 3866 1075 
L 3866 213 
Q 3469 63 3072 -14 
Q 2675 -91 2278 -91 
Q 1328 -91 801 392 
Q 275 875 275 1747 
Q 275 2603 792 3093 
Q 1309 3584 2216 3584 
Q 3041 3584 3536 3087 
Q 4031 2591 4031 1759 
z
M 2881 2131 
Q 2881 2450 2695 2645 
Q 2509 2841 2209 2841 
Q 1884 2841 1681 2658 
Q 1478 2475 1428 2131 
L 2881 2131 
z
" transform="scale(0.015625)"/>
      <path id="DejaVuSans-Bold-55" d="M 3138 2547 
Q 2991 2616 2845 2648 
Q 2700 2681 2553 2681 
Q 2122 2681 1889 2404 
Q 1656 2128 1656 1613 
L 1656 0 
L 538 0 
L 538 3500 
L 1656 3500 
L 1656 2925 
Q 1872 3269 2151 3426 
Q 2431 3584 2822 3584 
Q 2878 3584 2943 3579 
Q 3009 3575 3134 3559 
L 3138 2547 
z
" transform="scale(0.015625)"/>
      <path id="DejaVuSans-Bold-3" transform="scale(0.015625)"/>
      <path id="DejaVuSans-Bold-cd2" d="M 4684 3309 
L 4684 2547 
Q 4353 2297 4073 2189 
Q 3794 2081 3494 2081 
Q 3159 2081 2713 2263 
Q 2669 2281 2644 2291 
Q 2622 2300 2575 2319 
Q 2091 2509 1797 2509 
Q 1522 2509 1253 2389 
Q 984 2269 678 2009 
L 678 2772 
Q 1006 3016 1286 3123 
Q 1566 3231 1869 3231 
Q 2213 3231 2672 3047 
Q 2703 3034 2719 3028 
Q 2744 3019 2788 3000 
Q 3272 2809 3566 2809 
Q 3834 2809 4098 2926 
Q 4363 3044 4684 3309 
z
M 4684 2003 
L 4684 1241 
Q 4353 991 4073 883 
Q 3794 775 3494 775 
Q 3159 775 2713 956 
Q 2669 975 2641 988 
Q 2622 994 2575 1013 
Q 2091 1203 1797 1203 
Q 1522 1203 1253 1084 
Q 984 966 678 703 
L 678 1466 
Q 1013 1716 1291 1823 
Q 1569 1931 1869 1931 
Q 2203 1931 2650 1750 
Q 2697 1731 2719 1722 
Q 2744 1713 2788 1697 
Q 3272 1503 3566 1503 
Q 3834 1503 4098 1620 
Q 4363 1738 4684 2003 
z
" transform="scale(0.015625)"/>
      <path id="DejaVuSans-Bold-59" d="M 97 3500 
L 1216 3500 
L 2088 1081 
L 2956 3500 
L 4078 3500 
L 2700 0 
L 1472 0 
L 97 3500 
z
" transform="scale(0.015625)"/>
      <path id="DejaVuSans-Bold-4c" d="M 538 3500 
L 1656 3500 
L 1656 0 
L 538 0 
L 538 3500 
z
M 538 4863 
L 1656 4863 
L 1656 3950 
L 538 3950 
L 538 4863 
z
" transform="scale(0.015625)"/>
      <path id="DejaVuSans-Bold-46" d="M 3366 3391 
L 3366 2478 
Q 3138 2634 2908 2709 
Q 2678 2784 2431 2784 
Q 1963 2784 1702 2511 
Q 1441 2238 1441 1747 
Q 1441 1256 1702 982 
Q 1963 709 2431 709 
Q 2694 709 2930 787 
Q 3166 866 3366 1019 
L 3366 103 
Q 3103 6 2833 -42 
Q 2563 -91 2291 -91 
Q 1344 -91 809 395 
Q 275 881 275 1747 
Q 275 2613 809 3098 
Q 1344 3584 2291 3584 
Q 2566 3584 2833 3536 
Q 3100 3488 3366 3391 
z
" transform="scale(0.015625)"/>
      <path id="DejaVuSans-Bold-51" d="M 4056 2131 
L 4056 0 
L 2931 0 
L 2931 347 
L 2931 1631 
Q 2931 2084 2911 2256 
Q 2891 2428 2841 2509 
Q 2775 2619 2662 2680 
Q 2550 2741 2406 2741 
Q 2056 2741 1856 2470 
Q 1656 2200 1656 1722 
L 1656 0 
L 538 0 
L 538 3500 
L 1656 3500 
L 1656 2988 
Q 1909 3294 2193 3439 
Q 2478 3584 2822 3584 
Q 3428 3584 3742 3212 
Q 4056 2841 4056 2131 
z
" transform="scale(0.015625)"/>
      <path id="DejaVuSans-Bold-4a" d="M 2919 594 
Q 2688 288 2409 144 
Q 2131 0 1766 0 
Q 1125 0 706 504 
Q 288 1009 288 1791 
Q 288 2575 706 3076 
Q 1125 3578 1766 3578 
Q 2131 3578 2409 3434 
Q 2688 3291 2919 2981 
L 2919 3500 
L 4044 3500 
L 4044 353 
Q 4044 -491 3511 -936 
Q 2978 -1381 1966 -1381 
Q 1638 -1381 1331 -1331 
Q 1025 -1281 716 -1178 
L 716 -306 
Q 1009 -475 1290 -558 
Q 1572 -641 1856 -641 
Q 2406 -641 2662 -400 
Q 2919 -159 2919 353 
L 2919 594 
z
M 2181 2772 
Q 1834 2772 1640 2515 
Q 1447 2259 1447 1791 
Q 1447 1309 1634 1061 
Q 1822 813 2181 813 
Q 2531 813 2725 1069 
Q 2919 1325 2919 1791 
Q 2919 2259 2725 2515 
Q 2531 2772 2181 2772 
z
" transform="scale(0.015625)"/>
      <path id="DejaVuSans-Bold-4b" d="M 4056 2131 
L 4056 0 
L 2931 0 
L 2931 347 
L 2931 1625 
Q 2931 2084 2911 2256 
Q 2891 2428 2841 2509 
Q 2775 2619 2662 2680 
Q 2550 2741 2406 2741 
Q 2056 2741 1856 2470 
Q 1656 2200 1656 1722 
L 1656 0 
L 538 0 
L 538 4863 
L 1656 4863 
L 1656 2988 
Q 1909 3294 2193 3439 
Q 2478 3584 2822 3584 
Q 3428 3584 3742 3212 
Q 4056 2841 4056 2131 
z
" transform="scale(0.015625)"/>
      <path id="DejaVuSans-Bold-56" d="M 3272 3391 
L 3272 2541 
Q 2913 2691 2578 2766 
Q 2244 2841 1947 2841 
Q 1628 2841 1473 2761 
Q 1319 2681 1319 2516 
Q 1319 2381 1436 2309 
Q 1553 2238 1856 2203 
L 2053 2175 
Q 2913 2066 3209 1816 
Q 3506 1566 3506 1031 
Q 3506 472 3093 190 
Q 2681 -91 1863 -91 
Q 1516 -91 1145 -36 
Q 775 19 384 128 
L 384 978 
Q 719 816 1070 734 
Q 1422 653 1784 653 
Q 2113 653 2278 743 
Q 2444 834 2444 1013 
Q 2444 1163 2330 1236 
Q 2216 1309 1875 1350 
L 1678 1375 
Q 931 1469 631 1722 
Q 331 1975 331 2491 
Q 331 3047 712 3315 
Q 1094 3584 1881 3584 
Q 2191 3584 2531 3537 
Q 2872 3491 3272 3391 
z
" transform="scale(0.015625)"/>
     </defs>
     <use xlink:href="#DejaVuSans-Bold-4f"/>
     <use xlink:href="#DejaVuSans-Bold-44" transform="translate(34.28125 0)"/>
     <use xlink:href="#DejaVuSans-Bold-57" transform="translate(101.765625 0)"/>
     <use xlink:href="#DejaVuSans-Bold-48" transform="translate(149.5625 0)"/>
     <use xlink:href="#DejaVuSans-Bold-55" transform="translate(217.390625 0)"/>
     <use xlink:href="#DejaVuSans-Bold-44" transform="translate(266.703125 0)"/>
     <use xlink:href="#DejaVuSans-Bold-4f" transform="translate(334.1875 0)"/>
     <use xlink:href="#DejaVuSans-Bold-3" transform="translate(368.46875 0)"/>
     <use xlink:href="#DejaVuSans-Bold-cd2" transform="translate(403.28125 0)"/>
     <use xlink:href="#DejaVuSans-Bold-3" transform="translate(487.078125 0)"/>
     <use xlink:href="#DejaVuSans-Bold-59" transform="translate(521.890625 0)"/>
     <use xlink:href="#DejaVuSans-Bold-48" transform="translate(587.078125 0)"/>
     <use xlink:href="#DejaVuSans-Bold-55" transform="translate(654.90625 0)"/>
     <use xlink:href="#DejaVuSans-Bold-57" transform="translate(704.21875 0)"/>
     <use xlink:href="#DejaVuSans-Bold-4c" transform="translate(752.015625 0)"/>
     <use xlink:href="#DejaVuSans-Bold-46" transform="translate(786.296875 0)"/>
     <use xlink:href="#DejaVuSans-Bold-44" transform="translate(845.578125 0)"/>
     <use xlink:href="#DejaVuSans-Bold-4f" transform="translate(913.0625 0)"/>
     <use xlink:href="#DejaVuSans-Bold-3" transform="translate(947.34375 0)"/>
     <use xlink:href="#DejaVuSans-Bold-4f" transform="translate(982.15625 0)"/>
     <use xlink:href="#DejaVuSans-Bold-48" transform="translate(1016.4375 0)"/>
     <use xlink:href="#DejaVuSans-Bold-51" transform="translate(1084.265625 0)"/>
     <use xlink:href="#DejaVuSans-Bold-4a" transform="translate(1155.453125 0)"/>
     <use xlink:href="#DejaVuSans-Bold-57" transform="translate(1227.03125 0)"/>
     <use xlink:href="#DejaVuSans-Bold-4b" transform="translate(1274.828125 0)"/>
     <use xlink:href="#DejaVuSans-Bold-3" transform="translate(1346.015625 0)"/>
     <use xlink:href="#DejaVuSans-Bold-56" transform="translate(1380.828125 0)"/>
     <use xlink:href="#DejaVuSans-Bold-46" transform="translate(1440.34375 0)"/>
     <use xlink:href="#DejaVuSans-Bold-44" transform="translate(1499.625 0)"/>
     <use xlink:href="#DejaVuSans-Bold-4f" transform="translate(1567.109375 0)"/>
     <use xlink:href="#DejaVuSans-Bold-48" transform="translate(1601.390625 0)"/>
    </g>
    <!-- → columnar grains -->
    <g style="fill: #00542b" transform="translate(288.445034 106.796653) scale(0.175 -0.175)">
     <defs>
      <path id="DejaVuSans-Bold-c1c" d="M 5050 2225 
L 5050 1788 
L 3822 559 
L 3369 1013 
L 3988 1631 
L 366 1631 
L 366 2381 
L 3988 2381 
L 3369 3000 
L 3822 3453 
L 5050 2225 
z
" transform="scale(0.015625)"/>
      <path id="DejaVuSans-Bold-52" d="M 2203 2784 
Q 1831 2784 1636 2517 
Q 1441 2250 1441 1747 
Q 1441 1244 1636 976 
Q 1831 709 2203 709 
Q 2569 709 2762 976 
Q 2956 1244 2956 1747 
Q 2956 2250 2762 2517 
Q 2569 2784 2203 2784 
z
M 2203 3584 
Q 3106 3584 3614 3096 
Q 4122 2609 4122 1747 
Q 4122 884 3614 396 
Q 3106 -91 2203 -91 
Q 1297 -91 786 396 
Q 275 884 275 1747 
Q 275 2609 786 3096 
Q 1297 3584 2203 3584 
z
" transform="scale(0.015625)"/>
      <path id="DejaVuSans-Bold-58" d="M 500 1363 
L 500 3500 
L 1625 3500 
L 1625 3150 
Q 1625 2866 1622 2436 
Q 1619 2006 1619 1863 
Q 1619 1441 1641 1255 
Q 1663 1069 1716 984 
Q 1784 875 1895 815 
Q 2006 756 2150 756 
Q 2500 756 2700 1025 
Q 2900 1294 2900 1772 
L 2900 3500 
L 4019 3500 
L 4019 0 
L 2900 0 
L 2900 506 
Q 2647 200 2364 54 
Q 2081 -91 1741 -91 
Q 1134 -91 817 281 
Q 500 653 500 1363 
z
" transform="scale(0.015625)"/>
      <path id="DejaVuSans-Bold-50" d="M 3781 2919 
Q 3994 3244 4286 3414 
Q 4578 3584 4928 3584 
Q 5531 3584 5847 3212 
Q 6163 2841 6163 2131 
L 6163 0 
L 5038 0 
L 5038 1825 
Q 5041 1866 5042 1909 
Q 5044 1953 5044 2034 
Q 5044 2406 4934 2573 
Q 4825 2741 4581 2741 
Q 4263 2741 4089 2478 
Q 3916 2216 3909 1719 
L 3909 0 
L 2784 0 
L 2784 1825 
Q 2784 2406 2684 2573 
Q 2584 2741 2328 2741 
Q 2006 2741 1831 2477 
Q 1656 2213 1656 1722 
L 1656 0 
L 531 0 
L 531 3500 
L 1656 3500 
L 1656 2988 
Q 1863 3284 2130 3434 
Q 2397 3584 2719 3584 
Q 3081 3584 3359 3409 
Q 3638 3234 3781 2919 
z
" transform="scale(0.015625)"/>
     </defs>
     <use xlink:href="#DejaVuSans-Bold-c1c"/>
     <use xlink:href="#DejaVuSans-Bold-3" transform="translate(83.796875 0)"/>
     <use xlink:href="#DejaVuSans-Bold-46" transform="translate(118.609375 0)"/>
     <use xlink:href="#DejaVuSans-Bold-52" transform="translate(177.890625 0)"/>
     <use xlink:href="#DejaVuSans-Bold-4f" transform="translate(246.59375 0)"/>
     <use xlink:href="#DejaVuSans-Bold-58" transform="translate(280.875 0)"/>
     <use xlink:href="#DejaVuSans-Bold-50" transform="translate(352.0625 0)"/>
     <use xlink:href="#DejaVuSans-Bold-51" transform="translate(456.265625 0)"/>
     <use xlink:href="#DejaVuSans-Bold-44" transform="translate(527.453125 0)"/>
     <use xlink:href="#DejaVuSans-Bold-55" transform="translate(594.9375 0)"/>
     <use xlink:href="#DejaVuSans-Bold-3" transform="translate(644.25 0)"/>
     <use xlink:href="#DejaVuSans-Bold-4a" transform="translate(679.0625 0)"/>
     <use xlink:href="#DejaVuSans-Bold-55" transform="translate(750.640625 0)"/>
     <use xlink:href="#DejaVuSans-Bold-44" transform="translate(799.953125 0)"/>
     <use xlink:href="#DejaVuSans-Bold-4c" transform="translate(867.4375 0)"/>
     <use xlink:href="#DejaVuSans-Bold-51" transform="translate(901.71875 0)"/>
     <use xlink:href="#DejaVuSans-Bold-56" transform="translate(972.90625 0)"/>
    </g>
   </g>
   <g id="legend_1">
    <g id="PathCollection_1">
     <defs>
      <path id="mfec74cbe94" d="M 0 9.219544 
L 9.219544 0 
L 0 -9.219544 
L -9.219544 0 
z
" style="stroke: #1e252b; stroke-width: 1.3"/>
     </defs>
     <g>
      <use xlink:href="#mfec74cbe94" x="99.579297" y="39.572773" style="fill: #e8a33d; stroke: #1e252b; stroke-width: 1.3"/>
     </g>
    </g>
    <g id="text_16">
     <!-- XRD coherence length L$_{002}$ -->
     <g transform="translate(123.879297 44.297773) scale(0.18 -0.18)">
      <defs>
       <path id="DejaVuSans-3b" d="M 403 4666 
L 1081 4666 
L 2241 2931 
L 3406 4666 
L 4084 4666 
L 2584 2425 
L 4184 0 
L 3506 0 
L 2194 1984 
L 872 0 
L 191 0 
L 1856 2491 
L 403 4666 
z
" transform="scale(0.015625)"/>
       <path id="DejaVuSans-35" d="M 2841 2188 
Q 3044 2119 3236 1894 
Q 3428 1669 3622 1275 
L 4263 0 
L 3584 0 
L 2988 1197 
Q 2756 1666 2539 1819 
Q 2322 1972 1947 1972 
L 1259 1972 
L 1259 0 
L 628 0 
L 628 4666 
L 2053 4666 
Q 2853 4666 3247 4331 
Q 3641 3997 3641 3322 
Q 3641 2881 3436 2590 
Q 3231 2300 2841 2188 
z
M 1259 4147 
L 1259 2491 
L 2053 2491 
Q 2509 2491 2742 2702 
Q 2975 2913 2975 3322 
Q 2975 3731 2742 3939 
Q 2509 4147 2053 4147 
L 1259 4147 
z
" transform="scale(0.015625)"/>
       <path id="DejaVuSans-27" d="M 1259 4147 
L 1259 519 
L 2022 519 
Q 2988 519 3436 956 
Q 3884 1394 3884 2338 
Q 3884 3275 3436 3711 
Q 2988 4147 2022 4147 
L 1259 4147 
z
M 628 4666 
L 1925 4666 
Q 3281 4666 3915 4102 
Q 4550 3538 4550 2338 
Q 4550 1131 3912 565 
Q 3275 0 1925 0 
L 628 0 
L 628 4666 
z
" transform="scale(0.015625)"/>
       <path id="DejaVuSans-2f" d="M 628 4666 
L 1259 4666 
L 1259 531 
L 3531 531 
L 3531 0 
L 628 0 
L 628 4666 
z
" transform="scale(0.015625)"/>
      </defs>
      <use xlink:href="#DejaVuSans-3b" transform="translate(0 0.015625)"/>
      <use xlink:href="#DejaVuSans-35" transform="translate(68.505859 0.015625)"/>
      <use xlink:href="#DejaVuSans-27" transform="translate(137.988281 0.015625)"/>
      <use xlink:href="#DejaVuSans-3" transform="translate(214.990234 0.015625)"/>
      <use xlink:href="#DejaVuSans-46" transform="translate(246.777344 0.015625)"/>
      <use xlink:href="#DejaVuSans-52" transform="translate(301.757812 0.015625)"/>
      <use xlink:href="#DejaVuSans-4b" transform="translate(362.939453 0.015625)"/>
      <use xlink:href="#DejaVuSans-48" transform="translate(426.318359 0.015625)"/>
      <use xlink:href="#DejaVuSans-55" transform="translate(487.841797 0.015625)"/>
      <use xlink:href="#DejaVuSans-48" transform="translate(526.955078 0.015625)"/>
      <use xlink:href="#DejaVuSans-51" transform="translate(588.478516 0.015625)"/>
      <use xlink:href="#DejaVuSans-46" transform="translate(651.857422 0.015625)"/>
      <use xlink:href="#DejaVuSans-48" transform="translate(706.837891 0.015625)"/>
      <use xlink:href="#DejaVuSans-3" transform="translate(768.361328 0.015625)"/>
      <use xlink:href="#DejaVuSans-4f" transform="translate(800.148438 0.015625)"/>
      <use xlink:href="#DejaVuSans-48" transform="translate(827.931641 0.015625)"/>
      <use xlink:href="#DejaVuSans-51" transform="translate(889.455078 0.015625)"/>
      <use xlink:href="#DejaVuSans-4a" transform="translate(952.833984 0.015625)"/>
      <use xlink:href="#DejaVuSans-57" transform="translate(1016.310547 0.015625)"/>
      <use xlink:href="#DejaVuSans-4b" transform="translate(1055.519531 0.015625)"/>
      <use xlink:href="#DejaVuSans-3" transform="translate(1118.898438 0.015625)"/>
      <use xlink:href="#DejaVuSans-2f" transform="translate(1150.685547 0.015625)"/>
      <use xlink:href="#DejaVuSans-13" transform="translate(1207.355469 -14.984326) scale(0.7)"/>
      <use xlink:href="#DejaVuSans-13" transform="translate(1251.891602 -14.984326) scale(0.7)"/>
      <use xlink:href="#DejaVuSans-15" transform="translate(1296.427734 -14.984326) scale(0.7)"/>
     </g>
    </g>
    <g id="patch_11">
     <path d="M 81.579297 71.324492 
L 117.579297 71.324492 
L 117.579297 58.724492 
L 81.579297 58.724492 
z
" style="fill: #6fb98f; stroke: #00542b; stroke-width: 1.4; stroke-linejoin: miter"/>
    </g>
    <g id="text_17">
     <!-- AFM surface feature Ø (median, 1 µm scans) -->
     <g transform="translate(123.879297 71.324492) scale(0.18 -0.18)">
      <defs>
       <path id="DejaVuSans-24" d="M 2188 4044 
L 1331 1722 
L 3047 1722 
L 2188 4044 
z
M 1831 4666 
L 2547 4666 
L 4325 0 
L 3669 0 
L 3244 1197 
L 1141 1197 
L 716 0 
L 50 0 
L 1831 4666 
z
" transform="scale(0.015625)"/>
       <path id="DejaVuSans-29" d="M 628 4666 
L 3309 4666 
L 3309 4134 
L 1259 4134 
L 1259 2759 
L 3109 2759 
L 3109 2228 
L 1259 2228 
L 1259 0 
L 628 0 
L 628 4666 
z
" transform="scale(0.015625)"/>
       <path id="DejaVuSans-30" d="M 628 4666 
L 1569 4666 
L 2759 1491 
L 3956 4666 
L 4897 4666 
L 4897 0 
L 4281 0 
L 4281 4097 
L 3078 897 
L 2444 897 
L 1241 4097 
L 1241 0 
L 628 0 
L 628 4666 
z
" transform="scale(0.015625)"/>
       <path id="DejaVuSans-49" d="M 2375 4863 
L 2375 4384 
L 1825 4384 
Q 1516 4384 1395 4259 
Q 1275 4134 1275 3809 
L 1275 3500 
L 2222 3500 
L 2222 3053 
L 1275 3053 
L 1275 0 
L 697 0 
L 697 3053 
L 147 3053 
L 147 3500 
L 697 3500 
L 697 3744 
Q 697 4328 969 4595 
Q 1241 4863 1831 4863 
L 2375 4863 
z
" transform="scale(0.015625)"/>
       <path id="DejaVuSans-9a" d="M 3769 3475 
L 1528 831 
Q 1722 631 1973 526 
Q 2225 422 2522 422 
Q 3209 422 3611 934 
Q 4013 1447 4013 2328 
Q 4013 2678 3952 2965 
Q 3891 3253 3769 3475 
z
M 3513 3828 
Q 3322 4028 3070 4133 
Q 2819 4238 2522 4238 
Q 1834 4238 1429 3725 
Q 1025 3213 1025 2328 
Q 1025 1978 1086 1684 
Q 1147 1391 1269 1178 
L 3513 3828 
z
M 850 684 
Q 606 1003 482 1415 
Q 359 1828 359 2328 
Q 359 3434 948 4092 
Q 1538 4750 2522 4750 
Q 2928 4750 3273 4629 
Q 3619 4509 3891 4275 
L 4397 4872 
L 4716 4594 
L 4184 3975 
Q 4428 3653 4553 3237 
Q 4678 2822 4678 2328 
Q 4678 1225 4090 567 
Q 3503 -91 2522 -91 
Q 2122 -91 1776 26 
Q 1431 144 1147 378 
L 641 -219 
L 319 56 
L 850 684 
z
" transform="scale(0.015625)"/>
       <path id="DejaVuSans-47" d="M 2906 2969 
L 2906 4863 
L 3481 4863 
L 3481 0 
L 2906 0 
L 2906 525 
Q 2725 213 2448 61 
Q 2172 -91 1784 -91 
Q 1150 -91 751 415 
Q 353 922 353 1747 
Q 353 2572 751 3078 
Q 1150 3584 1784 3584 
Q 2172 3584 2448 3432 
Q 2725 3281 2906 2969 
z
M 947 1747 
Q 947 1113 1208 752 
Q 1469 391 1925 391 
Q 2381 391 2643 752 
Q 2906 1113 2906 1747 
Q 2906 2381 2643 2742 
Q 2381 3103 1925 3103 
Q 1469 3103 1208 2742 
Q 947 2381 947 1747 
z
" transform="scale(0.015625)"/>
       <path id="DejaVuSans-4c" d="M 603 3500 
L 1178 3500 
L 1178 0 
L 603 0 
L 603 3500 
z
M 603 4863 
L 1178 4863 
L 1178 4134 
L 603 4134 
L 603 4863 
z
" transform="scale(0.015625)"/>
       <path id="DejaVuSans-f" d="M 750 794 
L 1409 794 
L 1409 256 
L 897 -744 
L 494 -744 
L 750 256 
L 750 794 
z
" transform="scale(0.015625)"/>
       <path id="DejaVuSans-77" d="M 544 -1331 
L 544 3500 
L 1119 3500 
L 1119 1325 
Q 1119 872 1334 640 
Q 1550 409 1972 409 
Q 2434 409 2667 671 
Q 2900 934 2900 1459 
L 2900 3500 
L 3475 3500 
L 3475 806 
Q 3475 619 3529 530 
Q 3584 441 3700 441 
Q 3728 441 3778 458 
Q 3828 475 3916 513 
L 3916 50 
Q 3788 -22 3673 -56 
Q 3559 -91 3450 -91 
Q 3234 -91 3106 31 
Q 2978 153 2931 403 
Q 2775 156 2548 32 
Q 2322 -91 2016 -91 
Q 1697 -91 1473 31 
Q 1250 153 1119 397 
L 1119 -1331 
L 544 -1331 
z
" transform="scale(0.015625)"/>
      </defs>
      <use xlink:href="#DejaVuSans-24"/>
      <use xlink:href="#DejaVuSans-29" transform="translate(68.40625 0)"/>
      <use xlink:href="#DejaVuSans-30" transform="translate(125.921875 0)"/>
      <use xlink:href="#DejaVuSans-3" transform="translate(212.203125 0)"/>
      <use xlink:href="#DejaVuSans-56" transform="translate(243.984375 0)"/>
      <use xlink:href="#DejaVuSans-58" transform="translate(296.078125 0)"/>
      <use xlink:href="#DejaVuSans-55" transform="translate(359.453125 0)"/>
      <use xlink:href="#DejaVuSans-49" transform="translate(400.5625 0)"/>
      <use xlink:href="#DejaVuSans-44" transform="translate(435.765625 0)"/>
      <use xlink:href="#DejaVuSans-46" transform="translate(497.046875 0)"/>
      <use xlink:href="#DejaVuSans-48" transform="translate(552.03125 0)"/>
      <use xlink:href="#DejaVuSans-3" transform="translate(613.5625 0)"/>
      <use xlink:href="#DejaVuSans-49" transform="translate(645.34375 0)"/>
      <use xlink:href="#DejaVuSans-48" transform="translate(680.546875 0)"/>
      <use xlink:href="#DejaVuSans-44" transform="translate(742.078125 0)"/>
      <use xlink:href="#DejaVuSans-57" transform="translate(803.359375 0)"/>
      <use xlink:href="#DejaVuSans-58" transform="translate(842.5625 0)"/>
      <use xlink:href="#DejaVuSans-55" transform="translate(905.9375 0)"/>
      <use xlink:href="#DejaVuSans-48" transform="translate(944.84375 0)"/>
      <use xlink:href="#DejaVuSans-3" transform="translate(1006.375 0)"/>
      <use xlink:href="#DejaVuSans-9a" transform="translate(1038.15625 0)"/>
      <use xlink:href="#DejaVuSans-3" transform="translate(1116.875 0)"/>
      <use xlink:href="#DejaVuSans-b" transform="translate(1148.65625 0)"/>
      <use xlink:href="#DejaVuSans-50" transform="translate(1187.671875 0)"/>
      <use xlink:href="#DejaVuSans-48" transform="translate(1285.078125 0)"/>
      <use xlink:href="#DejaVuSans-47" transform="translate(1346.609375 0)"/>
      <use xlink:href="#DejaVuSans-4c" transform="translate(1410.09375 0)"/>
      <use xlink:href="#DejaVuSans-44" transform="translate(1437.875 0)"/>
      <use xlink:href="#DejaVuSans-51" transform="translate(1499.15625 0)"/>
      <use xlink:href="#DejaVuSans-f" transform="translate(1562.53125 0)"/>
      <use xlink:href="#DejaVuSans-3" transform="translate(1594.3125 0)"/>
      <use xlink:href="#DejaVuSans-14" transform="translate(1626.09375 0)"/>
      <use xlink:href="#DejaVuSans-3" transform="translate(1689.71875 0)"/>
      <use xlink:href="#DejaVuSans-77" transform="translate(1721.5 0)"/>
      <use xlink:href="#DejaVuSans-50" transform="translate(1785.125 0)"/>
      <use xlink:href="#DejaVuSans-3" transform="translate(1882.53125 0)"/>
      <use xlink:href="#DejaVuSans-56" transform="translate(1914.3125 0)"/>
      <use xlink:href="#DejaVuSans-46" transform="translate(1966.40625 0)"/>
      <use xlink:href="#DejaVuSans-44" transform="translate(2021.390625 0)"/>
      <use xlink:href="#DejaVuSans-51" transform="translate(2082.671875 0)"/>
      <use xlink:href="#DejaVuSans-56" transform="translate(2146.046875 0)"/>
      <use xlink:href="#DejaVuSans-c" transform="translate(2198.140625 0)"/>
     </g>
    </g>
   </g>
   <g id="PathCollection_2">
    <g clip-path="url(#p27dfab300d)">
     <use xlink:href="#mfec74cbe94" x="116.25998" y="131.608966" style="fill: #e8a33d; stroke: #1e252b; stroke-width: 1.3"/>
     <use xlink:href="#mfec74cbe94" x="202.352507" y="130.646445" style="fill: #e8a33d; stroke: #1e252b; stroke-width: 1.3"/>
     <use xlink:href="#mfec74cbe94" x="288.445034" y="133.001272" style="fill: #e8a33d; stroke: #1e252b; stroke-width: 1.3"/>
     <use xlink:href="#mfec74cbe94" x="460.630087" y="134.863418" style="fill: #e8a33d; stroke: #1e252b; stroke-width: 1.3"/>
    </g>
   </g>
  </g>
 </g>
 <defs>
  <clipPath id="p27dfab300d">
   <rect x="65.379297" y="14.417773" width="532.224" height="279.936"/>
  </clipPath>
 </defs>
</svg>
